<?xml version="1.0" encoding="UTF-8" standalone="no"?>
<svg width="68px" height="59px" viewBox="0 0 68 59" version="1.1" xmlns="http://www.w3.org/2000/svg" xmlns:xlink="http://www.w3.org/1999/xlink">
    <!-- Generator: Sketch 3.8.3 (29802) - http://www.bohemiancoding.com/sketch -->
    <title>holboxeno-logo</title>
    <desc>Created with Sketch.</desc>
    <defs>
        <polygon id="path-1" points="32.6604245 0.108336207 0.195357212 0.108336207 0.195357212 23.80314 32.6604245 23.80314 32.6604245 0.108336207"></polygon>
        <polygon id="path-3" points="16.186663 11.1162464 16.186663 0.0609582329 0.195963678 0.0609582329 0.195963678 11.1162464 16.186663 11.1162464"></polygon>
    </defs>
    <g id="redesign" stroke="none" stroke-width="1" fill="none" fill-rule="evenodd">
        <g id="holboxeno-logo">
            <g id="Group-3" transform="translate(19.902285, 0.145974)">
                <mask id="mask-2" fill="white">
                    <use xlink:href="#path-1"></use>
                </mask>
                <g id="Clip-2"></g>
                <path d="M10.1382752,13.1134112 C9.27985552,13.7270621 7.36451436,14.2275448 7.12440747,13.4414716 C6.97227294,12.9435319 6.87477651,12.4064284 7.04320222,11.8797517 C7.10911882,11.857881 7.17754177,11.8288897 7.24947358,11.7892172 C8.2575215,11.2345664 9.60166893,11.0033983 10.5618458,11.9278164 C10.7262614,12.0862517 10.8590972,12.2973293 10.9661177,12.5442647 C10.6781398,12.7365233 10.3999366,12.9262388 10.1382752,13.1134112 M20.4393119,1.62977328 C20.7130037,1.95071293 21.591474,2.66863103 21.1353211,3.84023879 C21.0548677,4.04673879 20.4285346,4.95513534 19.5442997,5.84420431 C19.5525706,4.45312672 19.5375326,3.44300603 19.479135,3.31203621 C19.31497,2.94277759 20.0906807,2.01810517 20.4393119,1.62977328 M1.08263644,20.7956181 C3.1408387,24.970631 8.32945331,24.0039974 10.0816321,22.607325 C11.4736505,21.497769 12.3857058,20.3882129 13.2017684,17.3832819 C13.6504024,15.7320448 13.5037818,13.8999931 13.1300873,12.4382172 C14.0534211,11.7368293 14.9333953,11.0512086 15.7376781,10.4121267 C15.7203844,12.5094241 15.6775261,14.4444716 15.5850423,15.273269 C15.4080951,16.8545707 14.497293,20.2737733 14.0413907,20.4428897 C14.1814948,20.7470448 14.5323817,20.7806138 14.7078251,20.645575 C14.8832686,20.5105362 17.3740642,18.8885448 18.7074344,18.787075 C20.040554,18.6858595 24.2622246,19.8032991 24.9522186,19.7669328 C26.0810718,19.7076784 26.0527503,20.051506 27.4821131,18.9811138 C28.9370405,17.8911397 31.6852368,15.2961569 32.5476666,14.3099414 C32.9777537,13.8178509 32.0388806,13.4824155 32.0388806,13.4824155 C32.0388806,13.4824155 29.4077302,14.9691138 27.8991672,15.273269 C26.3906042,15.5771698 24.1451787,15.7462862 22.5313497,15.5097776 C20.9175206,15.273269 19.3387802,15.7124629 19.3387802,15.7124629 C19.3387802,15.7124629 19.4806388,10.8874328 19.5300136,7.25333793 C19.6796418,7.11677328 19.7996952,7.00335086 19.8829055,6.91841121 C20.6989682,6.08630776 21.9000039,5.33939828 22.496261,3.92009224 C23.090513,2.50663534 23.4509239,0.800975862 23.1629461,0.338639655 C22.8749682,-0.123696552 21.8030087,0.214790517 21.3227949,0.445958621 C21.244096,0.483850862 21.1641439,0.532424138 21.0856957,0.587100862 C20.3473294,0.893290517 16.8557542,2.40414828 16.4620089,2.46721724 C16.0409447,2.53486379 15.7253971,2.77137241 15.7253971,2.94023448 C15.7253971,3.03356638 15.7572276,6.10817845 15.7446959,9.21559655 C15.199568,9.65224741 14.5985489,10.1077172 13.9143195,10.5870922 C13.5431313,10.8469974 13.1644241,11.1007991 12.7864687,11.3500233 C12.5275643,10.6766095 12.2298118,10.1595966 11.9538643,9.89384224 C11.041809,9.01545431 9.26556941,9.33893707 8.59362101,9.47753621 C8.14448579,9.57035948 7.31062815,10.1166181 6.72013564,10.5105448 C6.71136347,10.5120707 6.7055989,10.5130879 6.7055989,10.5130879 C5.60982926,10.9558422 4.13785874,12.6973595 5.04991403,14.8239026 C5.96196932,16.9507 9.79064658,14.9017216 10.4743748,14.4078509 C10.744307,14.2127948 11.0134874,14.0167216 11.281164,13.8201397 C11.414501,14.9113853 11.3245236,16.1781052 11.1856726,17.0595448 C10.9458164,18.5851526 9.88964681,20.3419284 9.16957678,20.8505491 C8.44950675,21.3591698 5.41759337,21.666631 4.17019047,19.4742216 C2.88093177,17.2083164 3.33883916,13.2006397 3.99549892,12.2169672 C4.0739472,12.0994759 3.95188869,11.6969026 3.79524276,11.6801181 C3.65213103,11.6648595 3.42079632,11.7976095 3.16941092,11.9741009 C0.769344575,13.6578897 -0.920927713,16.7317388 1.08263644,20.7956181" id="Fill-1" fill="#FEFEFE" mask="url(#mask-2)"></path>
            </g>
            <path d="M7.61274741,39.9359556 C7.78493262,39.6872401 8.67067139,38.8780246 9.46568084,38.954572 C10.227356,39.0278134 12.1073579,40.2795289 14.4663203,40.9226797 C13.5953689,41.4328263 12.7179011,41.8697315 11.8960738,42.1965203 C11.6364175,42.2051668 11.3562093,42.2031323 11.0404111,42.1962659 C9.91030466,42.1715978 8.96792272,41.8738004 8.29221481,41.4526625 C7.67690958,41.0691625 7.2423111,40.4712789 7.61274741,39.9359556 M19.2002858,28.1974987 C18.5057804,29.3917401 16.954359,29.8105892 16.1931851,30.2139254 C16.0548354,30.2871668 15.7921715,30.4183909 15.4558214,30.5844556 C15.58189,29.1829513 15.7523208,27.3058866 15.9450579,25.2050289 C16.851098,25.1193263 17.835837,25.1768004 18.4010156,25.5577573 C19.2747239,26.1469944 19.7331326,27.2809642 19.2002858,28.1974987 M41.0369796,54.1076539 C36.9962664,56.8186022 31.7705581,57.3007746 28.869726,56.3814427 C25.2829101,55.2444211 23.2134293,52.3450289 21.3068603,51.5370849 C20.8700061,51.351947 20.3113441,51.2212315 19.6667147,51.1861366 C19.0293537,49.7546237 18.627087,48.4304297 18.7331049,46.8285289 C20.1935463,46.9394082 22.0795634,47.2194039 23.452283,46.7786841 C25.3057177,46.1838522 26.7596426,43.6865246 26.8007465,43.5675073 C26.842101,43.4484901 26.5949764,43.1311108 26.3064972,43.250128 C26.0182687,43.3691453 25.1112261,44.2116754 24.0823756,44.5534685 C23.0735758,44.8883953 21.2193892,44.4614082 19.1291059,44.4870935 C19.4155799,43.3025159 19.7767428,42.3285073 20.1291335,41.6255935 C21.6289243,41.7377444 22.9527705,41.7875892 23.3625562,41.6927315 C24.3560674,41.4630892 26.9097721,39.157003 26.9416025,38.6542315 C26.9516279,38.4993565 26.8892201,38.3663522 26.7413464,38.3536366 C26.5330699,38.3358349 26.3864493,38.4202659 26.2242895,38.4772315 C26.1044866,38.5191927 22.9470059,39.2945849 19.1371261,39.0568047 C20.2130957,38.2534384 21.1925714,37.4587185 21.9031174,36.7761496 C24.2452874,34.525503 24.4518094,31.9562056 23.4580476,30.2335073 C22.7572763,29.0184125 21.2569842,29.2053306 20.2140983,29.6241797 C21.7793044,28.8676065 22.3484931,27.3379297 22.3978679,26.7677659 C22.4740605,25.8878522 22.283579,24.5313608 20.8752694,23.4680892 C19.5820006,22.4920461 17.4872058,22.8758004 16.1217546,23.2854944 C16.3726387,20.5674254 16.647333,17.6245461 16.9062374,14.9247875 C19.6170893,13.8119254 21.339192,11.1709125 21.3025995,11.0307875 C21.258488,10.8603996 21.0003355,10.4117961 20.5995726,10.7487573 C19.7699757,11.4468392 18.7436315,12.1001625 17.130805,12.6006453 C17.5190363,8.62526595 17.8365889,5.60558491 17.92406,5.39527026 C18.1889796,4.75695129 17.9681715,4.79967543 17.7473634,4.79967543 C17.5263047,4.79967543 14.3896265,5.35280043 13.771063,5.52293405 C13.771063,5.52293405 13.5384751,5.82480043 13.4307027,6.34384784 C13.2712998,7.29547716 13.2399706,9.98557198 13.2763125,13.3198349 C11.8790308,13.4124039 10.3694652,13.2972013 8.35036178,12.8389341 C7.95135326,8.96502457 7.56612958,5.68289526 7.58643089,5.4873306 C7.63204619,5.04940819 7.17739703,5.13714526 7.17739703,5.13714526 C6.94405725,5.01227888 5.65855805,5.49089095 4.58659859,6.27518405 C3.77955874,6.86569267 3.13919016,7.7316194 2.90484785,8.07010647 L2.76850322,8.28906767 C2.76850322,8.28906767 3.05171907,8.87805043 3.26851705,9.42710647 C3.71589783,10.5610763 4.10212405,11.9361323 4.43145646,13.3867185 C2.68028023,14.3782746 0.566437339,16.2634772 0.364677376,16.5358435 C0.364677376,16.5358435 0.320565881,17.3867659 0.762182099,17.4719599 C1.26495289,16.8364384 3.22390428,15.9099858 4.84600426,15.3980591 C5.51544633,18.9711194 5.86533068,22.5477401 5.95029544,23.8297185 C6.04403237,25.2447013 5.81395082,28.4261237 5.6776062,28.8203047 C5.54101094,29.2142315 5.85781168,29.2991711 6.03551083,29.2419513 C6.3016836,29.156503 8.67192456,26.5551625 8.83734266,26.3555289 C9.01027978,26.1472487 9.08221159,25.8703047 9.15389277,25.2129125 C9.32783241,23.6222013 8.98596833,19.2979082 8.57743573,15.1012789 C9.95065665,15.236572 11.4564627,15.4794384 13.3068898,15.4720634 C13.3567658,18.3450073 13.4422319,21.4898091 13.5314574,24.3302013 C12.0374311,25.0132789 10.4073109,25.8326668 10.0265986,26.1078306 C10.0265986,26.1078306 9.87421343,26.2911884 9.79802085,26.5111668 C9.7220789,26.7308909 9.91230972,26.877628 10.1406368,26.8043866 C10.2947764,26.7547961 12.166758,26.1686108 13.5773233,25.749253 C13.6525134,28.0319427 13.7264502,30.030822 13.7805871,31.4046065 C12.3727787,32.0920073 10.8917854,32.8175547 10.8484258,32.8803694 C10.7722332,32.9902315 10.8642157,33.3411797 10.902312,33.4512961 C10.9404083,33.5611582 11.1935481,33.5522573 11.7644912,33.2954039 C12.0143728,33.183253 12.8459748,32.8671453 13.8259517,32.5357789 C13.8449999,32.9866711 13.8575316,33.2653953 13.8617923,33.3315159 C13.9059038,34.0123047 14.2186944,34.1712487 14.6161992,34.2137185 C15.0139545,34.2564427 15.1848866,33.7343435 15.228998,33.1384944 C15.2337601,33.072628 15.267345,32.6893823 15.3234869,32.0599642 C16.13579,31.8206582 16.9079918,31.6299254 17.422793,31.582878 C18.5544033,31.4791194 19.470218,31.5821151 20.0093307,32.5688392 C20.5481927,33.5550547 20.9477025,34.5438134 20.1709893,35.8903866 C19.6170893,36.8509168 18.6165604,37.8974039 17.4150234,38.8795504 C15.6643484,38.6247315 13.854524,38.1204341 12.1933252,37.2138177 C11.8527142,37.0279168 11.1599633,36.907628 10.3253537,36.9841754 C9.49049355,37.0607228 6.62449954,39.0735892 6.07235395,40.2380763 C5.67284416,41.0803522 5.92222449,42.6756409 6.71723393,43.3264211 C7.51224338,43.9772013 8.44033921,44.1582703 9.00251014,44.1592875 C9.63310401,44.1600504 10.209561,44.0644297 10.7296256,43.9082832 C11.0018135,43.8602185 11.3038269,43.8024901 11.6431846,43.733572 C12.1752795,43.6252358 14.0109193,42.5673047 16.0585949,41.2143737 C16.4959504,41.2723565 17.0032326,41.3321194 17.5435984,41.3901022 C17.1618836,42.0907272 16.6099886,43.3510892 16.241808,45.0015634 C14.5395053,45.7159211 13.2958619,47.0899599 12.9489851,48.1949384 C12.9489851,48.1949384 13.4803282,48.8340203 13.7688073,48.3182789 C13.9768331,47.9457142 14.763321,47.4406539 15.9162351,47.1059815 C15.791169,48.5359685 15.8450552,50.1447358 16.2202535,51.8643823 C16.1628584,51.8895591 16.1062153,51.9121927 16.0485696,51.9388953 C13.7730681,52.992503 12.2985912,54.501072 11.7083493,55.2881625 L11.61762,55.7690634 C11.61762,55.7690634 11.7083493,55.9877703 12.1168819,55.6818349 C12.5256652,55.3756453 14.5570496,54.4875935 16.0668658,54.0201711 C17.3380789,53.626753 19.2448985,53.6704944 20.2890377,54.1076539 C21.2918223,54.5275203 24.1026769,57.2557616 28.0070455,58.4362703 C31.9114141,59.6170332 37.4501637,58.523753 41.3094182,54.8947444 C41.447016,54.7650461 41.9447741,53.7139815 41.0369796,54.1076539" id="Fill-4" fill="#FEFEFE"></path>
            <path d="M37.7991458,37.0801013 C37.5720718,37.1238427 34.1283676,39.1359461 33.7318654,39.5423341 C33.5035383,39.7762996 33.1576641,39.7005151 33.0659322,39.4586659 C32.7561492,38.6410582 31.8669016,37.6291573 31.5032324,37.5902478 C31.0235199,37.5388772 30.2172319,38.0421573 29.3548021,38.6980237 C28.4921216,39.3538901 26.5399373,41.2340065 26.4035927,41.5399418 C26.4035927,41.5399418 26.8577406,41.6274246 27.2209085,41.408972 C27.5840764,41.1902651 28.219683,40.7965927 28.7191955,40.5781401 C29.2184574,40.3594332 29.9776263,40.2569461 30.4443059,40.6656228 C30.9438184,41.1027823 31.0658769,41.825278 31.4430803,42.1523211 C31.8972282,42.5457392 32.5413563,42.3875582 33.0774614,42.0648384 C33.8040479,41.6274246 37.2557723,38.3686918 37.8081686,37.9793427 C38.1039161,37.7710625 38.3908914,37.544472 38.4816208,37.3695065 C38.5726007,37.1947953 38.0262197,37.0363599 37.7991458,37.0801013" id="Fill-6" fill="#FEFEFE"></path>
            <path d="M40.9942717,41.374106 C41.1915202,40.7205284 41.3624523,39.8963086 41.3624523,39.8963086 C41.3624523,39.8963086 41.0464035,39.5723172 40.8997829,39.7266836 C40.7531623,39.88105 39.8087753,40.5903216 39.2954779,40.9201621 C38.7821805,41.2497483 37.9756419,41.8880672 37.332767,42.2057009 C36.899171,42.4198302 36.125716,42.9391319 36.2908835,42.7895974 C36.456051,42.6400629 36.0194474,42.9292138 35.9966398,43.1540241 C35.9708245,43.4073172 35.5181805,45.5445414 35.3081496,47.4032957 C34.2665168,46.6421448 31.1303399,43.6870586 30.2285606,42.783494 C29.9262966,42.458994 29.2185076,42.2969983 28.8716308,42.5205371 C28.3152245,42.8463086 27.4344984,45.8598862 26.4758252,46.4943905 C26.1963689,46.6792741 26.1838372,46.8560198 26.3886048,47.2250241 C26.714679,47.8129897 29.6260376,54.1292957 29.9230383,54.6366448 C30.0508614,54.8550974 30.1435958,55.1556922 30.4631535,55.017856 C30.7824606,54.8797655 32.9356529,54.0947095 33.1221242,53.9469552 C33.2750107,53.9202526 33.3106006,53.7791103 33.2040814,53.5626922 C32.8589591,52.1057483 29.6460883,47.2059509 30.69123,47.573175 C30.8952456,47.6446362 36.0841109,52.636494 36.4585573,52.9607397 C36.6046767,53.0873862 36.7635783,53.1621534 37.0192245,53.1374853 C37.1274981,53.1270586 38.6954613,52.6568388 39.1608877,52.3071621 C39.2521183,52.2387526 39.3433489,52.126856 39.3235488,51.9714724 C39.2761791,51.5953474 38.9077478,51.5167655 38.7977197,51.2408388 C38.5195166,50.5425026 38.6613751,48.6659466 39.0200316,47.0701491 C39.417787,45.3009121 40.7970231,42.0276836 40.9942717,41.374106" id="Fill-8" fill="#FEFEFE"></path>
            <path d="M46.1233107,41.1595444 C45.8634038,40.8019841 45.7478617,40.308622 46.0799511,39.9886996 C46.6007675,39.4869453 47.8571932,39.1553246 48.7253877,39.5314496 C49.1707634,39.7244711 49.798099,40.1499323 50.3394674,40.7597685 C50.319166,40.7671435 50.302123,40.7747728 50.2913457,40.7831651 C50.0740465,40.9505013 48.684785,41.3268806 48.0769988,41.4522556 C47.4692126,41.5776306 46.4270785,41.5776306 46.1233107,41.1595444 M32.5823349,26.3927599 C32.0011158,26.4380272 31.6740391,25.8935487 31.7798064,25.5649797 C31.9276802,25.1056953 32.4189219,24.3033461 32.866052,24.1802599 C33.3134328,24.0571737 33.696902,24.0879453 33.9525482,24.241803 C34.2079437,24.3956608 34.8152287,24.5802901 34.9748822,25.5649797 C34.9856595,25.6321177 34.9981911,25.7017987 35.0114747,25.7735142 C34.2565666,26.1155616 33.3181948,26.3352858 32.5823349,26.3927599 M52.1147044,48.3097341 C53.1565878,46.8881392 54.2287979,44.729553 54.0250329,42.4140573 C53.9480884,41.5399927 53.7967058,40.7315401 53.5884293,40.0260832 C54.7804423,38.9017772 56.0666933,37.6459927 56.4852513,37.1422039 C57.4594637,35.9695789 58.0612347,34.8501047 58.3116176,33.9760401 C58.6364386,32.8425789 58.8086238,31.9713116 58.6364386,30.6926392 C58.4948306,29.6420832 58.5311725,29.1850875 58.2304123,29.1291392 C57.9299027,29.0731909 56.5306159,31.1132685 56.5306159,31.1132685 C56.5306159,31.1132685 56.0273439,31.6521522 55.3664234,32.1727254 C54.8493665,32.2083289 54.2160156,32.1508547 53.9037263,32.0402297 C53.2716286,31.8156737 49.1228924,28.5861866 47.9574466,27.3543073 C49.5424528,24.2283246 50.9700612,20.952553 51.3720774,19.6977858 C51.619202,18.9259539 52.8270048,17.8207211 52.8270048,17.6218504 C52.8270048,17.4232341 52.6653462,16.9471651 52.2966643,16.9914151 C52.0505422,17.0209151 47.5922736,20.6125401 47.3860023,20.8444711 C47.1794803,21.0761478 47.0762193,21.3080789 46.9042847,21.8383159 C46.8158111,22.1106823 46.2834655,23.1408935 45.5563777,24.4981478 C44.3057166,22.9537211 43.2939092,21.6440228 42.9655793,21.3068073 C42.8959032,21.2350918 42.7121888,21.1379453 42.4971453,21.1348935 C42.3422538,21.1328591 42.1708205,21.1801608 42.0023948,21.207372 C41.5938622,21.2732384 40.1201372,21.5962125 39.5010725,21.8942642 L38.7985468,22.2823418 C38.7221036,22.3736392 38.6506731,22.4300961 38.6231034,22.5297858 C38.4336245,22.7383203 37.8819801,23.3222168 37.2721888,23.9297642 C36.8531296,23.1375875 36.1613812,22.117803 35.1666169,22.0877944 C34.1440322,22.0570228 33.0961336,22.5264797 32.77031,22.7647685 C32.1186629,23.2408375 30.6296493,24.7649194 30.3419221,25.1649496 C30.0544455,25.5649797 29.4474111,26.6419841 29.8947919,27.4420444 C30.3419221,28.2421047 31.4492209,28.3522211 32.3096456,28.1787815 C33.1673135,28.0058504 34.2981718,27.4611177 35.2189993,26.8919711 C35.3560958,27.7657815 35.4360479,28.8816953 35.1628574,30.3282125 C34.8901681,31.7726953 34.4129619,32.5145185 33.054779,33.3931608 C32.039964,34.0495358 30.7790269,33.9429797 29.6088191,33.4712341 C28.7371158,33.1197772 28.0075217,32.5928461 27.6629007,31.5776392 C27.3709126,30.7173073 27.3558746,28.5770315 27.7032526,27.7317039 C28.310287,26.2546694 29.2120663,25.4820746 29.3398894,25.3589884 C29.4677125,25.2359022 29.6887712,25.2216608 29.4677125,24.8666435 C29.2759778,24.558928 28.635108,24.8663892 28.635108,24.8663892 C28.2195576,25.1125616 26.8147569,25.7587642 25.7886634,27.6076004 C25.2094494,28.6515444 24.663319,30.6677168 25.2618318,32.7039797 C25.8595927,34.7379539 26.9017267,35.7506177 28.7125537,36.3965659 C30.4379147,37.011997 32.712163,36.7325099 33.8640746,36.0585875 C36.0185201,34.7977168 37.243366,32.8270659 37.7546583,30.5191996 C38.2849988,28.1248677 37.9847399,26.0438461 37.628339,24.8399409 C38.2025404,24.2227297 38.7103238,23.6139108 38.9145901,23.3191651 C39.6805261,24.385997 41.970815,26.8810358 43.423988,28.4203763 C42.0214429,30.9795013 40.66326,33.4389366 40.360996,34.0520789 C39.7073439,35.3772901 38.641149,36.2716996 38.5722248,36.5036306 C38.5035512,36.7355616 38.8130836,36.5366909 39.0193549,36.702247 C39.0193549,36.702247 41.5991255,35.6753418 43.7317659,34.0190185 C44.3398028,33.5467642 45.1583718,32.3789711 46.0360903,30.8943073 C48.0674747,32.6185315 50.8475015,34.7877987 51.195882,34.979803 C51.677349,35.2447944 52.1934033,35.3772901 52.3999253,35.3109151 C52.6061967,35.2447944 56.011554,32.7932427 56.2867496,32.4951909 C56.3479041,32.4288159 56.3860004,32.3507427 56.406803,32.273178 C56.5529223,32.1549237 57.026369,31.6333332 57.3782584,31.904428 C57.6000691,32.0753246 57.5000663,32.8425789 57.1752453,33.8196392 C56.7957862,34.961747 56.4852513,35.5395401 55.714052,36.5168547 C55.3368486,36.9949582 54.3814337,38.0307642 53.2621045,39.1118375 C52.9122202,38.2975358 52.4723584,37.7065185 51.984375,37.4382211 C50.7688025,36.7691306 49.4662603,36.9364668 48.4243768,37.0618418 C47.7138309,37.1472901 46.5574079,37.5216349 45.8195429,38.0236435 C45.2420833,38.4160444 44.1696226,39.3198634 43.8656042,39.9050315 C43.5618364,40.4904539 43.3011776,41.6612987 43.4748666,42.2467211 C43.6485556,42.8321435 44.2129822,43.7102772 45.4721649,43.7102772 C46.7310969,43.7102772 48.7717548,43.3338978 49.9873273,42.5811392 C50.0151476,42.5641004 50.0432186,42.5462987 50.0712895,42.5287513 C50.5098981,42.4204151 50.9798359,42.2640142 51.2023985,42.1551694 C51.3001455,42.4097341 51.3763381,42.6775228 51.4171914,42.9603159 C51.7234655,45.0738892 51.4635586,46.3027168 50.7254429,47.4316004 C49.9016106,48.6917082 49.0088541,49.1464151 48.0389025,49.3539323 C46.7305957,49.633928 45.3217848,49.1652341 44.5360488,48.3160918 C43.6841455,47.3947254 43.0375111,46.4606435 43.0014199,44.6613978 C42.990392,44.1070013 43.1440304,43.8786306 43.1811241,43.5025056 C43.2169647,43.1390961 42.9505413,42.8730875 42.6242165,43.0180444 C42.3908767,43.121803 41.7800829,43.8310746 41.5286975,44.4884668 C41.414158,44.7872815 41.1738005,45.7590013 41.1738005,46.0100056 C41.1738005,46.2607556 41.0003621,49.1041996 42.5633126,50.7767987 C44.126263,52.4493978 46.9839861,52.2640056 48.2506878,51.7803073 C49.4399437,51.3261091 51.072821,49.7313289 52.1147044,48.3097341" id="Fill-10" fill="#FEFEFE"></path>
            <path d="M50.3388408,52.9718276 C50.1192858,52.8372974 49.8277991,52.8395862 49.656867,52.9250345 C49.485935,53.0107371 48.8435613,53.6131983 48.6290191,53.8715776 C48.4144768,54.1302112 48.2588334,54.3908793 48.2104611,54.7558147 C48.1623395,55.12075 48.1515623,55.5996164 48.4059553,55.9037716 C48.6332798,56.1758836 48.9154932,56.2956638 49.2142483,56.2539569 C49.5127528,56.21225 50.6551402,55.2110302 50.7812089,55.0162284 C50.9333434,54.7812457 50.9275789,54.6187414 50.9285814,54.4023233 C50.9298346,54.1861595 50.5583957,53.1063578 50.3388408,52.9718276" id="Fill-12" fill="#FEFEFE"></path>
            <g id="Group-16" transform="translate(51.482105, 44.141664)">
                <mask id="mask-4" fill="white">
                    <use xlink:href="#path-3"></use>
                </mask>
                <g id="Clip-15"></g>
                <path d="M7.35699535,7.97784267 C7.25949892,8.26979095 7.10962009,8.42135991 6.98355144,8.49994181 C6.97828814,8.49943319 6.9727742,8.49816164 6.96801217,8.49892457 C6.83893592,8.52003233 5.85018678,8.66753233 5.6183508,7.81660991 C5.5143379,7.43565302 5.45518839,6.95907543 5.42486174,6.50385991 C5.55619369,6.51784698 5.70882949,6.49165302 5.86296909,6.44791164 C6.62564681,6.23123922 7.30987625,5.51204957 7.50336531,5.28647629 C7.55675025,5.45101509 7.5923402,5.60182112 7.60437061,5.71295474 C7.66602645,6.2798125 7.55324138,7.39038578 7.35699535,7.97784267 M5.82888293,4.22396767 C6.02863783,4.15123491 6.38102852,4.05815733 6.7101103,4.13953664 C6.93743488,4.19548491 7.15097462,4.48616164 7.31313449,4.81549353 C7.29183064,4.84016164 7.2735344,4.86152371 7.25874702,4.87907112 C7.00109579,5.18398922 6.42138051,5.53264871 5.86296909,5.51103233 C5.5712317,5.49958836 5.4619555,5.25595905 5.43263138,4.99808836 C5.49754545,4.55940302 5.68025727,4.38367457 5.82888293,4.22396767 M16.0469599,5.95709267 C15.5416828,5.70430819 15.3441836,4.86711853 15.2206212,4.17514009 C15.0740007,3.35473491 15.0424208,1.5056444 15.0845273,1.21598491 C15.169492,0.633105603 14.9970562,0.352092672 14.8391571,0.190351293 C14.6815086,0.0286099138 14.482255,0.0433599138 14.323604,0.101088362 C14.1647023,0.1585625 13.8022863,0.306571121 13.4581665,0.693885776 C13.1837228,1.00261853 13.0035174,1.17580388 12.8741905,1.37925216 C12.8263195,1.2721875 12.7714307,1.18394181 12.7130331,1.12392457 C12.555134,0.9624375 12.3248018,0.917424569 12.1659002,0.974898707 C12.0069986,1.03262716 11.6761624,1.21267888 11.3320426,1.59973922 C11.0984522,1.86244181 10.9839127,1.98603664 10.8796491,2.13836853 C10.8320288,2.04274784 10.7806489,1.96035129 10.7312741,1.90974353 C10.5736256,1.74825647 10.3430428,1.70298922 10.1843918,1.76071767 C10.0254902,1.81844612 9.49113956,2.02062284 9.22997946,2.37029957 C8.99438397,2.6856444 8.95854338,2.80033836 8.85778872,2.98039009 C8.81066962,2.96640302 8.76756066,2.98293319 8.74074287,3.04854526 C8.70364912,3.13882543 8.54299305,3.3519375 8.34023055,3.60294181 C8.13446045,3.28937716 7.91991818,3.06151509 7.78958876,2.99005388 C7.51188685,2.83797629 7.10560996,2.86417026 6.86149293,2.88756681 C6.58679862,2.87968319 6.33616513,2.91147198 6.22187625,2.98191595 C5.66171039,3.32777802 4.82033375,4.12987284 4.38723907,4.8686444 C4.14036508,5.28927371 3.909281,5.9774375 3.96792923,7.1327694 C3.99524829,7.66656681 4.06116489,8.10576078 4.17394997,8.47908836 C4.1651778,8.55360129 4.13109164,8.69652371 4.00226602,8.8979375 C3.73935149,9.3083944 3.56992325,9.46225216 3.20424898,9.61305819 C2.83832407,9.76360991 2.10923124,9.5642306 1.81248118,8.73441595 C1.51598176,7.9048556 1.44204488,6.87159267 1.54505524,6.37950216 C1.67688846,5.74830388 1.96035494,5.55350216 2.17188961,5.55477371 C2.55836646,5.55655388 2.52778917,6.26048491 2.94233697,6.08145043 C4.03986105,5.60767026 3.90451896,4.55838578 3.87369104,4.47370043 C3.81003013,4.29898922 3.44485713,3.89082112 3.14635264,3.88166595 C2.86915199,3.87327371 2.57340447,4.02509698 2.45811306,4.09604957 C1.8979472,4.44191164 1.07912757,5.0260625 0.623475881,5.98277802 C0.413445013,6.42349784 0.145517807,7.09157112 0.204166045,8.24664871 C0.263064916,9.4019806 0.500916103,10.116847 1.00844893,10.6697177 C1.35031302,11.0417737 1.72902023,11.1793556 2.25209233,11.0898384 C2.74634158,11.005153 3.22054015,10.6590366 3.37192278,10.4637263 C3.37192278,10.4637263 3.78220982,9.96451509 3.99850652,9.66061422 C4.12131693,9.4879375 4.30628445,9.27380819 4.43987211,9.10469181 C4.53461157,9.26795905 4.6448903,9.41698491 4.77221212,9.55558405 C5.11407621,9.92764009 5.49278342,10.0654763 6.01560489,9.97570474 C6.50609464,9.89178233 7.06124783,9.3798556 7.21789376,9.18098491 C7.44421581,8.97372198 7.76001401,8.66270043 8.06428307,8.28657543 C8.5269525,7.71437716 8.84676084,6.37289009 8.89488247,5.32716595 C8.91518379,4.88135991 8.7753303,4.42360129 8.58359567,4.03069181 C8.74099351,3.84885991 8.87834066,3.68991595 8.97132569,3.58208836 L8.97884469,3.62684698 C8.97884469,3.62684698 9.28336439,3.26267457 9.34126073,3.17519181 C9.3994077,3.08770905 9.4996611,3.21995043 9.51344594,3.35168319 C9.52723078,3.48316164 9.48738006,5.70608836 9.47008634,6.33499784 C9.452542,6.96365302 9.47710408,7.81203233 9.57560305,8.30997198 C9.65229689,8.69804957 9.87586197,8.80867457 9.93300641,8.88191595 C9.99040148,8.95541164 10.1347664,8.92692888 10.178126,8.8979375 C10.2214856,8.86894612 11.1984549,7.92901509 11.235298,7.87942457 C11.3222679,7.76295043 11.3658781,7.70471336 11.2801614,7.5287306 C11.1946954,7.35274784 10.8676187,6.44435129 10.827768,5.74220043 C10.7879173,5.04004957 11.0423103,3.12534698 11.0583508,2.83289009 C11.0601052,2.79957543 11.0586014,2.76346336 11.0555938,2.72633405 C11.1500827,2.6118944 11.2861766,2.44506681 11.3230198,2.38937284 C11.3811667,2.30189009 11.4864328,2.43362284 11.495205,2.56586422 C11.5172607,2.90638578 11.4942024,4.99961422 11.4766581,5.6282694 C11.4591138,6.25717888 11.497962,6.85073922 11.7277929,7.44913147 C11.8694008,7.81813578 12.1751737,8.01649784 12.2323181,8.08973922 C12.2897132,8.16323491 12.4340781,8.13475216 12.4774376,8.10576078 C12.5207972,8.07651509 13.2794648,7.33977802 13.316308,7.29044181 C13.4035284,7.17396767 13.4446323,7.14701078 13.3589156,6.97128233 C13.2734496,6.79529957 13.1340974,5.81086422 13.0942467,5.10871336 C13.0546466,4.4065625 13.0679302,2.33851078 13.0398592,2.04707112 C13.0383554,2.03104957 13.0358491,2.01553664 13.033844,1.9997694 C13.124824,1.85989871 13.371698,1.4886056 13.4493943,1.45579957 C13.5676933,1.40544612 13.6551644,1.47665302 13.6453897,1.59745043 C13.61782,1.93771767 13.7208304,2.98674784 13.7837394,4.09833836 C13.8193294,4.7262306 13.9381297,6.11298491 14.1123199,6.84997629 C14.2035505,7.23500216 14.3699712,7.35122198 14.4789967,7.44913147 C14.5481716,7.51118319 14.7932911,7.54780388 14.958208,7.4376875 C15.0015676,7.40869612 16.0903195,6.38179095 16.1271626,6.33245474 C16.2141324,6.21572629 16.2203983,6.0438125 16.0469599,5.95709267" id="Fill-14" fill="#FEFEFE" mask="url(#mask-4)"></path>
            </g>
        </g>
    </g>
</svg>