<?xml version="1.0" encoding="utf-8"?>
<!-- Generator: Adobe Illustrator 20.0.0, SVG Export Plug-In . SVG Version: 6.00 Build 0)  -->
<svg version="1.1" xmlns="http://www.w3.org/2000/svg" xmlns:xlink="http://www.w3.org/1999/xlink" x="0px" y="0px"
	 viewBox="0 0 44.9 44.8" style="enable-background:new 0 0 44.9 44.8;" xml:space="preserve">
<style type="text/css">
	.st0{fill:#CE1126;}
	.st1{fill:#FFFFFF;}
	.st2{fill:#006847;}
	.st3{fill:#FCCA3E;stroke:#AA8C30;stroke-width:3.119686e-02;}
	.st4{fill:#9CA168;}
	.st5{fill:#717732;}
	.st6{fill:#016848;}
	.st7{fill:#CD202A;}
	.st8{fill:#1DC6D8;}
	.st9{fill:#F9AA51;stroke:#953220;stroke-width:7.279267e-02;stroke-linecap:round;stroke-linejoin:round;}
	.st10{fill:#953220;}
	.st11{fill:#8CBEBF;stroke:#04534E;stroke-width:7.279267e-02;}
	.st12{fill:#04534E;}
	.st13{fill:#0C8489;}
	.st14{fill:#0C8489;stroke:#04534E;stroke-width:7.279267e-02;}
	.st15{fill:#AA8C30;}
	.st16{fill:#E92736;}
	.st17{fill:#349B73;}
	.st18{fill:#78732E;}
	.st19{fill:#A8AC71;}
	.st20{fill:#816C2A;}
	.st21{fill:#AF7029;}
	.st22{fill:#6F5B24;}
	.st23{fill:#404118;}
	.st24{fill:#F8C83C;stroke:#977C2E;stroke-width:3.639634e-02;}
	.st25{fill:#202220;}
	.st26{fill:#4B4139;}
	.st27{fill:#F8C83C;stroke:#977C2E;stroke-width:3.639634e-02;stroke-linecap:round;stroke-linejoin:round;}
	.st28{fill:#904720;}
	.st29{fill:#AB6D29;}
	.st30{fill:#D2A567;}
	.st31{fill:#202020;}
	.st32{fill:#4D2A15;}
	.st33{fill:#5C3A1D;}
	.st34{fill:#B27129;}
	.st35{fill:#1E2121;}
	.st36{fill:#F16E16;}
	.st37{fill:#D5D3CA;}
	.st38{fill:#6C4119;}
	.st39{fill:#BF802D;}
	.st40{fill:#F9C83A;stroke:#8F4620;stroke-width:4.991497e-02;}
	.st41{fill:#FDEAAF;}
	.st42{fill:#513625;}
	.st43{fill:#8B5122;}
	.st44{fill:#8F4620;}
	.st45{fill:#FCCA3D;}
	.st46{fill:#977C2E;}
</style>
<g id="Layer_3">
	<g>
		<rect x="37.2" y="0" class="st0" width="7.7" height="44.9"/>
		<path class="st1" d="M8.1,44.9h29.1V0H8.1V44.9z M17,14.9l0.2-0.1c0,0,0.1,0.6-0.1,0.7c0,0,0-0.1,0-0.3C17.1,15,17,14.9,17,14.9z
			 M14.3,22.1C14.2,22.1,14.2,22.1,14.3,22.1c-0.1,0,0-0.1,0-0.1l-0.2-0.4l0,0c0,0,0,0,0,0l0,0l-0.1,0l0,0c0,0,0,0,0,0c0,0,0,0,0,0
			l0,0l0-0.1c0,0,0,0,0,0l0,0l0-0.1l0,0c0,0,0,0,0,0c0,0,0,0,0,0l0,0l0.1,0c0,0,0.1,0,0,0c0,0,0,0,0,0c0.1,0,0.1,0,0.2,0
			c0.1,0.1,0,0.1,0,0.2c0,0,0,0,0,0c0.1-0.1,0,0,0,0l0,0c0,0,0,0,0,0c0,0,0,0,0,0l0,0l0.2,0.3c0,0,0.1,0,0.1,0c0,0,0,0.1,0,0.1
			c0,0,0,0,0.1,0c0,0,0,0,0,0c0,0,0.1-0.1,0.1-0.1c0,0-0.1,0-0.1,0c0,0,0.3-0.1,0.3-0.1c0,0,0,0,0,0.1c0,0,0.1,0,0.1,0.1
			c0,0,0,0.2,0,0.2c0,0,0,0,0,0.1c0,0-0.2,0-0.2,0c0,0,0,0-0.1,0c0,0,0,0,0,0c0,0,0,0,0,0c0.2,0,0.4,0.2,0.5,0.4
			c0.1,0.1,0.1,0.3,0.1,0.4c0,0,0,0,0,0l0,0l0,0c0.1,0,0.3,0,0.5,0.1c0,0,0-0.1,0-0.1c0,0,0-0.2,0-0.2s0.1,0.1,0.1,0.2
			c0,0.1,0,0.1,0,0.1c0.1,0.1,0.3,0.2,0.4,0.3c0.2,0.1,0.3,0.3,0.4,0.4c0,0,0,0,0.1,0c0,0,0.1-0.1,0.1-0.1h0c0,0,0,0.2-0.1,0.2
			c0,0,0,0,0,0c0.1,0.2,0.1,0.3,0.1,0.4l0,0l0,0c0,0.1,0,0.2,0,0.2c0.1-0.1,0.3-0.2,0.5-0.3c0,0,0,0-0.1-0.1c0,0,0-0.2,0-0.2
			s0.2,0.1,0.2,0.2c0,0,0,0,0,0.1c0.1,0,0.1,0,0.2,0c0.1,0,0.2,0,0.3,0c0-0.1,0.1-0.3,0.2-0.4c0,0,0,0,0,0C18,24.1,18,24,18,24
			s0-0.1,0-0.1c0,0,0.1-0.1,0.1-0.1c0,0,0,0,0-0.1c0,0,0.3,0,0.3,0c0,0,0,0,0,0.1c0,0,0.1,0.1,0.1,0.1c0,0,0.1-0.1,0.1-0.1
			c0,0,0,0,0-0.1c0,0,0,0,0.1,0l0.1-0.2l0,0c0,0,0,0,0,0l0,0l0-0.1l0,0c0,0,0,0,0,0c0,0,0,0,0,0l0,0l0,0c0,0,0,0,0,0l0,0l0.1,0l0,0
			c0,0,0,0,0,0c0,0,0,0,0,0l0,0l0,0c0,0,0,0,0,0c0.1,0,0.1,0.1,0.1,0.1c0,0.1-0.1,0.1-0.1,0.1c0,0,0,0,0,0c0.1,0,0,0,0,0l0,0
			c0,0,0,0,0,0c0,0,0,0,0,0l0,0l0,0.1c0.1,0,0.1,0.1,0.1,0.1c0,0,0,0-0.1,0.1c0,0,0,0,0,0.1c0,0,0,0,0,0c0,0,0,0,0,0
			c0,0,0.1,0,0.1,0c0,0,0,0,0-0.1c0,0,0.2,0.2,0.2,0.2c0,0-0.1,0-0.1,0c0,0,0,0,0,0.1c0,0-0.1,0.1-0.1,0.2v0c0,0,0,0-0.1,0
			c0,0,0,0-0.1-0.1c0.1,0.1,0.1,0.3,0,0.4c0,0.1,0,0.1,0,0.2l0,0l0.1,0.1C18.9,25,19,25,19,25.1l0,0l0,0c0.1,0.1,0.2,0.2,0.2,0.3
			c0,0,0,0,0,0c0.1-0.1,0.1-0.2,0.2-0.3c0,0,0,0,0,0c0,0-0.1,0-0.1-0.1c0-0.1-0.1-0.2-0.1-0.2s0.2,0.1,0.2,0.1c0,0,0.1,0.1,0.1,0.1
			c0.1,0,0.1-0.1,0.2-0.1c0.1-0.1,0.2-0.1,0.3-0.1c0,0,0,0-0.1-0.1c0,0-0.1-0.2-0.1-0.2s0.2,0.1,0.2,0.2c0-0.1-0.1-0.2-0.1-0.2
			s0.2,0.1,0.2,0.2c0,0,0,0.1,0,0.1c0.1,0,0.2,0,0.4,0.1c0.1,0,0.3,0.1,0.4,0.1c0,0,0,0,0,0c0,0,0,0,0-0.1c0,0,0-0.1,0-0.1
			s0.1,0,0.1,0.2c0,0.1,0,0.1,0,0.1c0,0,0.1,0,0.1,0c0,0,0,0,0,0c0,0,0-0.1,0-0.1c0-0.1,0-0.2,0-0.2s0.1,0.1,0.1,0.2
			c0,0.1,0,0.1,0,0.1c0.1,0.1,0.2,0.1,0.3,0.2c0.1,0.1,0.2,0.1,0.2,0.1c0,0,0,0,0,0c0-0.2,0.2-0.2,0.3-0.3c0.1,0,0.2,0,0.2,0
			c0,0,0,0,0,0s0,0,0,0c0-0.1,0.2-0.2,0.3-0.2c0.1,0,0.2,0.1,0.2,0.1v0v0c0,0,0,0,0.1,0c0.1,0,0.2-0.1,0.2,0l0,0v0
			c0,0,0.1-0.1,0.2-0.1c0.1,0,0.2-0.1,0.3-0.2c-0.1-0.1-0.1-0.1-0.2-0.2c0,0,0,0,0,0c0,0,0,0,0,0c0,0,0,0.1,0,0.1c0,0,0,0,0,0
			c0,0,0,0.2-0.1,0.2c-0.1,0-0.2-0.2-0.3-0.4c-0.1-0.2-0.2-0.5-0.2-0.5v0c0,0,0,0,0,0c-0.1,0-0.2-0.1-0.2-0.1v0c0,0-0.3-0.3-0.6-0.7
			c0,0.2,0,0.8-0.2,0.8c-0.1,0-0.3-0.3-0.3-0.3c0,0,0,0,0,0c0,0,0,0,0,0c0,0,0,0,0,0l0,0c0,0,0,0-0.1,0c-0.1,0,0,0-0.5,0.2
			c-0.5,0.1-0.6,0-0.6,0l0,0l0,0h0h0c0,0,0,0,0,0c0,0,0-0.1,0.1-0.2c0,0,0,0,0,0l0,0c0,0,0,0,0,0l0,0h0c0,0-0.2,0-0.5-0.1
			c-0.3-0.1-0.5-0.2-0.5-0.2l0,0c0,0,0.1-0.1,0.2-0.1l0,0c0,0,0,0,0,0c-0.1,0-0.2-0.1-0.2-0.2c-0.1,0.1-0.3,0.3-0.4,0.3c0,0,0,0,0,0
			c-0.1,0-0.2-0.1-0.3-0.2c0,0-0.1,0.1-0.2,0.1c0,0,0,0,0,0c-0.1,0-0.1,0.1-0.2,0.1c-0.1,0.1-0.2,0.1-0.3,0.1l0,0c0,0-0.1,0-0.1,0
			l0,0l0,0c0,0-0.1,0-0.1-0.1c0,0-0.1,0.1-0.3,0.1c0,0,0,0-0.1,0c-0.1,0-0.2,0.1-0.4,0.1c0,0,0,0,0,0c0,0,0,0,0,0c0,0,0,0,0,0
			c-0.1,0-0.3,0-0.5-0.1c0,0,0-0.1-0.1-0.1c0,0,0,0,0,0l0,0l0,0c0,0-0.1-0.1-0.1-0.1c-0.1-0.1-0.1-0.2-0.1-0.4
			c0-0.3-0.1-0.5-0.2-0.7c-0.1-0.2-0.3-0.3-0.5-0.4c-0.1-0.1-0.1-0.1-0.2-0.2c-0.1-0.1-0.2-0.2-0.2-0.4c0-0.1,0-0.1,0-0.2
			c0,0,0-0.1,0-0.1c0-0.2,0.1-0.5,0.2-0.6c0.1-0.2,0.2-0.3,0.2-0.5c0,0,0,0,0,0c0,0,0,0,0-0.1c0-0.1-0.1-0.1-0.1-0.2
			c0,0-0.1-0.1-0.1-0.1c0,0-0.1,0.1-0.2,0.1c-0.1,0-0.1-0.2-0.1-0.2c0,0,0,0.1,0,0.1c0,0-0.2,0.1-0.3,0c0,0,0,0,0-0.1
			c0,0-0.2,0.1-0.3,0c0-0.1,0-0.2,0-0.2c0,0-0.1,0-0.1-0.2c0-0.1,0.2-0.1,0.2-0.1c0,0,0-0.2,0.2-0.2c0.1,0,0.2,0.1,0.2,0.1l0,0
			c0,0,0.1-0.1,0.1-0.1c0.1,0,0.1,0.1,0.1,0.1s0,0,0,0.1c0,0,0.1-0.2,0.2-0.2c0.1,0,0.2,0.1,0.2,0.2c0.1,0,0.2,0.1,0.3,0.2
			c0.2,0.1,0.4,0.3,0.4,0.6c0,0,0,0.1,0,0.1c0,0.1,0,0.1,0,0.2c0,0.1,0,0.2-0.1,0.2c0,0,0,0.1,0,0.1c-0.1,0.2-0.1,0.3-0.1,0.4
			c0,0,0,0,0,0c0,0.1,0,0.1,0,0.1c0.1,0.1,0.2,0.3,0.4,0.4c0,0,0,0,0.1,0l0,0l0,0c0.2,0.1,0.3,0.3,0.4,0.5c0.1,0.2,0.1,0.3,0.1,0.5
			c0,0.1,0.1,0.2,0.2,0.3c0.1,0.1,0.2,0.1,0.2,0.1c0.1,0,0.1,0,0.1,0c0-0.1,0-0.2,0-0.2c0,0,0.1,0,0.1,0c0-0.1,0.1-0.2,0.2-0.3
			c0,0,0.1,0,0.1,0c0-0.1,0.2-0.4,0.3-0.4c0.1,0,0.2,0,0.2,0c0,0,0,0,0,0c0,0,0,0,0,0c0,0,0,0,0,0c0,0,0,0,0,0c0,0,0.1,0,0.1,0
			c0.1,0,0.1,0,0.1,0s-0.1,0-0.1,0.1c0,0,0,0,0,0c0,0,0.1-0.1,0.1-0.2c0,0,0,0,0-0.1c0,0-0.1,0-0.1,0c-0.1,0-0.2,0-0.2,0
			c-0.1,0-0.3,0-0.4,0c-0.1,0-0.2,0-0.2,0h0l0,0c0,0,0,0,0,0c-0.1,0-0.4,0-0.7-0.2c-0.3-0.2-0.6-0.6-0.6-1.3c0,0,0,0,0-0.1
			c0-0.1,0-0.1,0-0.2c0,0,0-0.1,0-0.1c0-0.2,0.1-0.4,0.2-0.6c0.1-0.2,0.3-0.4,0.5-0.5c0.4-0.3,0.8-0.5,1-1l0,0l0,0c0,0,0,0,0,0
			c0,0,0-0.1,0-0.1c0,0,0,0-0.1,0c0,0,0,0,0,0l0,0l0,0c0,0,0,0,0,0c0,0,0,0,0,0l0,0l0,0c0,0,0,0-0.1,0l-0.1,0l-0.2,0l-0.2-0.2
			l-0.2-0.2l0-0.1l-0.1,0c-0.1,0-0.3,0-0.5,0l0,0l0,0l0,0h0c0,0,0,0,0,0c-0.1,0-0.2,0-0.3,0c0,0,0,0,0,0h0c0,0,0,0,0,0
			c-0.1-0.1-0.2-0.2-0.2-0.4c0,0,0,0,0,0l0,0c0-0.2,0-0.5,0-0.5c0,0-0.2-0.3-0.2-0.5c0-0.2,0.7-0.8,0.8-0.8c0,0,0.1,0,0.1,0
			c0,0,0,0,0,0c0,0,0,0,0,0c0,0,0.1,0,0.1,0c0,0,0,0,0,0s0.2-0.2,0.2-0.2c0.1,0,0.1,0.1,0.1,0.1c0,0-0.3,0.2-0.3,0.3
			c0,0.1,0,0.2-0.1,0.3c-0.1,0.1-0.2,0.2-0.2,0.3s-0.1,0.2,0,0.2c0.1,0,0.3,0,0.5-0.1c0.2-0.1,0.3-0.2,0.3-0.2c0,0-0.1,0.2-0.3,0.3
			c-0.2,0.1-0.3,0.2-0.4,0.2c0,0-0.1,0.1,0,0.2c0,0,0,0,0,0c0,0,0.1,0,0.2,0l0.3,0l0,0c0,0,0,0,0,0c0,0,0,0,0,0l0,0
			c0.1,0,0.2,0,0.2,0c0.1-0.1,0.2-0.2,0.2-0.2c0,0,0,0,0,0c0,0,0,0,0,0l0,0c0,0,0-0.1,0-0.1c0,0,0,0,0.1-0.1c0,0,0,0,0,0l0,0l0,0v0
			l0,0l0,0l0,0l0,0l0,0h0l0,0l0,0c0,0,0,0,0,0c0,0,0,0,0,0c0,0,0,0,0,0c0,0,0,0,0,0c0,0,0.1-0.1,0.1-0.1c0,0,0,0,0,0
			c0,0-0.1,0-0.1-0.1c0-0.1,0.1-0.1,0.4-0.5c0.2-0.2,0.2-0.3,0.3-0.6c0.1-0.2,0.1-0.3,0.1-0.3c0,0,0,0,0,0c0,0,0,0,0,0h0
			c0,0,0,0,0,0l0,0v0l0,0l0,0c0,0,0.1,0,0.1,0.3c0,0.1,0,0.2,0,0.3c0,0,0.2-0.2,0.2-0.5c0-0.3,0-0.4,0-0.4l0,0c0,0,0.2,0,0.2,0.3
			c0,0.2,0,0.3-0.1,0.3l0.2-0.1c0.1-0.1,0.2-0.6,0.2-0.9c0,0,0,0,0,0s0,0,0,0v0v0c0,0,0.1,0,0.1,0.2l0,0c0,0,0,0.2,0.1,0.4
			c0,0,0.2-0.2,0.2-0.3c0.1-0.1,0.1-0.2,0.1-0.2s0,0,0,0c0,0,0,0,0,0v0l0,0c0,0,0,0,0,0l0,0c0,0,0.2,0.2,0.2,0.5c0,0,0.1,0,0.1,0
			c0.1,0,0.1,0,0.1,0s0,0,0,0c0.1,0,0.3,0,0.5,0.1c0.3,0.1,0.4,0.2,0.5,0.2c0.2,0,0.2-0.1,0.2-0.1s0,0.1,0,0.2c0,0,0.3,0.2,0.4,0.4
			c0.1,0.2,0.1,0.3,0.2,0.4c0-0.1,0.1-0.2,0.1-0.3c0-0.2,0-0.4-0.4-0.7c-0.3-0.3-0.7-0.3-1-0.4c-0.2-0.1-0.3-0.1-0.3-0.4
			c0-0.7,0.7-0.6,0.9-0.6c0,0,0-0.1,0-0.1c0,0,0,0,0,0c0-0.1,0.3-0.3,0.9-0.3c2,0.1,3.2,1,3.2,1c0.4,0.3,0.5,0.3,0.6,0.3
			c0.1,0,0.4-0.1,0.4,0c0.1,0-0.1,0.2-0.1,0.3c0,0-0.1,0.1-0.1,0.1c0,0,0,0,0,0c0,0,0,0,0,0c0,0,0.1,0.1,0.2,0.1
			c-0.1-0.1-0.2-0.1-0.2-0.1s1,0.6,1.8,1.7c0.6,0.8,0.8,1.5,1,1.9l0.3,0.4c0.2,0.2,0.4,0.2,0.4,0.3c0,0.1,0,0.1-0.1,0.1
			c-0.1,0-0.1,0-0.2,0c0.1,0.1,0.3,0.7,0.3,1.3c0,0.8-0.1,0.7-0.3,1.4c-0.1,0.7-0.1,2-0.2,2.2c0,0.1-0.1,0.1-0.1,0.2
			c0,0.1,0,0.4-0.1,0.4c-0.1,0-0.1-0.2-0.1-0.3s0.1-0.5,0.1-0.8s-0.1-0.4-0.1-0.9c-0.1-0.4-0.1-1.8-0.1-2c0-0.1-0.2-0.3-0.3-0.4
			c0,0,0,0,0,0c0,0.1,0.1,1.4,0.1,1.9c0,0.5,0.1,2-0.1,2c-0.2,0,0-1.2-0.1-1.4c-0.1-0.3-0.1-0.2-0.2-0.4c-0.1-0.2-0.1-1.1-0.2-1.6
			c-0.1-0.3-0.2-0.4-0.2-0.4c0,0,0,0,0,0c0,0,0,0,0,0c0,0,0,0,0,0c0,0,0,0.2,0.1,0.9c0.1,0.8,0.1,0.8,0.1,1.1c0,0.3,0,1.4,0,1.4
			c-0.2-0.1,0-0.7-0.1-1c-0.1-0.3-0.2-0.3-0.4-1c-0.2-0.7-0.1-0.9-0.2-1.1c-0.1-0.1-0.1-0.2-0.2-0.2c0,0,0,0,0,0c0,0,0,0,0,0
			c0,0,0,0,0,0c0,0.1,0,0.7,0.2,1.1c0.2,0.4,0.2,1,0.2,1.1c0,0.1-0.2-0.3-0.3-0.6c-0.1-0.3-0.2-0.6-0.3-0.9
			c-0.1-0.2-0.2-0.5-0.3-0.6c0,0,0,0,0,0c0,0-0.1-0.1-0.1-0.1c0,0,0,0-0.1,0c0,0,0.1,0.1,0.1,0.1c0.1,0.1,0.1,0.5,0.3,0.8
			c0.1,0.3,0.1,0.6,0.2,0.7c0.1,0.1,0.2,0.2,0.1,0.2c-0.1,0-0.1-0.1-0.2-0.2c0,0,0,0,0,0h0c0,0-0.1-0.1-0.3-0.5
			c-0.2-0.4-0.1-0.5-0.2-0.6c0-0.1-0.5-0.5-0.6-0.5c-0.1,0-0.1,0-0.2,0c0,0,0,0,0,0c0.1,0.2,0.3,0.6,0.3,0.8
			c0.1,0.3,0.3,0.5,0.3,0.5c0,0,0,0.1-0.1,0.1c0,0-0.1,0-0.1-0.1l0,0l0,0l0,0l0,0c0,0-0.1-0.1-0.1-0.2c0,0,0,0,0,0
			c0,0-0.5-0.8-0.7-0.9c-0.1-0.1-0.2-0.1-0.4-0.2c-0.2-0.1-0.3-0.4-0.4-0.4l-0.1,0c0,0.1-0.1,0.3-0.2,0.4c0.1,0.1,0.1,0.2,0.3,0.5
			c0.1,0.2,0.1,0.6,0.1,0.8c0.3,0.3,1.2,0.9,1.9,1.4c0.9,0.7,1.6,1.3,1.6,1.3v0l0,0c0,0,0.2,0.1,0.2,0.2c0.1,0-0.4,0.5-0.9,0.4
			c0,0,0,0-0.1,0c0,0-0.5,0.3-0.8,0.3c0,0-0.1,0-0.1-0.1c0,0.1-0.2,0.2-0.4,0.2c-0.2-0.1-0.4-0.2-0.4-0.2c0,0.1-0.1,0.2-0.3,0.1
			c-0.2,0-0.3-0.1-0.3-0.1l-0.7-0.9c0,0,0,0.1,0,0.1c0,0.1,0,0.2,0,0.2c0,0.1,0.1,0.3,0,0.3c0,0-0.2-0.1-0.2-0.2c0,0.1,0,0.2,0,0.3
			c0,0,0.1,0.1,0.1,0.1c0.1,0.1,0.1,0.1,0.1,0.1l0,0l0,0c0,0,0.1,0,0.1,0.1c0.1,0.1,0.1,0.1,0.1,0.1c0,0,0,0,0,0c0,0,0.1,0,0.2,0.1
			c0.1,0,0.1,0.1,0.1,0.1l0,0l0,0c0,0,0.1-0.1,0.3,0c0.2,0,0.1,0.3,0.1,0.3c0.1,0,0.1,0.1,0.1,0.1c0,0,0,0,0,0c0,0,0,0,0.1,0
			c0,0-0.1,0-0.1,0s0.1,0,0.2,0.1c0,0,0,0,0,0c0,0,0.1,0.1,0.1,0.2c0,0,0,0.1,0,0.1c0,0,0,0,0,0.1c0,0,0,0.1,0,0.1c0,0,0,0,0,0
			c0,0,0,0,0,0c0,0,0,0,0,0.1c0,0,0,0,0,0.1c0,0,0,0,0,0c0,0,0,0,0,0c0,0,0,0,0,0c0,0,0,0,0,0c0,0,0,0,0,0c0,0,0,0,0,0c0,0,0,0,0,0
			c0,0-0.1,0-0.1,0c0,0-0.1,0-0.1,0c0,0,0,0,0,0s0.3,0,0.2-0.3c-0.1-0.1-0.2-0.1-0.2-0.1c0,0,0,0.1,0,0.3c0,0.1,0,0.2,0,0.3
			c0,0,0,0.1,0,0.1c0.1,0,0.1,0,0.3,0c0.4,0,0.4-0.2,0.7-0.5c0,0,0,0,0,0c-0.1,0,0-0.1,0-0.2c0-0.1,0.2-0.1,0.2-0.1s0,0.1,0,0.2
			c0,0,0,0.1,0,0.1c0.2-0.2,0.4-0.3,0.5-0.4c0,0,0-0.1,0-0.1c0.1-0.1,0.2-0.1,0.2-0.1s-0.1,0.1-0.1,0.2c0,0,0,0,0,0.1c0,0,0,0,0,0
			c0.1,0,0.3,0.1,0.5,0.3c0-0.1,0.1-0.1,0.2-0.2c0.1-0.1,0.2-0.2,0.4-0.2c0,0-0.1,0-0.1-0.1c0-0.1,0-0.2,0-0.2s0-0.1,0.1-0.1
			c0,0,0.1,0,0.1,0c0,0,0,0,0-0.1c0,0,0.2,0.1,0.2,0.1c0,0,0,0,0,0c0,0,0,0.1,0,0.1c0,0,0.1,0,0.1,0c0,0,0,0,0-0.1c0,0,0,0,0,0
			l0.3-0.3l0,0c0,0,0,0,0,0l0,0l0-0.1l0,0c0,0,0,0,0,0c0,0,0,0,0,0l0,0l0.1,0c0,0,0,0,0,0l0,0l0.1,0l0,0c0,0,0,0,0,0c0,0,0,0,0,0
			l0,0l0,0l0,0c0,0,0,0.1,0,0c0,0,0,0,0,0c0,0.1,0.1,0.1,0,0.2c0,0.1-0.1,0.1-0.2,0.1c0,0,0,0,0,0c0.1,0,0,0,0,0l0,0c0,0,0,0,0,0
			c0,0,0,0,0,0l0,0l0,0l0,0l-0.2,0.3c0,0,0,0.1,0,0.1c0,0-0.1,0-0.1,0c0,0,0,0,0,0.1c0,0,0,0,0,0c0,0,0,0,0,0c0,0,0,0,0.1,0.1
			c0,0,0,0,0-0.1c0,0,0.1,0.2,0,0.2c0,0,0,0-0.1,0c0,0,0,0,0,0.1c0,0-0.2,0-0.2,0c0,0,0,0,0,0c0,0.1-0.1,0.2-0.2,0.3
			c-0.1,0.1-0.2,0.1-0.3,0.2c0,0.1,0,0.2,0,0.3l0,0v0.2l0,0.1c0.1,0,0.1,0,0.1,0c0,0,0.2,0,0.2,0s-0.1,0.1-0.2,0.1
			c-0.1,0-0.1,0-0.2,0l0,0l0,0c0,0-0.1,0.1-0.1,0.1l-0.1,0.1l-0.1,0c-0.1,0.1-0.2,0.1-0.3,0.2c0,0,0,0,0.1,0
			c0.1,0.1,0.2,0.1,0.2,0.1s-0.1,0.1-0.2,0c-0.1,0-0.2-0.1-0.1-0.1c0,0,0,0,0,0c0,0,0.1,0.1,0.1,0.1c0,0,0.2,0.1,0.2,0.1
			s-0.2,0-0.3-0.1c0,0-0.1-0.1-0.1-0.1c-0.2,0.1-0.3,0.1-0.5,0.1l-0.2,0l-0.3,0l-0.1,0c-0.1,0-0.2-0.1-0.3-0.1c0,0,0,0,0,0
			c0,0.1,0.1,0.3,0.1,0.3s-0.1,0-0.2-0.1c0-0.1-0.1-0.1-0.1-0.2C25.1,27.1,25,27,24.8,27l0,0l-0.1,0C24.6,27,24.4,27,24.3,27
			c-0.4,0-0.8,0.2-1,0.3c-0.1,0-0.1,0.1-0.1,0.2l0.2,0.1c0-0.1,0.2-0.2,0.3-0.2c0.1,0,0.3,0.2,0.3,0.4c0,0.1,0,0.1-0.1,0.2
			c0.1,0,0.2,0,0.4,0c0.5,0,0.9-0.1,1.2-0.2c0.2-0.1,0.3-0.1,0.4-0.1c0.1-0.1,0.3-0.2,0.4-0.2c0.1,0,0.3,0,0.4,0.1
			c0.1,0.1-0.2,0.3-0.2,0.4c-0.1,0.1-0.4,0.3-0.6,0.1c0,0,0,0,0-0.1c-0.3,0.1-1,0.3-1,0.4c0,0.1,0.3,0.3,0.4,0.3
			c0-0.1,0.1-0.2,0.3-0.2c0.2,0,0.3,0.1,0.3,0.3s-0.1,0.3-0.3,0.3c-0.1,0-0.2-0.1-0.2-0.2l0,0c0,0-0.2,0-0.8,0.2
			c-0.2,0.1-0.4,0.2-0.5,0.3c0,0.1-0.1,0.1-0.2,0.1c-0.2,0.1-0.3,0.2-0.5,0.3c-0.3,0.1-2.4,0.1-2.7,0c-0.2-0.1-0.3-0.2-0.4-0.3
			c0,0-0.1,0-0.1,0c-0.2,0-0.3-0.1-0.3-0.3c-0.3-0.1-0.8-0.1-0.9-0.1c0,0.1-0.1,0.2-0.3,0.3c-0.2,0.1-0.6,0-0.7-0.1
			c-0.1-0.2,0.1-0.4,0.4-0.5c0.1,0,0.3,0,0.4,0c0.1,0,0.4-0.1,0.4-0.3c0-0.5-1.6-0.6-1.7-0.6L17.3,28c0,0,0,0.1,0,0.1
			c0,0.2-0.1,0.3-0.3,0.3s-0.3-0.1-0.3-0.3s0.1-0.3,0.3-0.3c0.1,0,0.1,0,0.2,0.1l0,0c0,0,0.3,0,0.3-0.2c0-0.2-0.7-0.6-0.9-0.7
			c-0.1,0-0.2,0.1-0.3,0c-0.3,0-0.6-0.5-0.5-0.7c0.1-0.2,0.8,0,0.9,0.2c0,0,0,0.1,0,0.1c0.3,0.2,1.6,0.8,1.8,0.8
			c0.1,0,0.1-0.3,0.1-0.4c-0.1,0-0.2-0.1-0.2-0.3c0-0.2,0.1-0.3,0.3-0.3s0.3,0.1,0.3,0.3c0,0.1,0,0.2-0.1,0.2
			c0.1,0.1,0.4,0.7,0.8,0.8c0,0,0.1,0,0.1,0c0,0,0,0,0-0.1c0-0.2,0.2-0.4,0.3-0.4c0.1,0,0.2,0.1,0.2,0.1c0.1,0,0.2,0,0.3,0
			c0,0,0,0,0,0c0,0,0.1,0,0.3,0c0.1,0,0.3,0,0.3,0l0,0c0,0,0.3,0,0.5,0c0.1,0,0.3,0,0.3,0c0-0.1,0-0.2,0-0.3c0-0.3,0-0.4,0.1-0.6
			c-0.1,0.1-0.3,0.2-0.5,0.3c0,0,0,0,0,0c0,0,0,0,0,0.1c0,0.1-0.1,0.2-0.1,0.2s0-0.2,0-0.2c0,0,0,0,0,0c0,0,0,0,0,0
			c0,0,0,0.1-0.1,0.1c-0.1,0.1-0.2,0.1-0.2,0.1s0.1-0.1,0.1-0.2c0,0,0,0,0,0c-0.1,0-0.2,0-0.3,0c-0.1,0-0.2,0-0.3,0c0,0,0,0,0,0.1
			c-0.1,0.1-0.2,0.1-0.2,0.1s0.1-0.1,0.1-0.2c-0.3,0-0.5-0.1-0.6-0.1c0,0-0.1,0-0.1-0.1c0,0-0.1,0.1-0.1,0.1c-0.1,0-0.2,0-0.2,0
			s0.1,0,0.1,0c0,0,0,0,0.1-0.1c-0.1-0.1-0.2-0.1-0.3-0.2c-0.1-0.1-0.2-0.3-0.3-0.5c0,0,0,0,0,0c0,0,0,0,0,0c0,0,0,0,0,0
			c-0.1,0.1-0.2,0.1-0.3,0.1c0,0,0,0,0,0l0,0c-0.1,0-0.2,0.1-0.4,0.1l0,0l-0.2,0c-0.1,0-0.1,0-0.2,0c0,0-0.1,0-0.1,0
			c0,0,0,0.1-0.1,0.1c-0.1,0.1-0.2,0.1-0.2,0.1s0-0.1,0.1-0.2c0,0,0,0,0.1-0.1c0,0,0,0,0,0c0,0,0,0,0,0.1c0,0-0.2,0.1-0.2,0.1
			s0-0.1,0.1-0.2c-0.3-0.1-0.5-0.2-0.7-0.3c0,0-0.1,0.1-0.1,0.1c-0.1,0-0.2,0.1-0.2,0.1s0.1-0.1,0.2-0.2c0,0,0,0,0.1,0l0,0l0-0.1
			c-0.1-0.1-0.2-0.2-0.2-0.3l0,0c0,0,0,0,0,0c0,0,0,0,0,0c0,0,0-0.1,0-0.1c0,0,0,0,0,0l0,0h-0.2L16,25.2c0,0,0,0,0,0l0,0l-0.1,0
			c0,0,0,0.1,0,0.1c0,0-0.2,0.1-0.2,0.1s0.1-0.1,0.2-0.1c0,0,0-0.1,0-0.1l-0.1,0L15.5,25c0,0,0,0,0,0l-0.1-0.1l-0.1-0.1
			c0,0-0.1,0-0.1,0c-0.1,0-0.2-0.1-0.2-0.1s0.2,0.1,0.2,0c0,0,0,0,0.1,0L15,24.7l-0.2-0.3l-0.1-0.2l0,0c0,0,0,0-0.1,0
			c-0.1,0-0.1-0.1-0.1-0.1s0.1,0,0.2,0c0,0,0,0,0,0l0-0.1c0,0,0-0.1,0-0.1l0,0c0,0,0,0,0,0c0,0,0,0,0-0.1l0-0.1l0-0.1
			c0-0.1,0-0.1,0.1-0.2c-0.1-0.1-0.3-0.2-0.4-0.4c-0.1-0.1-0.1-0.3-0.1-0.4c0,0,0,0,0,0c-0.1,0-0.2,0-0.2,0S14,22.7,14,22.6
			c0,0,0-0.1,0-0.1c0,0,0,0-0.1,0c0,0,0.2-0.3,0.2-0.3c0,0,0,0,0,0.1c0,0,0.1,0,0.1,0C14.3,22.2,14.3,22.2,14.3,22.1z M11.5,22.6
			c0.1-0.1-0.2-0.5-0.3-0.5c0-0.1,0-0.3,0.2-0.3c0.2,0,0.2,0.3,0.3,0.2c0.1-0.1,0-0.3,0-0.4c0-0.1,0.2-0.3,0.2-0.3
			c0.1-0.1,0.1,0.2,0.2,0.2c0.2,0,0.1-0.2,0.3-0.2c0.1,0,0.1,0,0.1,0c0,0,0,0,0,0c0.1,0.1,0,0.1,0,0.3c0,0.2-0.3,0.4-0.3,0.5
			c0,0.1,0.5-0.3,0.5,0c0,0.4-0.5,0.4-0.6,0.7c-0.1,0.3,0.4-0.1,0.5,0c0.1,0.2-0.4,0.5-0.4,0.6c0,0.1,0.1,0,0.1,0.1
			c0,0.1-0.1,0.1-0.1,0.3c0,0.2,0,0.3,0.1,0.6l0.2-0.3l0,0c0,0,0,0,0,0l-0.1,0l0-0.1c0,0,0,0,0,0l0,0c0,0,0,0,0,0c0,0,0-0.1,0-0.1
			c0-0.1,0.1,0,0.1,0s0,0,0.1,0.1c0-0.1,0-0.1,0-0.2c0.1-0.1,0.1-0.1,0.2-0.1c0.1,0,0.1,0.1,0,0.2c0,0.1-0.1,0.1-0.1,0.1
			c0,0,0.1,0,0.1,0.1c0,0,0,0,0,0.1c0,0,0,0,0,0l0,0.1l0,0c0,0,0,0,0,0l0,0l0,0c0,0,0,0,0,0c0,0,0,0,0,0l0,0l0,0c0,0-0.1,0-0.1,0
			l0,0l-0.1,0l-0.3,0.6c0,0.2,0,0.4,0,0.5c0.1,0.1,0.1,0.2,0.2,0.2c0.1,0,0.1-0.3,0.2-0.3c0.1,0,0.1,0,0.2,0.2
			c0.1,0.1-0.1,0.4,0,0.5c0.1,0.1,0.2-0.5,0.3-0.5c0.2,0,0.2,0.1,0.3,0.3c0.1,0.2-0.1,0.7,0,0.8c0.1,0.1,0.3-0.3,0.3-0.2
			c0.1,0.1-0.1,0.6-0.2,0.8c0,0.3,0.1,0.4,0.1,0.4c0.1,0.1,0.2,0.2,0.3,0.3c0,0,0,0,0,0l0-0.4l-0.1-0.1l0,0c0,0,0,0,0,0l0-0.1l0-0.1
			c0,0,0,0,0,0c0-0.1,0.1-0.1,0.2-0.1c0,0,0-0.1,0-0.1c0-0.1,0.1-0.2,0.1-0.2s0.1,0.1,0.1,0.2c0,0,0,0.1,0,0.1c0.1,0,0.1,0,0.2,0.1
			c0,0,0,0,0,0l0,0l0,0.1l0,0c0,0,0,0,0,0l0,0l0,0c0,0-0.1,0-0.2,0l0,0.6c0.1,0.1,0.2,0.1,0.2,0.2c0-0.1,0-0.3,0-0.3c0,0,0,0,0,0
			c0,0,0,0,0,0c0,0,0,0,0,0c0,0,0,0,0,0c0.1,0,0.1,0.2,0.1,0.2c0,0,0.1,0,0.1,0c0.1,0,0,0.3,0.2,0.3c0.1,0,0-0.4,0.1-0.4
			c0.1,0,0.2,0.1,0.3,0.3c0,0.2-0.1,0.6,0,0.7c0.2,0.1,0.1-0.4,0.2-0.5c0.1-0.1,0.3,0.1,0.4,0.3c0.1,0.2,0,0.8,0.1,0.8
			c0.1,0.1,0.2-0.2,0.3-0.2c0.1,0,0,0.4,0.1,0.6c0.1,0.2,0.3,0.3,0.3,0.3l0,0l0,0c0.1,0,0.1,0.1,0.3,0.2c0,0,0,0,0,0l0-0.3
			c0,0,0,0,0,0l0-0.1l0-0.1l0,0l0,0c0,0-0.1,0-0.1,0l0,0l0,0c0,0,0,0,0,0l0,0l0-0.1c0,0,0,0,0,0c0,0,0,0,0,0l0,0l0,0
			c0-0.1,0.1-0.1,0.2-0.1c0,0-0.1-0.1-0.1-0.1c0-0.1,0.1-0.2,0.1-0.2c0.1,0,0.1,0.1,0.1,0.2c0,0,0,0.1,0,0.1c0.1,0,0.1-0.1,0.2,0
			c0,0,0,0,0,0l0,0l0,0c0,0,0,0,0,0l0,0l0,0c0,0,0,0,0,0l0,0l-0.1,0.1l0,0c0,0,0,0,0,0l0,0l0.1,0.6c0,0,0,0,0.1,0c0,0,0.1,0,0.2,0
			c0.2,0,0.5,0.5,0.6,0.3c0.1-0.2-0.2-0.2-0.2-0.3c0-0.1,0-0.2,0.3-0.2c0.3,0,0.6,0.6,0.7,0.6c0.1-0.1-0.2-0.4-0.2-0.5
			c0-0.1,0.1-0.1,0.3-0.1c0.4,0,0.5,0.6,0.7,0.6c0,0,0-0.3,0.1-0.3c0.1,0,0.2,0.3,0.4,0.4c0.1,0,0.1,0,0.1,0c0,0,0,0,0,0
			c0.1,0,0.4-0.1,0.8-0.2h0c0.1,0,0.3,0.1,0.4,0.1c0-0.1,0-0.2,0-0.2c0-0.1,0.1-0.1,0.1-0.1c0,0,0.2,0,0.2,0l0,0l0,0l0.4,0l0,0
			c0,0,0.2,0,0.3,0c0,0,0,0.1,0,0.1c0,0,0,0.1,0,0.1c0.1,0,0.2,0,0.5,0c0.3,0,0.4,0.1,0.6,0.2c0,0,0.1,0,0.1,0
			c0.1,0,0.3-0.1,0.5-0.2c0.3-0.2,0.4-0.4,0.6-0.6c0.2-0.1,0.5-0.2,0.8-0.2c0.3,0,0.6,0.1,0.6,0.1l0,0c0,0,0,0.1-0.1,0.1
			c-0.1,0.1-0.2,0.1-0.2,0.1l0,0c0.1,0,0.2-0.1,0.4-0.1c0.1,0,0.3,0,0.4,0.1l0,0c0,0,0,0,0,0c0,0,0,0,0,0c0,0,0-0.1,0.1-0.2
			c0,0,0.1-0.1,0.1-0.1l0-0.4l0,0l0,0l0-0.2l0,0l0,0c0,0,0,0,0,0c0,0,0,0,0,0l0,0l-0.1,0l0,0c0,0,0,0,0,0l-0.1-0.1v-0.1c0,0,0,0,0,0
			s0,0,0,0v0c0,0,0,0,0-0.1c0,0,0.1-0.1,0.2-0.1c0.1,0,0.2,0.1,0.2,0.2c0,0,0,0.1,0,0.1c0,0,0,0,0,0l0,0l0,0c0,0,0,0,0,0l0,0
			l0.1,0.4c0,0,0.1-0.1,0.1-0.1c0,0,0.1,0,0.1-0.1c0.1,0,0.2-0.2,0.2-0.4c0-0.2,0-0.2,0.1-0.5c0.1-0.3,0.8-0.8,1-1
			c0,0,0.1-0.1,0.1-0.1l0,0c0-0.1,0-0.2,0-0.2s0,0,0,0l0,0c0,0,0.1,0.1,0.1,0.4c0,0.3-0.1,0.4-0.1,0.4s0.3-0.2,0.5-0.3
			c0,0,0.1,0,0.1,0c0,0,0,0,0,0c0,0,0,0,0,0c0.2-0.1,0.3-0.1,0.3-0.1c0,0,0.1-0.1,0.2-0.2L29.4,27l-0.1,0c0,0,0,0,0,0c0,0,0,0,0,0
			l0,0l-0.1,0l0,0c0,0,0,0,0,0l0,0l0-0.1l0-0.1l0,0c0,0,0.1-0.1,0.1-0.1c0.1,0,0.2,0.1,0.2,0.2c0,0,0,0,0,0c0,0,0,0,0,0l0,0
			c0-0.1,0,0.1,0,0.1l0,0c0,0,0,0,0,0l0.4,0.5c0.1-0.1,0.1-0.1,0.1-0.2c0,0,0-0.3,0-0.5c0-0.3-0.2-0.6-0.2-0.8
			c0-0.3,0.1-0.6,0.5-0.9c0.4-0.3,0.6-0.3,0.6-0.3l0,0c0,0,0,0.1,0,0.2c0,0.1,0,0.2,0,0.2s0.2-0.3,0.4-0.4c0,0,0,0,0,0c0,0,0,0,0,0
			c0,0,0.1-0.1,0.1-0.3c0,0,0,0,0,0L31.1,24c0,0,0,0,0,0l0,0L31,23.9l-0.1,0l0,0c0,0,0,0,0,0c0,0,0,0,0,0l-0.1,0l0,0c0,0,0,0,0,0
			l0,0l0,0c0,0,0,0,0-0.1c0,0,0,0,0,0l0,0c0,0,0,0,0-0.1c0,0,0.1-0.1,0.1-0.1c0.1,0,0.2,0.1,0.2,0.2c0,0,0,0,0,0v0h0c0,0,0,0,0,0
			l0,0c0,0,0,0,0,0c0,0,0,0,0,0l0,0l0,0l0.4,0.2c0-0.1,0-0.2,0-0.2l0,0c0-0.1,0-0.3,0-0.4c0-0.2-0.2-0.2-0.3-0.5
			c-0.1-0.3,0-0.6,0-0.9c0-0.3-0.2-0.5-0.2-0.5v0c0,0,0,0,0,0l0,0c0,0,0.2,0,0.4,0.3c0.1,0.2,0.2,0.4,0.2,0.6c0-0.3,0.1-0.6,0.2-0.8
			c0.1-0.2,0.3-0.5,0.3-0.5s0,0,0,0l0,0c0,0,0.1,0.2,0.2,0.4c0.1,0.3,0.1,0.5,0.1,0.5c0-0.1,0-0.1,0-0.2c0.1-0.1,0.1-0.2,0.1-0.2
			s0,0,0,0l0,0c0,0,0,0,0,0.1c0,0.1,0.3,0.3,0.3,0.8l0,0c0,0.5-0.6,0.8-0.8,1c-0.2,0.1-0.3,0.3-0.4,0.4c0,0,0,0.1,0,0.1l0.5-0.1l0,0
			c0,0,0,0,0,0c0,0,0,0,0,0l0,0c0,0,0-0.1,0,0c0-0.1,0.1-0.1,0.2-0.1c0.1,0,0.1,0.1,0.2,0.1c0-0.1,0,0,0,0l0,0.1v0c0,0,0,0,0,0
			s0,0,0,0v0l0,0.1l0,0c0,0,0,0,0,0l-0.1,0l-0.1,0c0,0,0,0,0,0c0,0,0,0,0,0l0,0l-0.1,0l0,0c0,0,0,0,0,0l0,0l-0.6,0.2
			c0,0.1,0,0.1,0,0.2l0,0l0,0.1c0,0.1,0,0.1,0,0.3c0,0.2,0,0.6,0,0.6c0.4-0.4,0.7-0.4,0.7-0.4l0,0c0,0-0.3,0.3-0.4,0.6
			c-0.1,0.3-0.3,1-0.7,1.2c-0.3,0.2-0.5,0.2-0.6,0.2c-0.1,0.1-0.1,0.1-0.2,0.2c-0.1,0.1-0.2,0.2-0.2,0.3l0.4,0.2l0,0c0,0,0,0,0,0
			l0,0c0-0.1,0.1-0.1,0.2-0.1c0.1,0,0.2,0.1,0.2,0.2c0,0,0,0,0,0l0,0l0,0.1l0,0c0,0,0,0,0,0l0,0l-0.1,0l-0.1,0l0,0c0,0,0,0,0,0l0,0
			l0-0.1c0,0,0,0,0,0c0,0,0,0,0,0l0,0l0,0l0,0l-0.5-0.1c-0.1,0.1-0.1,0.1-0.2,0.2c0,0,0,0,0,0l0,0c0,0.1,0,0.1,0,0.2
			c0,0.2-0.1,0.3-0.1,0.3s0.1,0,0.2-0.1c0.1,0,0.2,0,0.2,0s-0.1,0.1-0.1,0.2c0,0.1,0,0.6-0.5,1c-0.4,0.3-1.5,0.3-1.8,0.3
			c-0.2,0-0.3,0.1-0.4,0.2l0.4,0.4c0,0,0,0,0,0l0,0l0,0c0,0,0,0,0,0c0.1-0.1,0.2-0.1,0.3,0c0,0,0,0.1,0,0.1l0,0l0,0.1l0,0
			c0,0,0,0,0,0c0,0,0,0,0,0l0,0l-0.1,0l-0.1,0l-0.1,0l0,0c0,0,0,0,0,0c0,0,0,0,0,0l0-0.1c0,0,0,0,0-0.1c0,0,0,0,0,0c0,0,0,0,0,0
			L26.9,30c-0.1,0.1-0.2,0.2-0.2,0.2l0,0c0,0-0.2,0.2-0.3,0.3c-0.1,0.1-0.4,0.3-0.4,0.3s0.2,0,0.3,0c0,0,0.1,0,0.2,0.1
			c0.1,0,0.3,0.1,0.3,0.1c0,0,0,0,0,0s0,0,0,0l0,0c0,0,0,0,0,0c0,0-0.3,0-0.5,0.1c-0.2,0.1-1.1,0.6-1.6,0.6c-0.3,0-0.7-0.3-0.9-0.5
			c-0.2-0.1-0.4-0.3-0.6-0.4c-0.2-0.1-0.7-0.1-0.8-0.1c0,0,0,0,0,0.1c0.1,0,0.4,0.1,0.7,0.2c0.4,0.2,0.5,0.4,0.5,0.4l0,0
			c0,0,0,0,0,0c0,0,0,0.1-0.2,0.1c-0.1,0-0.2-0.1-0.2-0.1c0,0-0.2-0.2-0.4-0.3c-0.2-0.1-0.4-0.2-0.5-0.2c0,0,0,0.1,0,0.1
			c0,0,0,0,0,0c0.1,0.1,0.1,0.2,0.2,0.2c0.2,0.1,0.5,0.2,0.6,0.3c0.1,0.1,0.4,0.4,0.4,0.4h0c0,0-0.1-0.1-0.2-0.1c-0.2,0-0.2,0-0.2,0
			v0l0,0l0,0l0,0c0,0,0,0-0.1,0c-0.1,0-0.1,0.1-0.1,0.1h0l0,0c0,0-0.1,0.1-0.1,0.1c0,0-0.1,0.2-0.1,0.2v0c0,0-0.1-0.1-0.2-0.2
			c-0.1-0.1-0.4-0.1-0.5-0.2c-0.1-0.1-0.1-0.2-0.2-0.2c-0.1,0.1-0.1,0.1-0.2,0.2c-0.2,0.2-0.3,0.4-0.3,0.4s-0.1-0.1-0.1-0.1
			c0,0-0.1-0.1-0.1-0.1c0,0-0.1-0.1-0.2-0.1c-0.1-0.1-0.2,0-0.2,0l0,0c0,0-0.1,0-0.2,0.1c-0.1,0.1-0.2,0.1-0.2,0.1s0.1-0.4,0.5-0.7
			c0.4-0.3,0.6-0.4,0.6-0.4c0,0,0-0.1,0-0.2c-0.1,0-0.4,0.1-0.5,0.2c-0.2,0.2-0.4,0.3-0.4,0.3c0,0-0.1,0.1-0.2,0.1
			c-0.1,0-0.2-0.1-0.2-0.1c0,0,0,0,0,0c0,0,0.1-0.2,0.4-0.3c0.2-0.1,0.5-0.2,0.7-0.3c-0.1,0-0.1-0.1-0.3-0.1c-0.1,0-0.3,0.1-0.5,0.2
			c-0.1,0.1-0.2,0.2-0.3,0.1c0,0,0,0,0,0c0,0,0,0,0,0c-0.1,0,0,0-0.2,0.1c-0.2,0.1-0.3,0.4-0.4,0.5c-0.1,0.1-0.4,0.2-0.5,0.1
			c-0.1-0.1,0.3-0.3,0.2-0.5c-0.1-0.1-0.4,0.4-0.5,0.5c-0.1,0.1-0.4,0.1-0.5-0.1c-0.1-0.2,0.4-0.3,0.3-0.5c-0.1-0.1-0.4,0.2-0.5,0.3
			c-0.1,0.1-0.5,0.1-0.5,0c-0.1-0.2,0.5-0.3,0.2-0.4c-0.2-0.1-0.5,0.1-0.6,0.1C17,31,17,30.8,17,30.8c0,0,0,0-0.1,0.1
			c-0.1,0-0.2,0-0.2,0c0,0,0,0,0,0l0,0l0,0c0,0,0,0,0,0c0,0,0,0,0-0.1c0.1-0.1,0.2-0.2,0.2-0.3c0.1-0.1,0.2-0.1,0.3-0.1
			c0,0-0.1-0.1-0.2-0.2l-0.3,0c0,0,0,0,0,0l-0.3,0l0,0c0,0,0,0,0,0.1l0,0l0,0.1c0,0,0,0,0,0l0,0.1l0,0c0,0,0,0,0,0l0,0h0
			c0,0,0,0,0,0c-0.1,0-0.1,0-0.1,0l0,0l0,0c0,0,0,0,0-0.1c0,0,0,0,0,0l0,0l0,0l-0.1,0c0,0,0,0,0,0c0,0,0,0,0,0l0,0l-0.1,0l0,0l0-0.1
			l0,0c0,0,0,0,0,0c0-0.1,0.1-0.2,0.2-0.2c0,0,0,0,0.1,0c0-0.1,0-0.1,0-0.2c0.1-0.1,0.2,0,0.3,0.2l0.4,0c-0.2-0.2-0.5-0.3-0.7-0.3
			c-0.2,0-0.4,0.2-0.5,0.1c-0.2,0,0.1-0.1,0-0.3c-0.1-0.2-0.3,0.1-0.5,0.2c-0.2,0-0.6-0.3-0.6-0.5c0-0.2,0.6,0.1,0.7-0.1
			c0.2-0.2-0.6-0.1-0.8-0.2c-0.1-0.1-0.4-0.3-0.3-0.5c0.1-0.2,0.3,0.1,0.6,0c0.3-0.1-0.6-0.4-0.6-0.5c0-0.1,0.3-0.1,0.4,0l0,0
			c0,0,0,0,0,0c0,0,0,0,0,0l0,0c0,0-0.2-0.1-0.4-0.2l-0.5,0l0,0l0,0l0,0l0,0l0,0.1l0,0c0,0,0,0,0,0l0,0l-0.1,0l0,0c0,0,0,0,0,0
			c0,0,0,0,0,0l0,0l0,0l0,0c0,0,0,0,0,0l0,0l0,0c0,0,0,0,0,0c0,0,0,0,0,0l0,0c0,0,0,0,0,0c0,0,0,0,0,0c0,0,0,0,0,0l0,0l0,0
			c0,0,0,0,0,0c0,0,0,0,0,0l-0.1,0l-0.1,0l0-0.1c0,0,0,0,0,0c0,0,0,0,0,0c0-0.1,0.1-0.1,0.2-0.1c0,0,0.1,0,0.1,0c0,0,0-0.1,0-0.1
			c0-0.1,0-0.1,0.1-0.1v0c0.1,0,0.2,0.1,0.2,0.3l0.4,0c0,0,0,0-0.1-0.1c0,0,0,0,0,0c-0.2-0.2-0.5-0.5-0.6-0.6
			c-0.1-0.1-0.3-0.1-0.4-0.1c-0.1,0-0.4,0-0.4-0.2c0-0.2,0.5,0,0.5-0.1c0-0.1-0.5-0.1-0.7-0.1c-0.1-0.1-0.3-0.2-0.4-0.5
			c0-0.3,0.5,0.1,0.6,0c0.1-0.1-0.4-0.2-0.6-0.3c-0.2-0.1-0.3-0.2-0.3-0.3c0-0.1,0.4,0,0.4,0c0,0-0.2-0.2-0.2-0.3c0-0.1,0.2,0,0.2,0
			l0-0.1l0,0c0,0,0-0.1,0-0.3L11.8,24c0,0,0,0,0,0c0,0,0,0,0,0l0,0l0,0c0,0,0,0,0,0l0,0l-0.1,0l0,0c0,0,0,0,0,0c0,0,0,0,0,0l0,0l0,0
			c0-0.1,0-0.1,0-0.1s0,0,0,0c0,0,0,0,0,0l0,0l-0.1,0c0,0,0,0,0,0c0,0,0,0,0,0l0,0l0-0.1c0,0,0,0,0-0.1l0,0c0,0,0,0,0,0
			c0,0,0-0.1,0-0.1c0-0.1,0.1-0.1,0.2,0c0,0,0.1,0.1,0.1,0.1c0,0,0-0.1,0.1-0.1c0.1,0,0.2,0,0.2,0c0,0,0,0.2,0,0.3l0.4,0.3
			C12.2,24,12,23.7,12,23.6c-0.1-0.1-0.2-0.1-0.3-0.3c-0.1-0.1,0-0.2-0.1-0.2c-0.1-0.1-0.7-0.3-0.5-0.6
			C11.2,22.3,11.4,22.7,11.5,22.6z"/>
		<rect x="0.1" y="0" class="st2" width="8" height="44.9"/>
	</g>
</g>
<g id="Layer_1">
	<path class="st1" d="M23.8,24.3C23.8,24.3,23.8,24.3,23.8,24.3C23.8,24.3,23.8,24.3,23.8,24.3z"/>
	<path class="st1" d="M19.5,21.9c0-0.1,0-0.1,0-0.2C19.5,21.8,19.5,21.9,19.5,21.9C19.5,21.9,19.5,21.9,19.5,21.9z"/>
	<path class="st1" d="M20,16.5C20.1,16.5,20.1,16.5,20,16.5C20,16.5,20,16.5,20,16.5z"/>
	<path class="st1" d="M18.6,21.9C18.6,22,18.5,22,18.6,21.9L18.6,21.9z"/>
	<polygon class="st1" points="19.2,16 19.2,16 19.2,16 	"/>
	<path class="st1" d="M18.6,21.4C18.6,21.4,18.5,21.4,18.6,21.4C18.6,21.4,18.6,21.4,18.6,21.4z"/>
	<path class="st1" d="M22.4,31C22.4,31,22.4,31,22.4,31L22.4,31z"/>
	<path class="st1" d="M22.3,25.1C22.3,25.1,22.3,25.1,22.3,25.1C22.3,25.1,22.3,25.1,22.3,25.1z"/>
	<path class="st1" d="M19.3,23.1C19.3,23.1,19.3,23.1,19.3,23.1C19.3,23.1,19.3,23.1,19.3,23.1z"/>
	<path class="st1" d="M17.4,22.5C17.4,22.5,17.3,22.5,17.4,22.5C17.4,22.5,17.4,22.5,17.4,22.5C17.4,22.5,17.4,22.5,17.4,22.5z"/>
	<path class="st1" d="M17.7,15.9L17.7,15.9C17.7,15.9,17.7,15.9,17.7,15.9z"/>
	<path class="st1" d="M19,16c-0.1,0-0.2,0.1-0.3,0.1C18.8,16.1,18.9,16.1,19,16C18.9,16,18.9,16,19,16z"/>
	<path class="st3" d="M30.7,23.8C30.7,23.8,30.7,23.8,30.7,23.8L30.7,23.8C30.7,23.7,30.7,23.7,30.7,23.8z"/>
	<path class="st4" d="M28.6,27.6C28.6,27.6,28.6,27.6,28.6,27.6L28.6,27.6z"/>
	<path class="st4" d="M21.4,30.7C21.4,30.7,21.4,30.7,21.4,30.7C21.4,30.8,21.5,30.7,21.4,30.7C21.4,30.7,21.4,30.7,21.4,30.7z"/>
	<path class="st5" d="M20.2,31c0.2,0,0.5-0.3,0.8-0.3c0.2,0,0.3,0.1,0.5,0.1c0,0,0-0.1,0-0.1c-0.2,0-0.4-0.2-0.7-0.1
		C20.5,30.7,20.4,30.9,20.2,31z"/>
	<g>
		<path class="st5" d="M31.1,23.7L31.1,23.7C31.1,23.7,31.1,23.7,31.1,23.7z"/>
		<path class="st5" d="M23.1,31c-0.2-0.1-0.5-0.2-0.7-0.2c-0.1,0.1,0,0.2,0.1,0.2c-0.1,0,0.9,0.6,1,0.6C23.9,31.5,23.2,31.1,23.1,31
			C22.8,30.9,23.5,31.2,23.1,31z"/>
		<path class="st5" d="M21.4,30.5c-0.4-0.2-0.8,0.1-1.1,0c-0.2,0-0.4-0.3-0.6-0.3c-0.1,0,0,0.3-0.1,0.3c-0.3,0-0.3-0.7-0.8-0.6
			c-0.5,0.1,0.2,0.5,0,0.6c-0.2,0.1-0.5-0.7-0.8-0.6c-0.3,0.1,0,0.5,0,0.5c-0.1,0-0.4-0.2-0.5-0.3c-0.1-0.1-0.2,0.1-0.3,0
			c-0.1-0.1-0.1-0.5-0.1-0.6c0,0,0.3-0.5-0.1-0.2c0.2-0.4-0.5-0.3-0.2,0c-0.1,0.1-0.1,0.1-0.1,0.1c0.1,0.2,0.2,0.2,0.3,0.4
			c0,0,0,0,0,0l0,0.3c-0.1-0.1-0.2-0.2-0.3-0.2l0,0c-0.1-0.1-0.5-0.9-0.4-0.9c-0.1,0-0.2,0.3-0.3,0.2c-0.2-0.1,0.1-0.8-0.2-1
			c-0.4-0.3-0.3,0.4-0.5,0.4c-0.1-0.1,0.1-1.2-0.3-1c-0.1,0.1,0,0.4-0.1,0.4c-0.1,0-0.3-0.5-0.4-0.5c-0.1,0-0.1,0.4-0.1,0.4
			c-0.3-0.2-0.3-0.4-0.2-0.7c0,0,0.2,0,0.2-0.1c0-0.1,0-0.1,0-0.2c0-0.3-0.5-0.4-0.3,0c-0.4-0.1,0,0.6-0.1,0.7
			c-0.2-0.2-0.4-0.3-0.4-0.6c0-0.2,0.3-0.8,0.2-1c-0.1-0.1-0.3,0.3-0.3,0.2c-0.1-0.2,0.3-0.9-0.1-1.1c-0.2-0.1-0.5,0.4-0.5,0.5
			c-0.1-0.2,0.1-0.5-0.1-0.6c-0.2-0.2-0.2,0.3-0.3,0.3c-0.3,0-0.2-0.7-0.1-0.9c0.1-0.2,0.2-0.3,0.3-0.4c0.1-0.1,0.1,0,0.2-0.2
			c0,0,0,0,0,0c0-0.1-0.1-0.1-0.2-0.1c0.1,0,0.3-0.2,0.1-0.3c-0.2-0.1-0.3,0.2-0.2,0.3c-0.2-0.2-0.2,0-0.2,0.1
			c0.2,0.2,0.1,0.4-0.1,0.6c-0.1-0.4-0.1-0.4,0-0.8c0,0.1,0-0.4-0.1-0.1c0-0.1,0.5-0.5,0.4-0.6c-0.1-0.2-0.3,0.1-0.5,0.1
			c-0.1-0.1,0.8-0.8,0.5-0.8c-0.1,0-0.4,0.2-0.4,0.1c-0.1-0.2,0.4-0.4,0.3-0.7c-0.1-0.2-0.1,0-0.3,0c0.1,0-0.5,0.1-0.3,0
			c-0.2,0.2-0.1,0.6-0.3,0.7c-0.1,0.1-0.4-0.5-0.5,0c0,0.1,0.4,0.6,0.3,0.7c-0.2,0.1-0.3-0.4-0.5-0.1c-0.2,0.2,0.3,0.4,0.4,0.5
			c0.3,0.3,0.7,0.6,0.8,1.1c-0.1-0.1-0.3-0.1-0.4-0.2c-0.1-0.1,0.1-0.2-0.1-0.3c0,0-0.6,0-0.5,0.1c0,0,0,0,0,0
			c0.1,0.1,0.1,0.1,0.2,0.2c-0.2,0.2,0.1,0.2,0.2,0.1c0,0,0,0,0,0c0.3-0.2,0.5,0.7,0.5,0.9c-0.1,0-0.1-0.1-0.2,0
			c0,0.1,0.2,0.3,0.2,0.3c-0.1,0.1-0.7-0.2-0.4,0.3c0.1,0.1,0.9,0.3,0.8,0.4c-0.1,0.1-0.9-0.4-0.5,0.2c0.1,0.2,0.9,0.4,0.9,0.3
			c0,0.2-0.5-0.1-0.5,0.1c0,0.3,0.3,0.2,0.5,0.2c0.4,0.2,0.6,0.4,1,0.7c-0.5,0.2-0.3-0.2-0.6-0.2c-0.1,0.1-0.1,0-0.1,0.2
			c-0.1,0-0.4,0-0.3,0.1c0,0,0,0,0,0c0.1,0,0.3,0.1,0.3,0.1c0,0,0,0,0,0c0,0.3,0.1,0.1,0.3,0.1c-0.1,0,0.2-0.1,0.2-0.1
			c0.3-0.1,0.6,0.1,0.8,0.3c-0.1,0-0.3,0-0.4,0c0,0.1,0.6,0.3,0.6,0.5c0,0.2-1-0.4-0.6,0.3c0.3,0.4,0.7,0.1,1,0.3
			c0.1,0.1-0.7,0.1-0.7,0.1c-0.3,0.4,0.7,0.5,0.7,0.5c0,0,0.4,0,0.3,0c0,0-0.1,0.2,0,0.2c0.5,0.1,0.7-0.3,1.3,0.2
			c-0.3,0.1-0.9-0.3-0.8,0.1c-0.8-0.2,0.5,0.9,0.4,0.1c0.1,0,0.2,0,0.3,0c0,0,0,0,0,0c0.3-0.1,0.4,0,0.5,0.2
			c-0.3,0.1-0.4,0.2-0.6,0.4c0,0,0,0,0,0c0.1,0,1.1,0.1,1.1,0.1c0,0.2-0.6,0.4-0.1,0.5c0.2,0,0.7-0.5,0.8-0.3c0.2,0.2-0.7,0.5,0,0.6
			c0.2,0,0.8-0.5,0.8-0.5c0.1,0.2-0.5,0.7,0.1,0.5c0.2-0.1,0.6-0.5,0.8-0.6c0.2-0.1,0.4-0.3,0.6-0.4C21.1,30.5,21.4,30.9,21.4,30.5
			C21.3,30.5,21.4,30.6,21.4,30.5z"/>
		<path class="st5" d="M21.4,30.9c0-0.4-1.5,0.4-1.3,0.5C20.3,31.7,21.4,30.9,21.4,30.9z"/>
		<path class="st5" d="M32.5,21.8c0-0.1,0-0.1,0-0.1l0,0c0,0,0,0,0,0c-0.1,0.1-0.2,0.2-0.2,0.4c0-0.3-0.1-0.6-0.3-0.9l0,0
			c0,0,0,0,0,0c-0.3,0.4-0.4,0.8-0.5,1.3c-0.1-0.3-0.2-0.7-0.6-0.8l0,0c0.4,0.2,0,1,0.1,1.4c0.1,0.4,0.4,0.6,0.3,1.1
			c-0.2-0.1-0.3-0.2-0.3-0.3c0-0.3-0.4-0.2-0.3,0.1c0,0.1,0.3,0.2,0.4,0.2c0.6,0.3-0.1,0.7-0.3,1c0-0.1,0-0.2,0.1-0.4
			c-0.4,0.1-0.9,0.5-1,0.9c-0.2,0.6,0.4,1.3,0,1.9c-0.2-0.2-0.5-0.4-0.4-0.6c0,0,0,0,0,0c0-0.2-0.2-0.3-0.3-0.2c0,0,0,0,0,0
			C29,27,29.3,26.9,29.4,27c0.2,0.4,0.4,0.4,0.2,0.8c-0.1,0.1-0.8,0.4-0.9,0.4c0.1-0.3,0.1-0.6,0-0.8l0,0c0,0,0,0,0,0
			c0,0.5-0.7,0.8-1,1.1c-0.3,0.5-0.2,0.9-0.7,1.2c-0.1-0.2-0.1-0.3-0.1-0.5c0,0,0,0,0,0c0.4-0.6-0.9,0-0.1,0.1c0,0.1,0,0.1,0,0.2
			l0,0c0.1,0.3-0.1,0.4-0.2,0.6c-0.3-0.1-0.5-0.1-0.8-0.1c0.1-0.1,0.2-0.2,0.3-0.3c-0.3-0.2-0.8-0.2-1.1-0.1
			c-0.5,0.2-0.7,0.7-1.2,0.9c-0.2,0-1.6-0.1-1.4,0.1c0.1,0.1,0.9,0.1,1.2,0.2c0.4,0.2,0.7,0.7,1.2,0.7c0.7,0.1,1.3-0.7,2.1-0.7l0,0
			c0,0,0,0,0,0c-0.2-0.1-0.5-0.3-0.8-0.2c0.4-0.2,0.7-0.8,1.1-0.7c0.2,0.1,0.3,0.3,0.4,0.4c0.5,0.2,0.3-0.4,0-0.3
			c-0.1-0.1-0.3-0.2-0.4-0.4c0.5-0.4,1.3-0.1,1.9-0.3c0.7-0.3,0.6-0.8,0.9-1.3c-0.1,0-0.2,0-0.4,0.1c0.2-0.6,0.2-0.8,0.9-0.6
			c0.1,0,0.4,0.4,0.4-0.1c0-0.2-0.3-0.2-0.3-0.1c-0.1,0-0.3-0.1-0.4-0.2c0.4-0.5,1-0.4,1.4-0.9c0.3-0.5,0.4-1,0.8-1.5
			c-0.3,0-0.5,0.2-0.7,0.4c0-0.2-0.1-0.8,0-1c0.2-0.2,0.6-0.1,0.7-0.2c0.1,0,0.4,0,0.3-0.3c0,0-0.7,0.1-0.9,0.2
			c0.2-0.7,1.1-0.8,1.2-1.5C32.8,22.1,32.6,21.9,32.5,21.8C32.5,21.7,32.6,21.9,32.5,21.8z"/>
	</g>
	<path class="st1" d="M21.7,31.2c-0.1,0.3-0.8,0.4-0.9,0.8c0.1,0,0.2,0.1,0.3,0.2c-0.2-0.2,0.6-0.6,0.7-0.7c0.1-0.2,0.6-0.9,0.3-1.2
		C21.6,29.9,21.8,31.1,21.7,31.2z"/>
	<path class="st1" d="M23.2,32.1C23.2,32.1,23.2,32.1,23.2,32.1L23.2,32.1z"/>
	<path class="st1" d="M22.9,31.8c-0.2-0.2-0.5-0.2-0.7-0.4c0,0.1-0.1,0.2-0.2,0.2c0.3,0.3,0.7,0.5,1.1,0.4
		C23.1,32,23,31.9,22.9,31.8z"/>
	<path class="st6" d="M21.5,30.7c0.1,0-0.1,0.5-0.1,0.5c-0.3,0.4-0.8,0.5-1,1.1c0.1-0.1,0.3-0.2,0.4-0.2c-0.1-0.4,0.6-0.6,0.7-0.9
		c0.1-0.2,0.1-0.6,0.2-0.8C21.4,30.2,21.4,30.5,21.5,30.7z"/>
	<path class="st6" d="M21.5,30.7c0,0.1,0,0.1,0,0.2C21.5,30.8,21.6,30.6,21.5,30.7z"/>
	<path class="st6" d="M21.5,30.7c0-0.1,0.1-0.1,0-0.2C21.4,30.7,21.4,30.7,21.5,30.7z"/>
	<path class="st6" d="M21.5,30.7C21.4,30.7,21.4,30.7,21.5,30.7C21.5,30.7,21.5,30.7,21.5,30.7z"/>
	<path class="st6" d="M21.5,30.9C21.5,31,21.5,30.9,21.5,30.9C21.5,30.9,21.5,30.9,21.5,30.9z"/>
	<path class="st6" d="M21.4,30.9C21.4,30.9,21.5,30.9,21.4,30.9C21.4,30.9,21.5,30.9,21.4,30.9z"/>
	<path class="st6" d="M21.5,30.7C21.5,30.8,21.4,30.8,21.5,30.7L21.5,30.7z"/>
	<path class="st6" d="M21.5,30.7C21.4,30.7,21.4,30.7,21.5,30.7C21.5,30.7,21.5,30.7,21.5,30.7z"/>
	<path class="st6" d="M21.7,30.3c-0.1,0.4-0.1,0.6-0.3,0.9c-0.2,0.3-0.6,0.4-0.7,0.8c0.1-0.1,0.9-0.6,1-0.8
		C21.8,31,21.7,30.5,21.7,30.3z"/>
	<path class="st6" d="M22.1,31.8c-0.6-0.2,0.5,0.5,0.6,0.6c0.1-0.1,0.1-0.2,0.2-0.3C22.6,32.3,22.3,32,22.1,31.8z"/>
	<path class="st6" d="M22.7,32.1C22.6,32,22,31.7,22,31.7c0.2,0.2,0.6,0.6,1,0.5C22.9,32.2,22.9,32.2,22.7,32.1
		C22.5,32,22.9,32.2,22.7,32.1z"/>
	<path class="st7" d="M22.2,31.3c0.1-0.1,0-0.3,0.2-0.1c0-0.1,0-0.1,0-0.2c0,0,0.2-0.7-0.2-0.7C22.3,30.4,22.2,31,22.2,31.3z"/>
	<path class="st7" d="M21.9,31.7c0,0-0.1-0.1-0.1-0.1c-0.2,0.3-0.4,0.6-0.7,0.7c0,0,0,0,0,0c0.1,0.1,0.1,0.1,0.2,0.2
		C21.5,32.1,21.8,31.9,21.9,31.7z"/>
	<path class="st7" d="M22.3,30.9c0,0,0.1-0.1,0-0.2C22.3,30.8,22.3,30.9,22.3,30.9z"/>
	<path class="st7" d="M22.4,30.6C22.4,30.6,22.4,30.9,22.4,30.6C22.4,30.5,22.3,30.6,22.4,30.6z"/>
	<path class="st7" d="M22.4,30.7C22.4,30.7,22.4,30.7,22.4,30.7L22.4,30.7z"/>
	<path class="st7" d="M22.3,31C22.4,31,22.4,31,22.3,31L22.3,31z"/>
	<path class="st7" d="M22.4,30.7C22.3,30.7,22.4,30.7,22.4,30.7C22.4,30.7,22.4,30.7,22.4,30.7z"/>
	<path class="st7" d="M22.1,31c-0.1,0.6-0.9,0.7-1,1.2c0.3-0.1,0.5-0.4,0.7-0.7c0.4,0.5,0.4-1,0.4-1.3c0,0,0,0-0.1,0
		C22.1,30.5,22.1,30.8,22.1,31C22.1,31.3,22.2,30.7,22.1,31z"/>
	<path class="st7" d="M21.9,31.7c0,0-0.1,0.1-0.1,0.1C21.9,31.9,21.9,31.7,21.9,31.7z"/>
	<path class="st7" d="M22,31.7C22,31.6,22,31.6,22,31.7C22,31.7,22,31.7,22,31.7C22,31.7,22,31.7,22,31.7z"/>
	<polygon class="st7" points="23.2,32.1 23.2,32.1 23.2,32.1 	"/>
	<path class="st7" d="M22.3,31.4c0.3,0.2,0.9,0.4,0.8,0.7c0.1-0.1,0.4,0,0.4,0c-0.4-0.4-0.9-0.5-1.3-1
		C22.2,31.3,22.2,31.3,22.3,31.4z"/>
	<path class="st7" d="M22.3,31.4c-0.2,0.2,0.7,0.5,0.8,0.7C23.2,31.7,22.6,31.5,22.3,31.4z"/>
	<path class="st7" d="M22.2,31.3c0,0,0.1,0.1,0.1,0.1c0.1-0.1,0.1-0.2,0-0.3C22.2,31.1,22.2,31.2,22.2,31.3z"/>
	<path class="st7" d="M22.2,31.3L22.2,31.3c0.1,0.1-0.2-0.2,0.1,0.2C22.4,31.2,22.2,31.4,22.2,31.3z"/>
	<g>
		<path class="st8" d="M20,28c0-0.3-0.8-0.4-1-0.8c-0.1-0.2,0-0.5-0.1-0.7c-0.2-0.2-0.5,0-0.5,0.2c0,0.3,0.6,0.5,0,0.6
			c-0.3,0-1-0.4-1.3-0.6c-0.3-0.2-0.6-0.5-0.9-0.6c-0.6-0.1-0.6,0.4-0.1,0.7c0.4,0.2,0.8,0,1.1,0.4c0.2,0.2,0.4,0.5,0,0.5
			c-0.3-0.2-0.6,0.2-0.4,0.4c0.2,0.2,0.6,0,0.4-0.3c0.2,0.2,2.2,0.2,1.6,0.9c-0.1,0.1-1.6,0.2-0.8,0.6c0.3,0.2,0.5-0.1,0.7-0.2
			c0.3-0.1,0.7-0.1,1,0c0-0.2,0.2-0.4,0.2-0.5C20,28.6,19.7,28.4,20,28z"/>
		<path class="st8" d="M23.4,29.6c-0.2,0.5-2.7,0.3-2.9-0.1c-0.1,0-0.2,0.1-0.3,0.1c0.7,0.7,2.8,0.7,3.5,0
			C23.6,29.7,23.5,29.7,23.4,29.6C23.4,29.6,23.5,29.6,23.4,29.6z"/>
		<path class="st8" d="M26.7,27.7c-0.2-0.3-0.9,0.1-1.1,0.2C25.3,28,24.1,27.9,24,28c-0.1,0.2-0.1,0.5,0,0.7c0,0.1-0.1,0.2-0.1,0.2
			c0,0.2,0.3,0.3,0.1,0.6c0.4-0.3,1-0.3,1.3-0.5c0.2,0.5,0.9-0.2,0.2-0.4c-0.3-0.1-0.1,0.3-0.4,0.2c-0.2-0.1-0.2-0.2-0.2-0.3
			c0.1-0.2,0.9-0.3,1-0.3C25.9,28.2,27,28.2,26.7,27.7C26.6,27.6,26.8,27.9,26.7,27.7z"/>
	</g>
	<path class="st9" d="M20.1,27.7C20.2,27.8,20.1,27.8,20.1,27.7C20.1,27.7,20.1,27.8,20.1,27.7z"/>
	<path class="st9" d="M20.6,27.6C20.6,27.6,20.6,27.6,20.6,27.6L20.6,27.6z"/>
	<path class="st9" d="M23.4,29.3C23.4,29.3,23.4,29.3,23.4,29.3C23.4,29.3,23.4,29.3,23.4,29.3z"/>
	<path class="st9" d="M20.3,27.8C20.3,27.8,20.3,27.8,20.3,27.8c0,0-0.1,0-0.1,0C20.2,27.8,20.3,27.8,20.3,27.8z"/>
	<path class="st9" d="M23.9,29.5c-0.1,0-0.1,0.1-0.2,0.1C23.8,29.6,23.9,29.6,23.9,29.5z"/>
	<path class="st10" d="M22.9,29.7c0,0-0.8,0-0.9,0c-0.5,0-1.1,0.1-1.5-0.2c-0.2,0.2,1.1,0.3,1.2,0.3c0.3,0,1.6,0.2,1.7-0.2
		C23.3,29.5,23,29.8,22.9,29.7z"/>
	<path class="st10" d="M22.4,29.6c0.1,0.1,0.3,0.1,0.5,0C22.7,29.6,22.5,29.6,22.4,29.6C22.4,29.7,22.5,29.6,22.4,29.6z"/>
	<path class="st10" d="M22.2,29.6c-0.1,0-0.3,0-0.4,0c0.1,0.1,0.1,0.1,0.1,0.1c0.2,0,0.4,0,0.6,0C22.4,29.7,22.2,29.6,22.2,29.6z"/>
	<path class="st10" d="M22.2,29.6c0,0,0.2,0.1,0.2,0.1C22.4,29.6,22.3,29.6,22.2,29.6z"/>
	<path class="st10" d="M21.6,29.6c-0.4,0-1,0.1-1.1-0.4c0,0.6,0.9,0.5,1.4,0.5C21.8,29.7,21.7,29.6,21.6,29.6z"/>
	<path class="st10" d="M21.8,29.6c-0.1,0-0.1,0-0.2,0C21.6,29.6,21.8,29.7,21.8,29.6C21.8,29.7,21.8,29.6,21.8,29.6
		C21.7,29.6,21.8,29.7,21.8,29.6z"/>
	<path class="st10" d="M22.9,29.7c0.1,0.1,0.5-0.1,0.5-0.1c-0.1-0.2,0-0.2,0.1-0.4C23.4,29.2,22.9,29.7,22.9,29.7z"/>
	<path class="st10" d="M22.9,29.7C22.8,29.5,22.8,29.6,22.9,29.7C22.9,29.7,22.8,29.6,22.9,29.7z"/>
	<path class="st10" d="M20.5,29.5L20.5,29.5C20.5,29.5,20.5,29.5,20.5,29.5z"/>
	<path class="st10" d="M20.5,29.4C20.5,29.3,20.5,29.3,20.5,29.4C20.5,29.3,20.5,29.6,20.5,29.4z"/>
	<path class="st10" d="M23.4,29.6C23.4,29.5,23.3,29.5,23.4,29.6C23.4,29.6,23.4,29.6,23.4,29.6z"/>
	<path class="st10" d="M23.4,29.3L23.4,29.3C23.4,29.2,23.4,29.2,23.4,29.3z"/>
	<path class="st10" d="M23.4,29.3c0,0.1,0,0.1,0,0.2C23.4,29.6,23.4,29.4,23.4,29.3z"/>
	<g>
		<path class="st10" d="M23.4,27.6c0.1-0.1,0.2-0.1,0.3-0.1C23.5,27.5,23.4,27.5,23.4,27.6z"/>
		<path class="st10" d="M23.8,29c0.2-0.2,0.1-0.4,0.1-0.7c0-0.1,0.1-0.3,0.1-0.4c0,0.5-0.3-0.1-0.2-0.1c0,0-0.4-0.1-0.4-0.1
			c0,0-0.2,0-0.2-0.1c-0.1,0.3,0,0.6-0.2,0.8c-0.2,0.3-0.7,0.2-0.5,0.7c-0.1-0.3-0.1-0.4-0.2-0.7C22.2,28.2,22,28.1,22,28
			c-0.1-0.3,0.1-0.5-0.2-0.5c-0.2,0-0.4,0.2-0.6,0.2c-0.1,0-0.2,0.2-0.3,0.1c-0.2-0.1,0-0.2-0.1-0.3c-0.9-0.6-0.8,0.6-0.8,1.2
			c0,0.1,0.2,0.2,0.2,0.2c0,0.1-0.2,0.1-0.2,0.2c0,0.2-0.1,0.5,0.3,0.5c0.3,0,0.4-0.2,0.3-0.4c0.2,0.4,0.6,0.3,0.8,0.7
			c0.2-0.2,1.3-0.7,1.3-0.2c0.3-0.2,0.6-0.4,0.9-0.6C22.8,29.9,24.8,29.6,23.8,29z M20.3,28.2c0.2-0.4,0-0.3-0.2-0.5
			C20.1,28,21,27.7,20.3,28.2C20.6,27.8,20.5,28,20.3,28.2z M20.6,28.1C20.6,28.2,20.6,28.2,20.6,28.1
			C20.6,28.1,20.6,28.1,20.6,28.1z"/>
	</g>
	<path class="st11" d="M22.4,26.1C22.4,26,22.4,26,22.4,26.1C22.4,26,22.4,26.1,22.4,26.1z"/>
	<path class="st11" d="M22.4,25.8C22.4,25.8,22.5,25.8,22.4,25.8C22.5,25.8,22.4,25.8,22.4,25.8z"/>
	<path class="st11" d="M22.2,26.2C22.2,26.2,22.3,26.2,22.2,26.2c0.1-0.1,0.1-0.1,0.1-0.2C22.3,26.1,22.3,26.2,22.2,26.2z"/>
	<path class="st11" d="M22.4,25.9C22.4,26,22.4,26,22.4,25.9C22.4,26,22.4,26,22.4,25.9z"/>
	<path class="st12" d="M21.8,25.4C21.8,25.4,21.8,25.4,21.8,25.4C21.8,25.4,21.9,25.4,21.8,25.4L21.8,25.4L21.8,25.4z"/>
	<path class="st12" d="M22.1,26.5C22.1,26.5,22.1,26.4,22.1,26.5L22.1,26.5z"/>
	<path class="st13" d="M22.4,26C22.4,26,22.4,26,22.4,26C22.4,26,22.4,26,22.4,26z"/>
	<path class="st12" d="M19.5,26.6l0.1,0C19.6,26.6,19.5,26.5,19.5,26.6L19.5,26.6z"/>
	<path class="st12" d="M19.3,26.3c0.1,0.1,0.2,0.3,0.3,0.3C19.5,26.5,19.4,26.4,19.3,26.3C19.4,26.4,19.4,26.3,19.3,26.3z"/>
	<path class="st12" d="M21.8,25.4c-0.1-0.1-0.2-0.1-0.4-0.2C21.6,25.3,21.7,25.4,21.8,25.4z"/>
	<path class="st14" d="M22.5,26.2C22.5,26.2,22.5,26.2,22.5,26.2C22.5,26.2,22.5,26.2,22.5,26.2z"/>
	<path class="st14" d="M22.6,26.3C22.6,26.3,22.6,26.3,22.6,26.3C22.6,26.3,22.6,26.3,22.6,26.3z"/>
	<path class="st14" d="M22.3,26.3C22.3,26.3,22.3,26.3,22.3,26.3L22.3,26.3z"/>
	<path class="st14" d="M22.3,26.3L22.3,26.3C22.3,26.3,22.3,26.3,22.3,26.3c0.1,0,0.2-0.1,0.2-0.1C22.4,26.2,22.3,26.2,22.3,26.3z"
		/>
	<path class="st14" d="M22.3,26.3c-0.1,0-0.2,0.1-0.2,0.2C22.2,26.4,22.3,26.3,22.3,26.3z"/>
	<path class="st14" d="M22.3,26.3C22.3,26.3,22.3,26.3,22.3,26.3L22.3,26.3z"/>
	<path class="st14" d="M22.4,26.1L22.4,26.1C22.4,26.1,22.4,26.1,22.4,26.1z"/>
	<path class="st14" d="M22.2,26.3C22.2,26.3,22.2,26.3,22.2,26.3C22.2,26.3,22.2,26.2,22.2,26.3C22.2,26.2,22.2,26.2,22.2,26.3z"/>
	<path class="st14" d="M22.1,26.4L22.1,26.4C22.2,26.3,22.2,26.4,22.1,26.4z"/>
	<path class="st12" d="M24,25.4C24,25.4,23.9,25.4,24,25.4C24,25.4,24,25.4,24,25.4z"/>
	<path class="st12" d="M24.3,25.4c0.1,0,0.2,0.1,0.3,0.1C24.6,25.4,24.4,25.4,24.3,25.4z"/>
	<path class="st12" d="M22.7,26.4C22.7,26.4,22.7,26.4,22.7,26.4C22.7,26.4,22.7,26.4,22.7,26.4C22.7,26.4,22.7,26.4,22.7,26.4z"/>
	<path class="st12" d="M22.7,26.4C22.7,26.4,22.7,26.4,22.7,26.4C22.7,26.4,22.7,26.4,22.7,26.4z"/>
	<path class="st12" d="M22.8,26.4C22.8,26.4,22.7,26.4,22.8,26.4L22.8,26.4z"/>
	<path class="st3" d="M18.5,23.3L18.5,23.3C18.5,23.3,18.5,23.3,18.5,23.3z"/>
	<polygon class="st3" points="18.6,23.3 18.6,23.3 18.7,23.3 	"/>
	<polygon class="st3" points="18.5,23.4 18.5,23.4 18.5,23.4 	"/>
	<path class="st15" d="M18.7,23.3C18.7,23.3,18.7,23.3,18.7,23.3C18.7,23.3,18.7,23.3,18.7,23.3z"/>
	<path class="st15" d="M18.6,23.3C18.6,23.3,18.6,23.3,18.6,23.3C18.6,23.3,18.6,23.3,18.6,23.3L18.6,23.3z"/>
	<path class="st15" d="M18.5,23.4L18.5,23.4C18.5,23.4,18.5,23.3,18.5,23.4L18.5,23.4z"/>
	<path class="st16" d="M28.3,25C28.4,25,28.4,25,28.3,25L28.3,25z"/>
	<g>
		<path class="st17" d="M22.1,26.5c0,0,0.2-0.4,0.1-0.2c0-0.1,0.1-0.1,0.1-0.2C22.3,26.2,22.2,26.3,22.1,26.5
			c0.1-0.1,0.1-0.1,0.2-0.2c0.1-0.1,0.2-0.3,0.1-0.2c0-0.2,0.2-0.4,0.3-0.5c-0.2,0-0.7-0.3-0.6,0.2c0,0,0,0,0,0c0,0,0,0,0,0
			c-0.1-0.1-0.2-0.3-0.3-0.3c0,0,0.1,0,0.1,0c-0.1-0.1-0.3-0.1-0.4-0.2c0.1,0.1,0.3,0.2,0.4,0.2c0,0,0,0,0,0
			c-0.3-0.1-0.5-0.3-0.6-0.6c0,0.1,0,0.2,0,0.3c-0.1-0.1-0.2-0.2-0.3-0.3c0,0.1,0,0.2,0.1,0.3c-0.4-0.1-0.8-0.1-1-0.5
			c0,0,0,0.1,0.1,0.2c-0.1-0.1-0.2-0.2-0.2-0.2c0.1,0.1,0.1,0.2,0.2,0.3c-0.3,0.1-0.4,0.3-0.7,0c0.1,0.1,0.1,0.2,0.2,0.3
			c-0.1,0.1-0.2,0.2-0.2,0.3c-0.1-0.2-0.4-0.3-0.5-0.5c-0.2-0.2,0-0.4-0.2-0.7c0.2,0.2,0.3-0.1,0.3-0.2c0,0-0.2-0.2-0.2-0.2
			c0,0.2,0,0-0.1,0.1c0-0.1-0.2-0.3,0-0.3c0,0,0.2-0.4-0.2-0.2c0,0-0.1,0.4-0.1,0.4c-0.3-0.5-0.5,0.2-0.2,0.3
			c-0.2,0.3-0.1,0.5-0.6,0.3c-0.1,0-0.2-0.1-0.3-0.2c0,0.1,0,0.2,0.1,0.2c-0.2,0-0.4,0.1-0.5,0.3c0-0.2-0.1-0.5-0.2-0.7
			c0.1,0,0.1-0.1,0.1-0.2c-0.2,0.2-1-0.7-1-1c0,0.1,0,0.2,0,0.3c-0.2-0.1-0.3-0.1-0.5-0.1c0-0.5-0.6-0.6-0.6-0.8
			c0.3,0.5,0.3-0.4,0.3-0.4c0,0-0.3,0-0.3,0.1c0.1,0.2,0-0.1,0,0.1c-0.1,0-0.4-0.3-0.3-0.5c0.1-0.1-0.1-0.3-0.2-0.3
			c-0.2,0-0.1,0.2-0.1,0.3c0,0,0.3,0.7,0.2,0.5c0.1,0.1,0,0,0.1,0.2c-0.1,0-0.1-0.1-0.2-0.1c-0.3-0.1-0.1,0.8,0.2,0.5
			c0,0.5,0.4,0.6,0.4,0.9c0,0.1,0,0.1,0,0.2c0,0,0,0,0,0c0,0.1,0,0.1,0,0.2c-0.1,0-0.1,0-0.2,0c0.3,0.1,0.4,0.6,0.7,0.8
			c-0.1,0-0.2,0-0.3,0c0.2,0.1,0.6,0.3,0.9,0.4c0,0.1-0.1,0.2-0.2,0.2c0.2-0.1,0.8-0.4,0.9,0c0,0,0,0,0,0c0,0.2,0.1,0.3,0.3,0.4
			c-0.1,0-0.2,0.1-0.2,0.2c0.4-0.2,0.7,0.1,1.1,0.1c0,0.1-0.1,0.1-0.1,0.2c0,0,0.2-0.2,0.3-0.2c-0.1,0.1-0.1,0.2-0.1,0.3
			c0.3-0.4,1-0.1,1.5-0.5c0,0.4,0.3,0.6,0.6,0.8c0,0.1-0.1,0.1-0.2,0.1c0.3-0.1,0.6,0,1,0.1c0,0.1-0.1,0.1-0.1,0.2
			c0.3-0.2,0.5-0.1,0.9-0.2c0,0.1-0.1,0.1-0.1,0.2c0,0,0.2-0.2,0.3-0.2c0,0.1,0,0.2,0,0.2C21.6,26.7,22,26.8,22.1,26.5
			C22.1,26.5,22.1,26.5,22.1,26.5z M15.9,23.6C15.9,23.6,15.9,23.6,15.9,23.6L15.9,23.6z M19.5,26.6L19.5,26.6c0,0,0,0,0.1,0
			L19.5,26.6z M19.5,26.5c-0.1-0.1-0.1-0.1-0.2-0.2c0.1,0.1,0.2,0.2,0.3,0.3C19.6,26.5,19.5,26.5,19.5,26.5z"/>
		<path class="st17" d="M29,24.6c-0.3-0.3-0.5,0.5-0.8,0.5c0,0-0.1-0.4-0.2-0.3c0,0.1-0.4,0.3,0,0.4c-0.2,0-0.5,0.4-0.5,0.4
			c-0.2,0-0.3-0.3-0.5-0.3c0-0.1,0.1-0.2,0.1-0.2c-0.3,0.1-0.5,0.5-0.8,0.7c0-0.1,0-0.2,0.1-0.3c-0.3,0.5-0.4,0.9-1.1,0.9
			c0.1-0.2,0.1-0.5,0-0.6c-0.4,0.1-0.7-0.4-1.3-0.3c-0.3,0-0.4,0.1-0.6,0.3c-0.2,0.1-0.6,0.4-0.5,0.7c-0.1-0.1-0.2-0.1-0.3-0.3
			c-0.4,0.4-0.7,1.3-0.4,1.9c0.1,0.3,0.7,0.5,1,0.3c0.4-0.3,0.1-0.9,0.8-1.2c0.7-0.3,1.3-0.3,1.8,0.3c-0.1-0.1-0.1-0.2-0.1-0.3
			c0.7,0.2,1.3,0,1.8,0.2c-0.1-0.1-0.2,0-0.3-0.2c-0.1,0,0.4,0.1,0.4,0.1c-0.1,0-0.2-0.1-0.3-0.1c0.4-0.2,0.6-0.5,1-0.5
			c-0.1,0-0.2,0-0.3,0c0-0.4-0.1-0.4,0.2-0.7c0.2-0.2,0.3-0.4,0.5-0.3c0,0,0-0.3,0-0.2c-0.1,0.1,0,0-0.1,0c0.1-0.1,0.2-0.4,0.3-0.5
			c0,0,0,0,0.1,0C28.9,24.9,29.1,24.7,29,24.6z M28.3,25C28.4,25,28.4,25,28.3,25L28.3,25z"/>
	</g>
	<path class="st18" d="M17.2,22.5c0,0.1,0,0.1,0.2,0C17.4,22.5,17.2,22.5,17.2,22.5C17.2,22.5,17.2,22.5,17.2,22.5z"/>
	<path class="st1" d="M17.1,22.5C17.1,22.5,17.1,22.5,17.1,22.5C17.1,22.5,17.1,22.5,17.1,22.5z"/>
	<path class="st1" d="M17.2,22.5C17.2,22.5,17.2,22.5,17.2,22.5C17.2,22.5,17.2,22.5,17.2,22.5z"/>
	<path class="st18" d="M16.7,16.3C16.7,16.3,16.7,16.3,16.7,16.3C16.7,16.3,16.7,16.3,16.7,16.3z"/>
	<path class="st18" d="M17.7,23.1c-0.1,0.1-0.2,0.1-0.2,0.2C17.5,23.3,17.8,23.2,17.7,23.1C17.7,23.2,17.7,23.1,17.7,23.1z"/>
	<path class="st18" d="M17.5,23.3c0.2,0,0.2-0.1,0.2-0.1C17.7,23.2,17.6,23.2,17.5,23.3C17.6,23.2,17.6,23.2,17.5,23.3z"/>
	<path class="st18" d="M17.2,22.5C17.3,22.5,17.3,22.5,17.2,22.5C17.3,22.5,17.1,22.5,17.2,22.5z"/>
	<path class="st18" d="M17.1,22.5C17.1,22.5,17.1,22.5,17.1,22.5C17.1,22.5,17.1,22.5,17.1,22.5z"/>
	<path class="st18" d="M17.1,22.5C17.1,22.5,17.1,22.5,17.1,22.5C17.1,22.5,17.1,22.5,17.1,22.5z"/>
	<path class="st18" d="M17.1,22.5C17.1,22.5,17.1,22.5,17.1,22.5C17.1,22.5,17.1,22.5,17.1,22.5z"/>
	<path class="st18" d="M17.2,22.5C17.2,22.5,17.2,22.5,17.2,22.5C17.2,22.5,17.2,22.5,17.2,22.5z"/>
	<path class="st19" d="M18.8,22C18.8,22,18.8,22,18.8,22c0,0-0.1-0.1-0.2-0.1C18.6,22,18.6,21.9,18.8,22z"/>
	<path class="st20" d="M18.2,17.5C18.2,17.5,18.1,17.5,18.2,17.5C18.2,17.5,18.2,17.5,18.2,17.5z"/>
	<path class="st1" d="M18.8,21.9L18.8,21.9C18.8,21.9,18.8,21.9,18.8,21.9z"/>
	<path class="st1" d="M18.6,21.8C18.6,21.8,18.6,21.8,18.6,21.8C18.6,21.8,18.6,21.8,18.6,21.8z"/>
	<path class="st21" d="M19.5,21.8C19.5,21.8,19.5,21.8,19.5,21.8C19.5,21.8,19.5,21.8,19.5,21.8z"/>
	<path class="st21" d="M18.8,22C18.8,22,18.8,22.2,18.8,22C18.8,22,18.8,22,18.8,22z"/>
	<path class="st21" d="M18.8,22C18.8,22,18.8,22,18.8,22C18.8,22,18.8,22,18.8,22z"/>
	<path class="st21" d="M18.8,21.9C18.8,21.9,18.8,21.9,18.8,21.9C18.8,21.9,18.8,21.9,18.8,21.9z"/>
	<path class="st20" d="M18.8,22C18.8,22,18.8,21.9,18.8,22C18.8,22,18.8,22,18.8,22z"/>
	<path class="st20" d="M18.8,22C18.8,22,18.8,22,18.8,22L18.8,22z"/>
	<path class="st20" d="M18.8,21.9C18.9,22,18.9,21.9,18.8,21.9C18.8,21.9,18.8,21.9,18.8,21.9z"/>
	<path class="st20" d="M18.9,21.9C18.8,21.9,18.8,21.9,18.9,21.9L18.9,21.9z"/>
	<path class="st20" d="M18.9,21.9C18.8,21.9,18.8,22,18.9,21.9C18.8,21.9,18.8,22,18.9,21.9z"/>
	<path class="st22" d="M19.5,22.2c0,0,0,0.1,0,0.1C19.5,22.3,19.5,22.2,19.5,22.2z"/>
	<path class="st22" d="M19.5,22.2c0-0.1-0.1-0.1-0.1-0.1C19.4,22.1,19.5,22.1,19.5,22.2z"/>
	<path class="st22" d="M19.4,22.4C19.4,22.4,19.5,22.3,19.4,22.4C19.4,22.3,19.4,22.4,19.4,22.4z"/>
	<path class="st22" d="M19.2,22.3C19.2,22.2,19.2,22.3,19.2,22.3C19.2,22.3,19.2,22.3,19.2,22.3z"/>
	<path class="st23" d="M19.5,22.2c0-0.1,0-0.1-0.1-0.2c0,0.2,0,0.3-0.1,0.4C19.4,22.3,19.5,22.3,19.5,22.2z"/>
	<path class="st19" d="M17.2,16.4C17.2,16.4,17.1,16.4,17.2,16.4C17.1,16.4,17.2,16.4,17.2,16.4z"/>
	<path class="st18" d="M16.8,16.3L16.8,16.3C16.8,16.3,16.8,16.3,16.8,16.3z"/>
	<path class="st24" d="M19.5,21.7C19.5,21.7,19.5,21.7,19.5,21.7C19.5,21.7,19.5,21.7,19.5,21.7z"/>
	<path class="st24" d="M19.5,22.2C19.5,22.2,19.5,22.3,19.5,22.2c0,0,0-0.1-0.1-0.2C19.4,22,19.4,22.1,19.5,22.2z"/>
	<path class="st24" d="M19.5,22.2L19.5,22.2C19.5,22.2,19.5,22.2,19.5,22.2L19.5,22.2z"/>
	<path class="st24" d="M19.9,22.7C19.8,22.8,19.8,22.6,19.9,22.7C20,22.8,19.9,22.8,19.9,22.7z"/>
	<polygon class="st24" points="19.5,22.3 19.5,22.3 19.5,22.3 	"/>
	<path class="st24" d="M19.7,22.8C19.9,22.8,19.8,22.8,19.7,22.8L19.7,22.8z"/>
	<path class="st24" d="M19.5,22.4C19.5,22.3,19.5,22.3,19.5,22.4C19.5,22.4,19.5,22.4,19.5,22.4z"/>
	<path class="st24" d="M19.4,22.7c-0.1,0-0.1,0-0.1,0.1C19.4,22.7,19.4,22.7,19.4,22.7C19.4,22.7,19.4,22.7,19.4,22.7z"/>
	<path class="st24" d="M19.3,22.7C19.4,22.7,19.4,22.6,19.3,22.7C19.3,22.7,19.3,22.7,19.3,22.7z"/>
	<path class="st25" d="M17.7,23.1C17.7,23.1,17.7,23.1,17.7,23.1C17.7,23.1,17.7,23.1,17.7,23.1z"/>
	<path class="st25" d="M17.7,23.1C17.7,23.1,17.7,23.1,17.7,23.1C17.7,23.1,17.7,23.1,17.7,23.1C17.7,23.1,17.7,23.1,17.7,23.1z"/>
	<path class="st26" d="M17.7,23.1L17.7,23.1C17.7,23.1,17.7,23.1,17.7,23.1z"/>
	<path class="st26" d="M17.7,23.1C17.7,23.1,17.7,23.1,17.7,23.1C17.7,23.1,17.7,23.1,17.7,23.1z"/>
	<path class="st26" d="M17.7,23.1C17.7,23.1,17.7,23.1,17.7,23.1C17.7,23.1,17.7,23.1,17.7,23.1z"/>
	<path class="st26" d="M17.7,23.1C17.7,23.1,17.8,23.2,17.7,23.1C17.7,23.1,17.7,23.1,17.7,23.1z"/>
	<path class="st26" d="M17.7,23.1C17.7,23.1,17.7,23.1,17.7,23.1C17.7,23.1,17.7,23.1,17.7,23.1z"/>
	<path class="st26" d="M17.7,23.1C17.7,23.1,17.7,23.1,17.7,23.1C17.7,23.1,17.7,23.1,17.7,23.1z"/>
	<path class="st26" d="M17.7,23.1C17.7,23.1,17.7,23.1,17.7,23.1C17.7,23.1,17.7,23.1,17.7,23.1z"/>
	<path class="st26" d="M17.7,23.1C17.7,23.1,17.7,23.1,17.7,23.1C17.7,23.1,17.7,23.1,17.7,23.1z"/>
	<path class="st26" d="M17.7,23.1C17.7,23.1,17.7,23.1,17.7,23.1C17.7,23.1,17.7,23.1,17.7,23.1z"/>
	<path class="st26" d="M17.7,23.1C17.7,23.1,17.7,23.1,17.7,23.1C17.7,23.1,17.7,23.1,17.7,23.1z"/>
	<path class="st26" d="M17.7,23.1C17.7,23.1,17.7,23.1,17.7,23.1C17.7,23.1,17.7,23.1,17.7,23.1z"/>
	<path class="st26" d="M17.7,23.1C17.7,23.1,17.7,23.1,17.7,23.1C17.7,23.1,17.7,23.1,17.7,23.1C17.7,23.1,17.7,23.1,17.7,23.1z"/>
	<path class="st26" d="M17.8,23C17.8,23,17.8,23,17.8,23C17.8,23,17.8,23,17.8,23C17.8,23,17.7,22.9,17.8,23
		C17.9,23,17.8,23,17.8,23C17.8,23,17.8,23,17.8,23z"/>
	<path class="st26" d="M17.8,23L17.8,23C17.8,23,17.8,23,17.8,23z"/>
	<path class="st25" d="M18.5,22.8c-0.1-0.2,0-0.2-0.2-0.1c0.1,0,0.3,0.2,0.2,0.3C18.7,22.9,18.6,23,18.5,22.8z"/>
	<path class="st25" d="M18.6,22.9c-0.2-0.2-0.2-0.1-0.4-0.1C18.2,23,18.4,23,18.6,22.9z"/>
	<path class="st25" d="M18.6,22.9C18.6,22.9,18.6,22.9,18.6,22.9L18.6,22.9z"/>
	<path class="st25" d="M18.6,22.9C18.6,22.9,18.6,22.9,18.6,22.9C18.6,23,18.6,22.9,18.6,22.9c0.2,0-0.3-0.2-0.3-0.2
		C18.4,22.8,18.5,22.9,18.6,22.9z"/>
	<path class="st25" d="M18.6,22.9C18.6,22.9,18.6,22.9,18.6,22.9L18.6,22.9z"/>
	<path class="st25" d="M18.6,22.9L18.6,22.9C18.6,22.9,18.6,22.9,18.6,22.9z"/>
	<path class="st25" d="M18.6,22.9c0,0-0.2-0.2-0.3-0.2C18.4,22.8,18.5,22.9,18.6,22.9z"/>
	<path class="st25" d="M18.6,22.9C18.6,23,18.5,23,18.6,22.9C18.5,23,18.6,23,18.6,22.9z"/>
	<path class="st25" d="M18.6,22.9C18.6,22.9,18.6,22.9,18.6,22.9C18.6,22.9,18.6,22.9,18.6,22.9z"/>
	<path class="st26" d="M18.6,23c-0.1,0-0.1,0-0.2,0.1C18.6,23,18.7,22.9,18.6,23z"/>
	<path class="st26" d="M18.1,22.8c-0.1,0,0.1,0.1,0.1,0.2C18.2,22.9,18.2,22.9,18.1,22.8z"/>
	<path class="st26" d="M18.4,23C18.4,23,18.4,23,18.4,23L18.4,23C18.4,23,18.4,23,18.4,23C18.4,23,18.4,23,18.4,23z"/>
	<path class="st26" d="M18.3,23C18.3,23,18.3,23,18.3,23L18.3,23z"/>
	<path class="st26" d="M18.5,23C18.5,23,18.5,23,18.5,23C18.5,23,18.5,23,18.5,23L18.5,23z"/>
	<path class="st26" d="M18.4,23C18.4,23.1,18.5,23,18.4,23C18.5,23,18.5,23,18.4,23z"/>
	<path class="st26" d="M18.6,23L18.6,23C18.6,23,18.6,23,18.6,23z"/>
	<path class="st26" d="M18.6,23C18.7,23,18.7,23,18.6,23C18.6,23,18.6,23,18.6,23z"/>
	<path class="st26" d="M18.2,22.8c-0.1,0,0,0,0.1,0.1L18.2,22.8C18.2,22.8,18.2,22.9,18.2,22.8C18.2,22.9,18.2,22.8,18.2,22.8
		C18.2,22.8,18.2,22.8,18.2,22.8z"/>
	<polygon class="st26" points="18.5,23 18.5,23 18.5,23 	"/>
	<path class="st26" d="M18.4,23C18.4,23,18.4,23,18.4,23C18.4,23,18.4,23,18.4,23z"/>
	<path class="st26" d="M18.3,23C18.3,23,18.3,23,18.3,23C18.3,23,18.3,23,18.3,23z"/>
	<path class="st26" d="M18.5,23C18.5,23,18.5,23,18.5,23C18.3,23,18.9,22.9,18.5,23C18.5,23,18.6,23,18.5,23z"/>
	<path class="st26" d="M18.2,22.9c0.1,0.1,0.2,0.2,0.3,0.1C18.4,23,18.3,23,18.2,22.9C18.2,22.9,18.3,22.9,18.2,22.9z"/>
	<path class="st26" d="M18.5,23C18.5,23,18.5,23,18.5,23C18.5,23,18.5,23,18.5,23C18.5,23,18.5,23,18.5,23C18.5,23,18.5,23,18.5,23z
		"/>
	<path class="st26" d="M18.5,23C18.5,23,18.5,23,18.5,23C18.5,23,18.5,23,18.5,23C18.5,23,18.5,23,18.5,23C18.5,23,18.5,23,18.5,23z
		"/>
	<path class="st26" d="M18.6,23C18.6,23,18.6,23,18.6,23L18.6,23z"/>
	<path class="st26" d="M18.5,23c0,0,0.1,0,0.1,0C18.6,23,18.5,23,18.5,23z"/>
	<path class="st26" d="M18.3,23c0,0,0.2,0.1,0.2,0.1C18.4,23,18.3,23,18.3,23L18.3,23z"/>
	<path class="st26" d="M18.5,23L18.5,23C18.5,23,18.5,23,18.5,23z"/>
	<path class="st26" d="M18.5,23C18.5,23,18.5,23,18.5,23C18.5,23,18.5,23,18.5,23z"/>
	<path class="st26" d="M18.5,23C18.5,23,18.5,23,18.5,23C18.5,23,18.5,23,18.5,23C18.5,23,18.5,23,18.5,23z"/>
	<path class="st26" d="M18.5,23C18.5,23,18.5,23,18.5,23c0,0,0.1,0,0.1,0C18.6,23,18.6,23,18.5,23C18.5,23,18.6,23,18.5,23z"/>
	<path class="st26" d="M18.4,23c-0.1,0-0.2-0.1-0.3-0.2C18.2,22.9,18.4,23.1,18.4,23C18.5,23,18.5,23,18.4,23z"/>
	<path class="st26" d="M18.5,23C18.5,23,18.5,23,18.5,23C18.5,23,18.5,23,18.5,23C18.5,23,18.5,23,18.5,23z"/>
	<path class="st26" d="M18.5,23C18.5,23,18.5,23,18.5,23C18.5,23,18.5,23,18.5,23C18.5,23,18.5,23,18.5,23z"/>
	<path class="st26" d="M18.5,23c-0.1,0-0.1-0.1-0.2-0.1c-0.2-0.1,0.1-0.2-0.3,0c-0.1,0-0.2,0-0.1,0.1c0,0,0,0,0,0l0,0
		c-0.1-0.1-0.1,0.1-0.1,0.1c0,0,0,0,0,0C17.9,23.4,18.2,23.2,18.5,23C18.5,23,18.5,23,18.5,23z"/>
	<path class="st26" d="M17.7,23.1C17.7,23.1,17.7,23.1,17.7,23.1C17.7,23.1,17.7,23.1,17.7,23.1z"/>
	<path class="st26" d="M17.7,23.1C17.7,23.1,17.7,23.1,17.7,23.1L17.7,23.1z"/>
	<path class="st24" d="M18.8,22.4C18.8,22.4,18.8,22.4,18.8,22.4C18.8,22.4,18.8,22.4,18.8,22.4z"/>
	<path class="st24" d="M17.6,22.5c0-0.1-0.1-0.1-0.2,0C17.5,22.6,17.5,22.6,17.6,22.5z"/>
	<path class="st24" d="M17.4,22.5C17.4,22.5,17.4,22.5,17.4,22.5C17.4,22.5,17.4,22.5,17.4,22.5z"/>
	<path class="st24" d="M17.4,22.6c0-0.1,0.1-0.1,0-0.1C17.4,22.5,17.4,22.6,17.4,22.6C17.4,22.6,17.4,22.6,17.4,22.6z"/>
	<path class="st24" d="M17.4,22.5C17.4,22.5,17.4,22.5,17.4,22.5C17.4,22.5,17.4,22.5,17.4,22.5z"/>
	<path class="st24" d="M17.4,22.7C17.4,22.6,17.4,22.6,17.4,22.7C17.4,22.7,17.4,22.7,17.4,22.7z"/>
	<path class="st24" d="M17.4,22.7C17.4,22.6,17.4,22.6,17.4,22.7L17.4,22.7z"/>
	<path class="st24" d="M17.4,22.7c0,0,0,0.1,0,0.1C17.5,22.7,17.5,22.7,17.4,22.7z"/>
	<path class="st24" d="M17.4,22.6C17.4,22.6,17.4,22.7,17.4,22.6C17.4,22.7,17.4,22.7,17.4,22.6z"/>
	<path class="st24" d="M17.6,22.5C17.6,22.5,17.6,22.5,17.6,22.5C17.6,22.5,17.6,22.5,17.6,22.5z"/>
	<path class="st24" d="M17.4,22.6C17.4,22.6,17.4,22.6,17.4,22.6C17.5,22.5,17.4,22.6,17.4,22.6C17.4,22.6,17.4,22.6,17.4,22.6z"/>
	<path class="st24" d="M17.4,22.6C17.4,22.7,17.4,22.7,17.4,22.6L17.4,22.6z"/>
	<path class="st24" d="M17.7,23C17.7,23,17.7,23,17.7,23L17.7,23z"/>
	<path class="st24" d="M17.6,23c0,0,0.1,0.1,0.1,0.1C17.7,23.1,17.6,23.1,17.6,23z"/>
	<path class="st24" d="M17.6,23C17.5,22.9,17.6,23,17.6,23L17.6,23z"/>
	<path class="st24" d="M17.6,23C17.6,23,17.6,23.1,17.6,23C17.6,23,17.6,23,17.6,23z"/>
	<polygon class="st24" points="17.7,23 17.7,23 17.7,23 	"/>
	<path class="st24" d="M17.7,23L17.7,23C17.7,23,17.7,23,17.7,23z"/>
	<path class="st24" d="M17.7,23C17.7,23,17.7,23.2,17.7,23C17.7,23,17.7,23,17.7,23z"/>
	<path class="st24" d="M17.7,23C17.7,23,17.7,23,17.7,23L17.7,23z"/>
	<path class="st24" d="M17.7,23L17.7,23C17.7,23,17.7,23,17.7,23z"/>
	<path class="st24" d="M17.7,23.1C17.7,23.1,17.7,23.1,17.7,23.1C17.7,23.1,17.7,23.1,17.7,23.1z"/>
	<path class="st24" d="M17.7,23C17.7,23,17.7,23,17.7,23C17.7,23.1,17.7,23.1,17.7,23z"/>
	<path class="st24" d="M17.7,23C17.7,23,17.7,23,17.7,23C17.7,23,17.7,23,17.7,23z"/>
	<path class="st24" d="M17.6,22.5C17.6,22.5,17.6,22.5,17.6,22.5C17.6,22.5,17.6,22.5,17.6,22.5z"/>
	<path class="st24" d="M17.8,23C17.8,23,17.8,23,17.8,23C17.8,23,17.8,23,17.8,23z"/>
	<path class="st24" d="M17.8,22.9C17.8,22.9,17.9,22.9,17.8,22.9C17.8,22.9,17.8,22.9,17.8,22.9z"/>
	<path class="st24" d="M17.8,23C17.8,23,17.8,23,17.8,23C17.8,23,17.8,23,17.8,23z"/>
	<path class="st24" d="M17.8,22.9C18,22.9,17.8,22.9,17.8,22.9L17.8,22.9z"/>
	<path class="st24" d="M17.8,22.9C17.8,22.9,17.9,22.9,17.8,22.9C17.8,22.9,17.8,22.9,17.8,22.9z"/>
	<path class="st24" d="M18,22.8c0,0-0.1,0.1-0.1,0.1C18.1,22.9,18.2,22.9,18,22.8z"/>
	<path class="st24" d="M17.8,23c0,0.1,0,0,0.1,0C17.9,22.9,17.9,22.9,17.8,23z"/>
	<path class="st24" d="M17.9,22.9C18,22.9,18,22.9,17.9,22.9L17.9,22.9z"/>
	<path class="st24" d="M18,22.9C18,22.9,17.8,22.9,18,22.9C18,22.9,18,22.9,18,22.9z"/>
	<path class="st24" d="M17.9,22.9c0,0,0.1-0.1,0.2-0.1C18,22.7,17.9,22.9,17.9,22.9z"/>
	<path class="st24" d="M17.8,23C17.8,23,17.8,23,17.8,23C17.8,23,17.8,23,17.8,23z"/>
	<path class="st24" d="M17.8,22.9C17.8,22.9,17.8,22.9,17.8,22.9C17.9,22.9,17.9,22.9,17.8,22.9z"/>
	<path class="st24" d="M17.8,23C17.8,23,17.8,23,17.8,23C17.8,23,17.8,23,17.8,23z"/>
	<path class="st24" d="M17.9,22.9C17.9,22.9,17.9,22.9,17.9,22.9L17.9,22.9z"/>
	<path class="st24" d="M17.9,22.9C17.9,22.9,17.9,22.9,17.9,22.9L17.9,22.9z"/>
	<path class="st24" d="M17.9,22.9c0,0,0.1-0.1,0.1-0.1C18,22.7,17.9,22.9,17.9,22.9z"/>
	<path class="st24" d="M17.9,22.9C17.8,23,17.8,22.9,17.9,22.9L17.9,22.9z"/>
	<path class="st24" d="M17.8,23C17.8,23,17.8,23,17.8,23C17.8,23,17.8,23,17.8,23z"/>
	<path class="st24" d="M17.8,23C17.8,23,17.8,23,17.8,23C17.8,23,17.8,23,17.8,23z"/>
	<path class="st24" d="M17.8,23C17.8,23,17.8,23,17.8,23C17.8,23,17.8,23,17.8,23z"/>
	<path class="st24" d="M17.8,23C17.8,23,17.8,23,17.8,23C17.8,23,17.8,23,17.8,23z"/>
	<path class="st24" d="M17.9,22.9C17.9,22.9,17.9,22.9,17.9,22.9L17.9,22.9z"/>
	<path class="st24" d="M17.9,22.9C17.9,22.9,17.9,22.9,17.9,22.9L17.9,22.9z"/>
	<path class="st24" d="M18.1,22.8C18.1,22.8,18.1,22.8,18.1,22.8C18.1,22.8,18.1,22.8,18.1,22.8z"/>
	<path class="st24" d="M17.8,22.9C17.8,23,17.8,22.9,17.8,22.9C17.8,22.9,17.8,22.9,17.8,22.9z"/>
	<path class="st24" d="M17.8,23L17.8,23C17.8,23,17.8,23,17.8,23z"/>
	<path class="st24" d="M17.8,22.9C17.8,22.9,17.8,22.9,17.8,22.9C17.8,22.9,17.8,22.9,17.8,22.9z"/>
	<path class="st24" d="M17.8,22.9C17.8,23,17.8,22.9,17.8,22.9C17.8,22.9,17.8,22.9,17.8,22.9z"/>
	<polygon class="st24" points="17.8,23 17.8,23 17.8,23 	"/>
	<path class="st24" d="M17.8,22.9C17.8,22.9,17.8,22.9,17.8,22.9C17.8,22.9,17.8,22.9,17.8,22.9z"/>
	<path class="st24" d="M17.8,23C17.8,23,17.8,23,17.8,23L17.8,23z"/>
	<path class="st24" d="M17.8,23C17.9,22.9,17.8,23,17.8,23L17.8,23z"/>
	<path class="st24" d="M17.8,23C17.8,23,17.8,23,17.8,23C17.8,22.9,17.8,23,17.8,23z"/>
	<path class="st24" d="M17.8,23C17.8,23,17.8,23,17.8,23C17.8,23,17.8,23,17.8,23z"/>
	<path class="st24" d="M17.8,23C17.8,23,17.8,23,17.8,23L17.8,23L17.8,23z"/>
	<path class="st24" d="M17.8,23L17.8,23L17.8,23C17.8,23,17.8,23,17.8,23z"/>
	<path class="st24" d="M17.8,23C17.8,23,17.8,23,17.8,23L17.8,23z"/>
	<path class="st24" d="M18.2,21.9C18.2,21.9,18.2,21.9,18.2,21.9C18.2,21.9,18.2,21.9,18.2,21.9C18.2,21.9,18.2,21.9,18.2,21.9z"/>
	<path class="st24" d="M18.2,22.6c0,0.1-0.1,0,0,0.1C18.3,22.7,18.2,22.7,18.2,22.6z"/>
	<path class="st24" d="M18.2,22.6C18.2,22.6,18.2,22.7,18.2,22.6L18.2,22.6z"/>
	<path class="st24" d="M18.2,22.7c0,0-0.2-0.1-0.1,0C18.2,22.6,18.2,22.7,18.2,22.7z"/>
	<path class="st24" d="M18.3,22.7c0.1,0,0,0.3,0.2,0C18.3,22.6,18.4,22.6,18.3,22.7z"/>
	<path class="st24" d="M18.2,22.8c0,0.1,0.1,0,0.2-0.1c0,0,0,0-0.1-0.1C18.2,22.7,18.2,22.8,18.2,22.8z"/>
	<path class="st24" d="M18.3,22.7C18.4,22.7,18.3,22.7,18.3,22.7L18.3,22.7z"/>
	<path class="st24" d="M18.3,22.7C18.3,22.7,18.2,22.6,18.3,22.7C18.3,22.7,18.3,22.7,18.3,22.7z"/>
	<path class="st24" d="M18.1,22.8C18.1,22.8,18.1,22.8,18.1,22.8C18.1,22.8,18.1,22.8,18.1,22.8z"/>
	<path class="st24" d="M18.1,22.8c0,0,0.1-0.1,0.1-0.1C18.2,22.7,18.2,22.7,18.1,22.8z"/>
	<path class="st24" d="M18.3,22.7C18.3,22.7,18.3,22.7,18.3,22.7L18.3,22.7z"/>
	<path class="st24" d="M18.2,22.7C18.3,22.7,18.3,22.7,18.2,22.7L18.2,22.7z"/>
	<path class="st24" d="M18.3,22.7C18.4,22.6,18.3,22.6,18.3,22.7L18.3,22.7z"/>
	<path class="st24" d="M18.2,22.8C18.2,22.8,18.2,22.8,18.2,22.8C18.1,22.8,18.2,22.8,18.2,22.8L18.2,22.8z"/>
	<path class="st24" d="M18.2,22.8c0,0,0.1-0.1,0.1-0.1C18.2,22.7,18.1,22.8,18.2,22.8z"/>
	<path class="st24" d="M18.3,22.7C18.3,22.7,18.3,22.7,18.3,22.7L18.3,22.7z"/>
	<path class="st24" d="M18.2,22.7C18.3,22.7,18.3,22.7,18.2,22.7L18.2,22.7z"/>
	<path class="st24" d="M18.1,22.8C18.1,22.7,18.1,22.8,18.1,22.8C18.1,22.8,18.1,22.8,18.1,22.8z"/>
	<path class="st24" d="M18.1,22.7C18,22.8,18.1,22.7,18.1,22.7C18.1,22.7,18.1,22.7,18.1,22.7z"/>
	<path class="st24" d="M18.2,22.8C18.2,22.8,18.1,22.8,18.2,22.8C18.2,22.8,18.2,22.8,18.2,22.8z"/>
	<path class="st24" d="M18.1,22.8C18.1,22.8,18.1,22.8,18.1,22.8C18.1,22.8,18.1,22.8,18.1,22.8z"/>
	<path class="st24" d="M18.1,22.8C18.1,22.8,18.1,22.8,18.1,22.8L18.1,22.8z"/>
	<path class="st24" d="M18.1,22.8C18.2,22.8,18.2,22.8,18.1,22.8L18.1,22.8z"/>
	<path class="st24" d="M18.1,22.8C18.1,22.8,18.1,22.8,18.1,22.8C18.1,22.8,18.2,22.8,18.1,22.8z"/>
	<path class="st24" d="M18.2,22.8C18.2,22.8,18.2,22.8,18.2,22.8L18.2,22.8z"/>
	<path class="st24" d="M18.1,22.8C18.1,22.8,18.1,22.8,18.1,22.8C18.1,22.8,18.1,22.8,18.1,22.8z"/>
	<path class="st24" d="M18.8,22c0,0-0.1,0-0.1,0c0,0,0.1,0.1,0.1,0.1C18.8,22.1,18.8,22,18.8,22z"/>
	<path class="st24" d="M18.9,22.2c0-0.1,0-0.1-0.1-0.2c0,0.1,0,0.3,0,0.3C18.9,22.3,18.9,22.3,18.9,22.2z"/>
	<path class="st24" d="M18.8,22L18.8,22C18.8,22.1,18.8,22.1,18.8,22z"/>
	<path class="st24" d="M18.4,22.6C18.4,22.6,18.4,22.6,18.4,22.6C18.4,22.6,18.4,22.6,18.4,22.6C18.4,22.6,18.4,22.6,18.4,22.6z"/>
	<path class="st24" d="M18.8,22.4C18.8,22.3,18.8,22.4,18.8,22.4C18.8,22.4,18.8,22.4,18.8,22.4z"/>
	<path class="st24" d="M18.8,22.4C18.8,22.4,18.8,22.5,18.8,22.4C18.8,22.4,18.8,22.4,18.8,22.4z"/>
	<path class="st24" d="M18.8,22.4C18.8,22.3,18.8,22.4,18.8,22.4C18.8,22.4,18.8,22.4,18.8,22.4C18.8,22.4,18.8,22.4,18.8,22.4z"/>
	<path class="st24" d="M19.9,22.7C19.8,22.6,19.9,22.7,19.9,22.7c0.1-0.3,0-0.3,0-0.4c0-0.2-0.1-0.5-0.4-0.7c0,0,0,0.1,0,0.1
		c0,0.2,0,0.6,0.1,0.6c0,0-0.2,0.1-0.3,0.1c0.1-0.1,0.1-0.3,0.1-0.4c-0.2,0.3-0.4,0.2-0.6,0.4c0-0.1,0-0.2,0-0.3
		c0.1-0.2-0.6,0.1-0.6,0.1c-0.1-0.2,0-0.5,0.1-0.6c-0.3-0.1-1,0.6-1,0.8c-0.2,0.1,0.1,0,0,0c0,0,0,0.1,0,0.1c0.1,0,0.2,0,0.2,0
		c-0.2,0.1,0,0.5,0.1,0.5c0-0.1,0-0.1,0,0c0.2-0.1,0.1-0.2,0.3-0.3c0.1,0,0.4-0.1,0.4-0.1c0.1,0.6,0.9,0.7,0.9,0c0,0,0.1,0,0.1,0.1
		c-0.1,0.4,0.4,0.3,0.3,0.1C19.7,22.7,19.8,22.7,19.9,22.7z"/>
	<path class="st25" d="M18.7,21.6c0,0-0.1,0-0.1,0C18.6,21.6,18.7,21.6,18.7,21.6z"/>
	<polygon class="st25" points="18.4,21.6 18.4,21.6 18.4,21.6 	"/>
	<path class="st25" d="M18.4,21.6c0,0-0.1,0.4-0.1,0.5c0.4-0.3,0-0.3,0.3-0.5C18.7,21.6,18.5,21.6,18.4,21.6z"/>
	<path class="st25" d="M18.6,21.9C18.5,21.8,18.5,21.8,18.6,21.9C18.5,21.9,18.5,21.9,18.6,21.9C18.6,21.9,18.6,21.9,18.6,21.9z"/>
	<path class="st25" d="M18.5,21.8C18.5,21.8,18.6,21.8,18.5,21.8C18.5,21.7,18.5,21.8,18.5,21.8z"/>
	<path class="st25" d="M18.5,21.8C18.6,21.8,18.6,21.8,18.5,21.8C18.5,21.8,18.5,21.9,18.5,21.8z"/>
	<path class="st25" d="M18.6,21.8C18.5,21.8,18.5,22.1,18.6,21.8C18.5,21.8,18.6,21.8,18.6,21.8z"/>
	<path class="st25" d="M18.6,21.8C18.5,21.8,18.5,21.8,18.6,21.8C18.6,21.8,18.6,21.8,18.6,21.8z"/>
	<path class="st25" d="M18.2,21.9C18.2,22,18.2,22,18.2,21.9C18.2,21.9,18.2,21.9,18.2,21.9z"/>
	<path class="st25" d="M18.2,22C18.2,22,18.2,22,18.2,22C18.2,22,18.2,22,18.2,22z"/>
	<path class="st25" d="M18.2,21.8C18.3,21.8,18.3,21.8,18.2,21.8C18.3,21.8,18.3,21.8,18.2,21.8z"/>
	<path class="st25" d="M18.2,21.9c-0.1,0.2,0,0.1,0.1,0.3c0.1-0.1,0.1-0.3,0.1-0.4C18.3,21.6,18.3,21.7,18.2,21.9
		C18.2,21.9,18.3,21.8,18.2,21.9z"/>
	<path class="st25" d="M18.2,22.2c0,0,0.1-0.1,0.1-0.1C18.2,22.1,18.2,22.2,18.2,22.2C18.2,22.2,18.2,22.2,18.2,22.2z"/>
	<path class="st25" d="M18.3,22.1c0-0.1-0.1-0.1-0.1-0.1c0,0-0.2-1.7,0,0.2C18.2,22.2,18.3,22.1,18.3,22.1
		C18.3,22.1,18.3,22.1,18.3,22.1z"/>
	<path class="st25" d="M18.5,22.1c0.1-0.1,0.1-0.1,0.1-0.1c-0.2,0-0.3,0.1-0.3,0.2C18.4,22.2,18.4,22.1,18.5,22.1z"/>
	<path class="st25" d="M18.2,22.2c0,0,0.1,0,0.1-0.1C18.3,22.2,18.2,22.2,18.2,22.2C18.2,22.2,18.2,22.2,18.2,22.2z"/>
	<path class="st26" d="M18.4,21.6C18.4,21.6,18.4,21.6,18.4,21.6C18.6,21.6,18.6,21.6,18.4,21.6z"/>
	<path class="st26" d="M18.4,21.6C18.4,21.6,18.3,21.7,18.4,21.6C18.4,21.6,18.4,21.6,18.4,21.6z"/>
	<path class="st26" d="M18.3,21.7C18.3,21.7,18.3,21.7,18.3,21.7C18.3,21.6,18.3,21.7,18.3,21.7C18.3,21.7,18.3,21.7,18.3,21.7z"/>
	<path class="st26" d="M18.2,21.9C18.3,21.6,18.2,22,18.2,21.9C18.2,21.9,18.2,21.9,18.2,21.9z"/>
	<path class="st26" d="M18.2,22C18.2,22,18.2,22,18.2,22C18.2,22,18.2,22,18.2,22z"/>
	<path class="st26" d="M18.4,21.7c0.1-0.1,0.2-0.1,0.3-0.1C18.6,21.6,18.3,21.6,18.4,21.7C18.4,21.6,18.4,21.7,18.4,21.7z"/>
	<path class="st26" d="M18.4,21.7c-0.1,0-0.1,0.2-0.1,0.2C18.3,21.8,18.3,21.7,18.4,21.7C18.4,21.7,18.3,21.7,18.4,21.7z"/>
	<path class="st26" d="M18.2,22C18.2,22,18.2,22,18.2,22C18.2,22,18.2,22,18.2,22z"/>
	<path class="st26" d="M18.2,22C18.2,22,18.2,21.9,18.2,22C18.2,21.9,18.2,21.9,18.2,22z"/>
	<path class="st26" d="M18.2,22C18.2,22,18.2,22,18.2,22L18.2,22z"/>
	<path class="st24" d="M22.8,24.9C22.8,24.9,22.8,24.9,22.8,24.9L22.8,24.9z"/>
	<path class="st24" d="M22.5,25.4c0.1,0,0.2,0,0.3-0.1C22.6,25.3,22.4,25.3,22.5,25.4z"/>
	<path class="st24" d="M22.5,25.4C22.4,25.4,22.4,25.4,22.5,25.4L22.5,25.4z"/>
	<path class="st27" d="M22.9,25.4c0,0.1-0.2,0.3-0.2,0.3C22.8,25.6,22.9,25.4,22.9,25.4z"/>
	<path class="st27" d="M22.7,25.5C22.6,25.5,22.6,25.6,22.7,25.5C22.7,25.5,22.7,25.5,22.7,25.5z"/>
	<path class="st27" d="M22.9,25.4L22.9,25.4C22.9,25.4,23,25.4,22.9,25.4z"/>
	<path class="st27" d="M22.7,25.5C22.6,25.5,22.7,25.5,22.7,25.5C22.7,25.5,22.7,25.5,22.7,25.5z"/>
	<path class="st27" d="M23,25.4C23,25.3,23,25.4,23,25.4L23,25.4z"/>
	<path class="st27" d="M25.4,25.4c0-0.2-0.5-0.3-0.7-0.4c-0.1-0.1-0.4-0.4-0.5-0.3l0,0c0,0,0,0,0,0c-0.2-0.1-0.2-0.2-0.4-0.4
		c0,0,0.1,0.6,0,0.6c-0.2-0.4-0.4-0.2-0.8,0c-0.2,0.1-0.7-0.1-0.8,0.2c0,0,0,0,0,0c0,0.1,0.1,0.2,0.1,0.3c0.1,0,0.3,0,0.4,0
		c-0.1,0.1-0.3,0.1-0.4,0.1c0.1,0.1,0.2,0,0.3,0c0,0,0,0.2,0,0.1c0,0,0,0,0,0c0.1,0,0.2,0,0.3-0.3c0,0,0,0,0,0
		c-0.3,0.3-0.2,0.7,0.2,0.5c0.1,0,0.1-0.2,0.2-0.3c0.3-0.2,0.3-0.1,0.6-0.2c0.1,0,0.4-0.1,0.5,0c0.3,0.1,0.2,0.5,0.6,0.4
		C25.2,25.8,25.5,25.4,25.4,25.4z"/>
	<path class="st25" d="M22.1,25.7C22.1,25.7,22,25.7,22.1,25.7L22.1,25.7z"/>
	<path class="st25" d="M22,25.7c0,0-0.1-0.1-0.1-0.1C21.9,25.6,22.1,25.8,22,25.7C21.9,25.6,22,25.7,22,25.7z"/>
	<path class="st25" d="M22.3,25.4c0-0.1-0.1,0-0.3,0C22.1,25.4,22.2,25.5,22.3,25.4z"/>
	<path class="st25" d="M22.4,25.4C22.4,25.4,22.3,25.4,22.4,25.4L22.4,25.4z"/>
	<path class="st25" d="M22.4,25.4C22.3,25.5,22.4,25.4,22.4,25.4C22.4,25.4,22.4,25.4,22.4,25.4z"/>
	<path class="st25" d="M22.6,25.7C22.6,25.7,22.6,25.7,22.6,25.7C22.6,25.7,22.6,25.7,22.6,25.7z"/>
	<path class="st25" d="M22.4,26C22.4,26,22.4,26,22.4,26L22.4,26z"/>
	<path class="st25" d="M22.5,26.2C22.5,26.2,22.5,26.2,22.5,26.2C22.5,26.2,22.5,26.2,22.5,26.2z"/>
	<path class="st25" d="M22.6,26.4C22.6,26.4,22.6,26.4,22.6,26.4C22.6,26.4,22.6,26.4,22.6,26.4z"/>
	<path class="st25" d="M22.5,25.9c-0.1,0-0.1,0.1-0.1,0.1C22.5,26,22.5,26,22.5,25.9z"/>
	<path class="st25" d="M22.4,26.1C22.4,26.1,22.4,26,22.4,26.1C22.4,26.1,22.4,26.1,22.4,26.1z"/>
	<path class="st25" d="M22.7,26.4C22.7,26.4,22.7,26.4,22.7,26.4C22.7,26.4,22.7,26.4,22.7,26.4z"/>
	<path class="st25" d="M22.7,26.4C22.8,26.4,22.7,26.4,22.7,26.4C22.7,26.4,22.7,26.4,22.7,26.4z"/>
	<polygon class="st25" points="22.8,26.4 22.8,26.4 22.8,26.4 	"/>
	<path class="st25" d="M22.8,26.4C22.8,26.4,22.8,26.4,22.8,26.4C22.8,26.4,22.7,26.4,22.8,26.4C22.7,26.4,22.7,26.4,22.8,26.4z"/>
	<path class="st25" d="M22.7,25.7C22.6,25.6,22.6,25.7,22.7,25.7C22.7,25.6,22.7,25.7,22.7,25.7z"/>
	<path class="st25" d="M22.9,26c0,0-0.1,0-0.1-0.1c0.1-0.3-0.1-0.2-0.1-0.3c-0.2,0.1-0.2,0.3-0.2,0.4c0,0,0.1-0.1,0.1-0.1
		c-0.2,0.2,0,0.4,0.2,0.5C22.8,26.2,22.7,26.1,22.9,26C22.9,26,22.9,26,22.9,26z"/>
	<path class="st25" d="M22.9,25.9c0,0.1-0.2,0,0,0.1C22.9,26,22.9,25.9,22.9,25.9z"/>
	<path class="st25" d="M25.6,26.2C25.6,26.2,25.6,26.2,25.6,26.2C25.6,26.2,25.6,26.2,25.6,26.2z"/>
	<path class="st25" d="M25.5,26.2C25.5,26.2,25.5,26.2,25.5,26.2C25.5,26.2,25.5,26.2,25.5,26.2z"/>
	<path class="st25" d="M25.6,25.6c0,0.1,0.1,0.1,0.1,0.2C25.7,25.7,25.7,25.6,25.6,25.6z"/>
	<path class="st25" d="M25.7,25.9C25.8,25.7,25.7,26.2,25.7,25.9C25.7,25.9,25.7,25.9,25.7,25.9z"/>
	<path class="st25" d="M25.7,26.1C25.6,26.1,25.6,26.2,25.7,26.1C25.6,26.2,25.6,26.1,25.7,26.1z"/>
	<path class="st25" d="M25.7,26C25.7,26,25.7,26.1,25.7,26C25.7,26.1,25.7,26,25.7,26z"/>
	<path class="st25" d="M25.4,26.2C25.4,26.2,25.3,26.2,25.4,26.2C25.3,26.2,25.4,26.2,25.4,26.2z"/>
	<path class="st25" d="M25.2,25.8c0,0.1,0.5,0.2,0.1,0.4C26,26.5,25.6,24.8,25.2,25.8z"/>
	<path class="st25" d="M25.3,26.2C25.2,26.2,25.2,26.2,25.3,26.2C25.2,26.2,25.2,26.2,25.3,26.2z"/>
	<path class="st25" d="M25.2,25.8C25.2,25.8,25.2,25.8,25.2,25.8C25.2,25.8,25.2,25.8,25.2,25.8z"/>
	<path class="st25" d="M25.3,25.6c-0.1,0.1-0.1,0.1-0.1,0.2c0-0.1,0.3-0.3,0.3-0.3C25.4,25.5,25.3,25.5,25.3,25.6
		C25.2,25.7,25.4,25.5,25.3,25.6z"/>
	<path class="st25" d="M25.2,25.8C25.2,25.8,25.2,25.8,25.2,25.8C25.2,25.8,25.2,25.8,25.2,25.8L25.2,25.8z"/>
	<path class="st26" d="M22.4,26C22.4,26,22.4,26,22.4,26C22.4,26,22.4,26,22.4,26z"/>
	<path class="st26" d="M22.6,25.6C22.6,25.7,22.6,25.6,22.6,25.6C22.6,25.6,22.6,25.6,22.6,25.6z"/>
	<path class="st26" d="M22.4,26c0-0.1,0.1-0.2,0.2-0.3C22.5,25.7,22.4,26,22.4,26z"/>
	<path class="st26" d="M22.4,26C22.4,26,22.4,26,22.4,26C22.4,26,22.4,26,22.4,26z"/>
	<path class="st26" d="M22.6,26.4C22.7,26.4,22.7,26.4,22.6,26.4C22.7,26.4,22.7,26.4,22.6,26.4z"/>
	<path class="st26" d="M22.5,26.3C22.5,26.3,22.5,26.3,22.5,26.3C22.5,26.3,22.6,26.3,22.5,26.3C22.6,26.3,22.6,26.3,22.5,26.3z"/>
	<path class="st26" d="M22.4,26.2C22.5,26.2,22.3,26,22.4,26.2C22.5,26.2,22.5,26.2,22.4,26.2z"/>
	<path class="st26" d="M22.4,26C22.4,26.1,22.4,26,22.4,26C22.4,26,22.4,26,22.4,26z"/>
	<path class="st26" d="M22.4,26.1C22.4,26.1,22.4,26.1,22.4,26.1C22.4,26.1,22.4,26.1,22.4,26.1z"/>
	<path class="st26" d="M22.4,26.1C22.4,26.2,22.4,26.2,22.4,26.1C22.4,26.1,22.4,26.1,22.4,26.1z"/>
	<path class="st26" d="M22.4,26.1C22.4,26.1,22.4,26.1,22.4,26.1C22.4,26.1,22.4,26.1,22.4,26.1z"/>
	<path class="st26" d="M22.7,26.4C22.7,26.4,22.7,26.4,22.7,26.4C22.7,26.4,22.7,26.4,22.7,26.4z"/>
	<path class="st26" d="M22.7,26.4C22.7,26.4,22.8,26.4,22.7,26.4C22.8,26.4,22.8,26.4,22.7,26.4z"/>
	<path class="st26" d="M22.6,25.6C22.6,25.6,22.7,25.6,22.6,25.6C22.6,25.7,22.6,25.6,22.6,25.6z"/>
	<path class="st26" d="M22.5,25.8c0.1-0.1,0.1-0.1,0.2-0.2C22.6,25.6,22.4,26,22.5,25.8C22.5,25.7,22.5,25.7,22.5,25.8z"/>
	<path class="st26" d="M22.4,26C22.4,26,22.4,26,22.4,26C22.4,26,22.4,26,22.4,26C22.4,26,22.4,26,22.4,26z"/>
	<path class="st26" d="M22.4,25.9C22.4,25.9,22.4,25.9,22.4,25.9C22.4,25.9,22.4,25.9,22.4,25.9z"/>
	<path class="st26" d="M22.4,26C22.4,26,22.4,26,22.4,26C22.4,26,22.4,26,22.4,26z"/>
	<path class="st26" d="M22.4,26.2C22.4,26.2,22.4,26.2,22.4,26.2C22.4,26.2,22.4,26.2,22.4,26.2z"/>
	<path class="st26" d="M22.5,26.2C22.5,26.3,22.6,26.4,22.5,26.2C22.5,26.2,22.5,26.3,22.5,26.2z"/>
	<path class="st26" d="M22.7,26.4C22.5,26.3,22.6,26.4,22.7,26.4C22.7,26.4,22.7,26.4,22.7,26.4z"/>
	<path class="st26" d="M22.4,26C22.4,26.2,22.4,26,22.4,26C22.4,26,22.4,26,22.4,26z"/>
	<path class="st26" d="M22.4,26.1C22.4,26.1,22.5,26.2,22.4,26.1C22.4,26.1,22.4,26.1,22.4,26.1z"/>
	<path class="st26" d="M22.4,26.1C22.4,26.1,22.4,26.2,22.4,26.1C22.4,26.1,22.4,26.1,22.4,26.1z"/>
	<path class="st26" d="M22.7,26.4C22.7,26.4,22.7,26.4,22.7,26.4C22.7,26.4,22.7,26.4,22.7,26.4z"/>
	<path class="st26" d="M22.7,26.4C22.7,26.4,22.7,26.4,22.7,26.4C22.7,26.4,22.7,26.4,22.7,26.4z"/>
	<path class="st26" d="M22.7,26.4C22.7,26.4,22.8,26.4,22.7,26.4C22.7,26.4,22.7,26.4,22.7,26.4z"/>
	<path class="st26" d="M22.6,25.6C22.6,25.7,22.6,25.6,22.6,25.6C22.6,25.6,22.6,25.6,22.6,25.6z"/>
	<path class="st26" d="M22.3,25.1C22.3,25.1,22.3,25.1,22.3,25.1C22.3,25.1,22.3,25.1,22.3,25.1z"/>
	<path class="st26" d="M22,25.7C22,25.7,22,25.7,22,25.7C22,25.7,22,25.7,22,25.7z"/>
	<path class="st26" d="M22.1,25.7C22.1,25.7,22.1,25.7,22.1,25.7C22.1,25.7,22.1,25.7,22.1,25.7z"/>
	<path class="st26" d="M21.9,25.4c0,0,0,0,0,0.1C21.9,25.5,21.9,25.5,21.9,25.4C21.9,25.4,21.9,25.5,21.9,25.4z"/>
	<path class="st26" d="M21.8,25.4C21.9,25.4,21.8,25.3,21.8,25.4C21.8,25.4,21.8,25.4,21.8,25.4z"/>
	<path class="st26" d="M21.9,25.4C21.8,25.3,21.8,25.4,21.9,25.4C21.9,25.4,21.9,25.4,21.9,25.4z"/>
	<path class="st26" d="M22.3,25.1C22.3,25.1,22.3,25.1,22.3,25.1L22.3,25.1z"/>
	<g>
		<path class="st26" d="M22.4,25.3c0-0.8-1,0.2-0.4,0.4c-0.2-0.3,0.2-0.2,0.3-0.3c-0.1-0.1-0.2,0-0.3,0
			C22.1,25.4,22.4,25.4,22.4,25.3z"/>
		<path class="st26" d="M22.4,25.4C22.4,25.4,22.3,25.4,22.4,25.4C22.4,25.4,22.4,25.4,22.4,25.4z"/>
	</g>
	<path class="st26" d="M22,25.7C22.1,25.7,22,25.7,22,25.7C22,25.7,22,25.7,22,25.7z"/>
	<path class="st26" d="M22,25.7c0-0.2,0-0.2-0.1-0.2C21.9,25.5,21.9,25.6,22,25.7C21.9,25.6,21.9,25.6,22,25.7z"/>
	<path class="st26" d="M21.9,25.4C21.8,25.3,21.9,25.4,21.9,25.4C21.9,25.4,21.9,25.4,21.9,25.4z"/>
	<path class="st26" d="M21.9,25.4C21.9,25.3,21.8,25.4,21.9,25.4C21.9,25.4,21.9,25.4,21.9,25.4z"/>
	<path class="st26" d="M25.6,25.6c0-0.1-0.1-0.1-0.2-0.1C25.5,25.5,25.6,25.5,25.6,25.6C25.6,25.6,25.6,25.5,25.6,25.6z"/>
	<path class="st26" d="M25.6,26.2C25.6,26.2,25.6,26.2,25.6,26.2C25.6,26.2,25.6,26.2,25.6,26.2z"/>
	<path class="st26" d="M25.7,25.7c0,0,0,0.1,0,0.1C25.7,25.8,25.7,25.8,25.7,25.7z"/>
	<path class="st26" d="M25.5,26.2C25.5,26.2,25.5,26.2,25.5,26.2C25.5,26.2,25.5,26.2,25.5,26.2z"/>
	<path class="st26" d="M25.7,26.1C25.7,26.1,25.7,26.1,25.7,26.1C25.7,26.1,25.7,26.1,25.7,26.1z"/>
	<path class="st26" d="M25.4,26.2C25.5,26.2,25.3,26.2,25.4,26.2C25.4,26.2,25.4,26.2,25.4,26.2z"/>
	<path class="st26" d="M25.3,26.2C25.3,26.2,25.3,26.2,25.3,26.2C25.3,26.2,25.3,26.2,25.3,26.2z"/>
	<path class="st26" d="M25.7,26C25.7,25.9,25.7,26.1,25.7,26C25.7,26,25.7,26,25.7,26z"/>
	<path class="st26" d="M25.7,26c-0.1,0.2-0.3,0.2-0.5,0.2c0.5,0.2,0.7-0.5,0.3-0.7C25.7,25.6,25.8,25.8,25.7,26
		C25.6,26.2,25.8,25.8,25.7,26z"/>
	<path class="st28" d="M19.7,16C19.6,16,19.6,16,19.7,16C19.6,16,19.6,16,19.7,16z"/>
	<path class="st28" d="M20,16.5L20,16.5C20,16.5,20,16.5,20,16.5C20,16.5,20,16.5,20,16.5z"/>
	<path class="st28" d="M20.1,16.4c0,0,0.1-0.1,0.1-0.1C20.1,16.3,20.1,16.4,20.1,16.4z"/>
	<path class="st28" d="M20,16.5C20,16.5,20,16.5,20,16.5C20,16.5,20,16.5,20,16.5z"/>
	<path class="st29" d="M19.8,22.7C19.8,22.7,19.9,22.7,19.8,22.7C19.9,22.7,19.9,22.7,19.8,22.7z"/>
	<path class="st29" d="M19.9,22.7C19.9,22.7,19.8,22.7,19.9,22.7C19.9,22.8,20,22.7,19.9,22.7L19.9,22.7z"/>
	<path class="st29" d="M20,22.7C20,22.7,20,22.7,20,22.7C20,22.7,20,22.7,20,22.7z"/>
	<path class="st29" d="M20,22.7C20,22.7,20.1,22.7,20,22.7L20,22.7z"/>
	<path class="st30" d="M19.7,22.9C19.7,22.9,19.7,22.9,19.7,22.9C19.7,22.9,19.7,22.9,19.7,22.9z"/>
	<path class="st30" d="M19.9,23.2l-0.2,0C19.8,23.2,19.8,23.2,19.9,23.2z"/>
	<path class="st30" d="M19.3,23.1L19.3,23.1L19.3,23.1c0,0,0.2,0,0.4,0.1C19.6,23,19.4,22.9,19.3,23.1L19.3,23.1L19.3,23.1z"/>
	<path class="st30" d="M20,23.1C20,23.2,20,23.2,20,23.1l0.1,0.1C20.1,23.2,20,23.1,20,23.1C20,23.1,20,23.1,20,23.1z"/>
	<path class="st29" d="M19.7,22.9C19.7,22.9,19.7,22.9,19.7,22.9C19.7,22.9,19.7,22.9,19.7,22.9z"/>
	<path class="st29" d="M19.9,23c0,0,0.1,0,0.1,0.1c-0.1,0-0.2-0.1-0.3-0.2C19.8,22.9,19.8,23,19.9,23z"/>
	<path class="st29" d="M19.9,23C19.9,23,19.8,23,19.9,23C19.9,23,19.9,23,19.9,23L19.9,23z"/>
	<path class="st31" d="M19.3,23.1C19.3,23.1,19.3,23.1,19.3,23.1L19.3,23.1z"/>
	<path class="st29" d="M20,22.7c0-0.1,0.1-0.1,0-0.1c0,0.1-0.1,0.1-0.1,0.2C19.8,22.7,19.9,22.7,20,22.7z"/>
	<path class="st29" d="M20,22.5c0,0,0,0.1,0,0.1c0,0,0,0,0.1,0C20.1,22.6,20.1,22.5,20,22.5z"/>
	<path class="st29" d="M20,22.7c0,0-0.1,0-0.1,0C19.9,22.7,20,22.7,20,22.7L20,22.7z"/>
	<path class="st29" d="M20,22.7C20,22.7,20,22.7,20,22.7L20,22.7z"/>
	<path class="st29" d="M20,22.7C20,22.7,20,22.7,20,22.7C20,22.7,20,22.7,20,22.7z"/>
	<path class="st29" d="M20,22.7C20,22.6,20,22.7,20,22.7L20,22.7z"/>
	<path class="st29" d="M20,22.7C20,22.7,20,22.7,20,22.7L20,22.7z"/>
	<path class="st31" d="M27.4,24.5c0,0,0.1,0.1,0.1,0.1C27.5,24.5,27.4,24.5,27.4,24.5z"/>
	<path class="st31" d="M27.3,24.4C27.4,24.5,27.4,24.5,27.3,24.4L27.3,24.4z"/>
	<path class="st31" d="M27.3,24.4C27.3,24.4,27.3,24.4,27.3,24.4C27.3,24.4,27.3,24.4,27.3,24.4z"/>
	<path class="st31" d="M25.7,24.6C25.7,24.6,25.6,24.5,25.7,24.6L25.7,24.6z"/>
	<path class="st31" d="M24.2,24.7L24.2,24.7C24.5,24.4,24,24.7,24.2,24.7z"/>
	<path class="st32" d="M23.6,24.6C23.6,24.6,23.6,24.6,23.6,24.6C23.6,24.6,23.6,24.6,23.6,24.6z"/>
	<path class="st32" d="M23.6,24.6C23.6,24.6,23.6,24.6,23.6,24.6L23.6,24.6z"/>
	<path class="st32" d="M23.9,24.9C23.9,24.9,23.9,24.9,23.9,24.9C23.9,24.9,23.9,24.9,23.9,24.9z"/>
	<path class="st33" d="M23.3,24.4C23.4,24.4,23.4,24.4,23.3,24.4C23.3,24.4,23.3,24.4,23.3,24.4C23.3,24.4,23.3,24.4,23.3,24.4z"/>
	<path class="st33" d="M23.3,24.4c0,0,0.1,0.1,0.1,0.1C23.4,24.5,23.4,24.4,23.3,24.4C23.3,24.4,23.4,24.4,23.3,24.4z"/>
	<path class="st33" d="M23.3,24.4C23.3,24.3,23.3,24.3,23.3,24.4C23.3,24.3,23.3,24.4,23.3,24.4z"/>
	<path class="st34" d="M20,16.5C20,16.5,20,16.5,20,16.5C20,16.5,20,16.5,20,16.5z"/>
	<path class="st34" d="M20,16.5C20,16.5,20,16.5,20,16.5C20,16.5,20,16.5,20,16.5z"/>
	<path class="st28" d="M19.9,16.5C19.9,16.5,19.9,16.5,19.9,16.5C19.9,16.5,19.9,16.5,19.9,16.5z"/>
	<path class="st28" d="M20,16.5C20,16.5,20,16.5,20,16.5C20,16.5,20,16.5,20,16.5z"/>
	<path class="st35" d="M19.6,16C19.6,16,19.6,16,19.6,16C19.6,16,19.6,16,19.6,16z"/>
	<path class="st1" d="M18.7,15.4c0.1,0,0.1,0-0.1-0.2C18.6,15.3,18.6,15.3,18.7,15.4C18.7,15.4,18.7,15.3,18.7,15.4z"/>
	<path class="st1" d="M18.7,15.7c-0.1,0.1-0.3,0-0.4,0.1c0.2,0.1,0.5-0.1,0.5-0.3C18.7,15.4,18.6,15.5,18.7,15.7z"/>
	<path class="st36" d="M18.3,15.7C18.3,15.7,18.3,15.7,18.3,15.7C18.3,15.7,18.3,15.7,18.3,15.7z"/>
	<path class="st36" d="M18.4,15.6C18.4,15.6,18.4,15.6,18.4,15.6C18.4,15.6,18.4,15.6,18.4,15.6C18.4,15.6,18.4,15.6,18.4,15.6z"/>
	<path d="M18.4,15.6C18.5,15.5,18.4,15.6,18.4,15.6C18.4,15.6,18.4,15.6,18.4,15.6z"/>
	<path d="M18.6,15.4c-0.1-0.1-0.1,0.1-0.1,0.1C18.5,15.5,18.5,15.5,18.6,15.4C18.6,15.4,18.5,15.4,18.6,15.4z"/>
	<path d="M18.5,15.5C18.6,15.5,18.4,15.6,18.5,15.5C18.5,15.7,18.7,15.6,18.5,15.5C18.5,15.5,18.5,15.5,18.5,15.5
		C18.5,15.5,18.5,15.5,18.5,15.5z"/>
	<path class="st37" d="M18.5,15.5C18.5,15.5,18.4,15.6,18.5,15.5C18.5,15.5,18.5,15.5,18.5,15.5z"/>
	<path class="st37" d="M18.5,15.5C18.5,15.4,18.5,15.7,18.5,15.5C18.5,15.5,18.5,15.6,18.5,15.5z"/>
	<path class="st29" d="M18.2,15.8C18.3,15.7,18.2,15.8,18.2,15.8C18.2,15.8,18.3,15.8,18.2,15.8z"/>
	<path class="st29" d="M18.2,15.8C18.3,15.8,18.3,15.7,18.2,15.8C18.2,15.8,18.2,15.8,18.2,15.8z"/>
	<path class="st29" d="M18.5,15.4c0,0,0.2-0.2,0.2-0.2C18.6,15.2,18.6,15.3,18.5,15.4z"/>
	<path class="st29" d="M18.2,15.8C18.3,15.8,18.3,15.7,18.2,15.8C18.3,15.8,18.2,15.8,18.2,15.8z"/>
	<path class="st29" d="M18.4,15.6L18.4,15.6L18.4,15.6C18.4,15.6,18.4,15.6,18.4,15.6z"/>
	<path class="st29" d="M18.3,15.7C18.2,15.8,18.3,15.7,18.3,15.7C18.3,15.7,18.3,15.7,18.3,15.7z"/>
	<path class="st29" d="M18.3,15.7l0.1-0.1C18.3,15.6,18.3,15.7,18.3,15.7z"/>
	<path class="st29" d="M18.6,15.2c0,0-0.1,0.2-0.1,0.2C18.6,15.4,18.6,15.4,18.6,15.2C18.6,15.2,18.6,15.3,18.6,15.2z"/>
	<path class="st29" d="M18.3,15.7c0,0,0.1-0.1,0.1-0.1C18.4,15.6,18.3,15.7,18.3,15.7C18.3,15.7,18.3,15.7,18.3,15.7z"/>
	<path class="st29" d="M18.3,15.7C18.3,15.7,18.3,15.7,18.3,15.7C18.3,15.7,18.3,15.7,18.3,15.7C18.3,15.7,18.3,15.7,18.3,15.7z"/>
	<path class="st29" d="M18.5,15.4l-0.1,0.2C18.4,15.6,18.5,15.4,18.5,15.4z"/>
	<path class="st29" d="M18.4,15.6c0-0.1,0.1-0.1,0.1-0.2C18.5,15.4,18.4,15.6,18.4,15.6z"/>
	<path class="st29" d="M18.4,15.6c0,0,0.1-0.2,0.1-0.2C18.5,15.4,18.4,15.6,18.4,15.6C18.4,15.6,18.4,15.6,18.4,15.6z"/>
	<path class="st29" d="M18.4,15.5C18.4,15.6,18.4,15.5,18.4,15.5C18.4,15.5,18.4,15.5,18.4,15.5z"/>
	<path class="st29" d="M18,15.8C18,15.8,18,15.8,18,15.8C18,15.8,18,15.8,18,15.8C18,15.8,18,15.8,18,15.8z"/>
	<path class="st29" d="M18.1,15.9C18,15.7,18,15.8,18.1,15.9C18.1,15.8,18.1,15.8,18.1,15.9z"/>
	<path class="st38" d="M19.9,16.5C19.9,16.5,19.9,16.5,19.9,16.5C19.7,16.5,20.2,16.5,19.9,16.5z"/>
	<path class="st38" d="M19.9,16.5C19.9,16.5,19.9,16.5,19.9,16.5C19.9,16.5,20,16.5,19.9,16.5z"/>
	<path class="st38" d="M20,16.5C20,16.5,20,16.5,20,16.5C20,16.5,19.9,16.5,20,16.5z"/>
	<path class="st38" d="M19.9,16.5C19.9,16.5,19.9,16.5,19.9,16.5C20,16.5,19.9,16.5,19.9,16.5z"/>
	<path class="st38" d="M19.9,16.2c0,0.1,0,0.1,0.1,0.2C19.9,16.3,19.9,16.3,19.9,16.2z"/>
	<path class="st38" d="M19.9,16.5c0,0,0-0.1,0-0.1C19.9,16.4,19.9,16.5,19.9,16.5z"/>
	<path class="st38" d="M19.6,16.1C19.6,16.1,19.6,16.1,19.6,16.1L19.6,16.1z"/>
	<path class="st38" d="M19.9,16.5C19.9,16.5,19.9,16.5,19.9,16.5C19.9,16.5,19.9,16.5,19.9,16.5z"/>
	<path class="st38" d="M20.1,16.4C20.1,16.4,20.1,16.5,20.1,16.4C20.1,16.5,20.1,16.5,20.1,16.4z"/>
	<path class="st38" d="M20,16.5C20,16.5,20,16.5,20,16.5C20,16.5,20,16.5,20,16.5C20,16.5,20,16.5,20,16.5z"/>
	<path class="st38" d="M20,16.5C20,16.5,20,16.5,20,16.5C20,16.5,20,16.5,20,16.5z"/>
	<path class="st38" d="M20,16.5C20,16.5,20,16.5,20,16.5L20,16.5z"/>
	<path class="st38" d="M20.1,16.4C19.6,17,20.4,16,20.1,16.4C20,16.4,20,16.4,20.1,16.4z"/>
	<path class="st38" d="M20,16.5C20,16.5,20,16.5,20,16.5C20,16.5,20,16.5,20,16.5z"/>
	<path class="st38" d="M19.9,16.5C19.9,16.5,19.9,16.5,19.9,16.5C19.9,16.5,20,16.5,19.9,16.5z"/>
	<path class="st38" d="M19.9,16.5C20,16.5,20,16.5,19.9,16.5C20,16.5,20,16.5,19.9,16.5z"/>
	<path class="st38" d="M19.9,16.5C19.9,16.5,19.9,16.5,19.9,16.5C19.9,16.5,19.9,16.5,19.9,16.5z"/>
	<path class="st39" d="M18.5,16.5C18.5,16.5,18.5,16.5,18.5,16.5c0.2,0.1,0.4,0,0.6-0.1c-0.2,0.1-0.3,0.2-0.5,0.2
		c0.1,0.1,0.7,0,0.7-0.2C19.2,16.1,18.6,16.5,18.5,16.5L18.5,16.5C18.5,16.5,18.5,16.5,18.5,16.5z"/>
	<path class="st40" d="M17.9,15.9C18,15.9,18,15.9,17.9,15.9C18,15.9,18,15.9,17.9,15.9C18,15.9,17.9,15.9,17.9,15.9z"/>
	<path class="st40" d="M17.9,15.8c0,0-0.1,0-0.1,0.1C17.8,15.9,17.9,15.9,17.9,15.8C17.9,15.8,17.9,15.8,17.9,15.8z"/>
	<path class="st40" d="M17.9,15.8C18,15.8,18,15.8,17.9,15.8C17.9,15.8,17.9,15.8,17.9,15.8C17.9,15.8,17.9,15.8,17.9,15.8z"/>
	<polygon class="st40" points="18.9,16.2 18.8,16.2 18.9,16.2 	"/>
	<path class="st41" d="M18.1,15.9C18.1,15.9,18.1,15.9,18.1,15.9c0.1,0,0.3,0.2,0.5,0.2c0.3,0,0.5-0.1,0.8,0c-0.1-0.2-0.3,0-0.5-0.1
		C18.7,16,18.5,16,18.1,15.9z"/>
	<polygon class="st41" points="19.4,16 19.4,16 19.4,16 	"/>
	<path class="st41" d="M19.7,16.3C19.7,16.2,19.7,16.2,19.7,16.3C19.6,16.3,19.7,16.3,19.7,16.3z"/>
	<path class="st41" d="M19.5,16.1C19.6,16,19.3,16,19.5,16.1C19.5,16.1,19.5,16,19.5,16.1z"/>
	<polygon class="st41" points="18,15.8 18,15.8 18,15.8 	"/>
	<path class="st41" d="M18.1,15.9C18.1,15.9,18.1,15.9,18.1,15.9c0,0,0.1,0,0.1,0C18.2,15.9,18.1,15.8,18.1,15.9z"/>
	<path class="st41" d="M19.5,16.1C19.5,16.1,19.5,16.1,19.5,16.1C19.5,16.1,19.5,16.1,19.5,16.1z"/>
	<path class="st41" d="M19,16c0.1,0,0.1,0,0.2,0C19.1,16,19,16,19,16z"/>
	<path class="st41" d="M19.4,16c0-0.1-0.2-0.1-0.3-0.1C19.4,16,19.4,16,19.4,16z"/>
	<path class="st41" d="M18.2,15.9c0.1,0.1,0.4,0.1,0.5,0.2C18.5,16,18.4,15.9,18.2,15.9C18.3,16,18.2,15.9,18.2,15.9z"/>
	<path class="st41" d="M19.4,16C19.5,16,19.5,16,19.4,16C19.4,16,19.4,16,19.4,16z"/>
	<path class="st41" d="M18.2,15.9C18.2,15.9,18.3,15.9,18.2,15.9C18.2,15.9,18.1,15.8,18.2,15.9C18.2,15.9,18.2,15.9,18.2,15.9z"/>
	<path class="st41" d="M18,15.8C18,15.9,18,15.9,18,15.8C18,15.8,18,15.8,18,15.8C18,15.8,18,15.8,18,15.8z"/>
	<path class="st41" d="M18,15.8C18,15.9,18,15.8,18,15.8C18,15.8,18,15.8,18,15.8z"/>
	<path class="st41" d="M18.1,15.9C18.1,15.8,18.1,15.8,18.1,15.9C18,15.8,18.1,15.9,18.1,15.9C18.1,15.8,18.1,15.9,18.1,15.9z"/>
	<path class="st41" d="M19.6,16.1c0,0-0.1,0-0.1,0c0,0,0.2,0.2,0.2,0.2C19.7,16.2,19.6,16.1,19.6,16.1z"/>
	<path class="st41" d="M19.4,16C19.5,16.1,19.6,16.1,19.4,16C19.4,16,19.5,16,19.4,16z"/>
	<path class="st41" d="M19.5,16.1C19.5,16.1,19.5,16.1,19.5,16.1C19.6,16.1,19.5,16.1,19.5,16.1z"/>
	<path class="st41" d="M19.6,16.1C19.5,16.1,19.5,16,19.6,16.1C19.6,16.1,19.6,16.1,19.6,16.1z"/>
	<path class="st41" d="M19.4,16C19.4,16,19.4,16,19.4,16L19.4,16z"/>
	<polygon class="st41" points="17.8,15.9 17.8,15.9 17.8,15.9 	"/>
	<path class="st41" d="M18,15.8C18,15.8,18,15.8,18,15.8C18,15.8,18,15.8,18,15.8C18,15.8,18,15.8,18,15.8z"/>
	<path class="st41" d="M18,15.8C18,15.8,18,15.9,18,15.8C18,15.8,18,15.8,18,15.8z"/>
	<path class="st41" d="M18,15.8C18,15.8,18,15.8,18,15.8C18,15.8,18,15.8,18,15.8C18,15.8,18,15.8,18,15.8z"/>
	<path class="st41" d="M19.5,16.1C19.5,16.1,19.5,16.1,19.5,16.1c0,0.1,0.1,0.1,0.1,0.1C19.6,16.2,19.6,16.1,19.5,16.1z"/>
	<path class="st42" d="M18.9,16.5c0.1-0.1,0.3-0.2,0.3-0.2c-0.2,0.1-0.4,0.1-0.6,0.2C18.6,16.6,18.8,16.5,18.9,16.5
		C19,16.4,18.8,16.5,18.9,16.5z"/>
	<polygon class="st43" points="17.8,15.9 17.8,15.9 17.8,15.9 	"/>
	<path class="st43" d="M17.8,15.9C17.8,15.9,17.8,15.9,17.8,15.9C17.7,15.9,17.7,15.9,17.8,15.9C17.8,15.9,17.8,15.9,17.8,15.9z"/>
	<polygon class="st43" points="17.7,15.9 17.7,15.9 17.7,15.9 	"/>
	<path class="st43" d="M17.8,15.9C17.8,15.9,17.8,15.9,17.8,15.9L17.8,15.9L17.8,15.9z"/>
	<polygon class="st43" points="17.7,15.9 17.7,15.9 17.7,15.9 	"/>
	<path class="st43" d="M17.7,15.9C17.7,15.9,17.7,15.9,17.7,15.9C17.7,15.9,17.7,15.9,17.7,15.9z"/>
	<path class="st43" d="M17.8,15.9C17.7,15.9,17.7,15.9,17.8,15.9L17.8,15.9z"/>
	<path class="st43" d="M17.7,15.9C17.8,15.9,17.8,15.9,17.7,15.9L17.7,15.9L17.7,15.9z"/>
	<polygon class="st43" points="17.7,15.9 17.7,15.9 17.7,15.9 	"/>
	<path class="st43" d="M17.8,15.9C17.8,15.9,17.8,15.9,17.8,15.9C17.8,15.9,17.8,15.9,17.8,15.9z"/>
	<path class="st43" d="M17.7,15.9L17.7,15.9C17.7,15.9,17.7,15.9,17.7,15.9z"/>
	<path class="st43" d="M17.8,15.9L17.8,15.9C17.8,15.9,17.8,15.8,17.8,15.9L17.8,15.9z"/>
	<path class="st43" d="M17.7,15.9L17.7,15.9C17.7,15.9,17.7,15.9,17.7,15.9z"/>
	<path class="st43" d="M17.8,15.9L17.8,15.9C17.7,15.9,17.8,15.9,17.8,15.9z"/>
	<ellipse transform="matrix(0.59 -0.8074 0.8074 0.59 -5.5524 20.8444)" class="st43" cx="17.7" cy="15.9" rx="0" ry="0"/>
	<path class="st43" d="M17.7,15.9L17.7,15.9C17.7,15.9,17.7,15.9,17.7,15.9z"/>
	<path class="st43" d="M17.7,15.9C17.8,15.9,17.8,15.9,17.7,15.9L17.7,15.9C17.7,15.9,17.7,15.9,17.7,15.9z"/>
	<polygon class="st43" points="17.7,15.9 17.7,15.9 17.7,15.9 	"/>
	<polygon class="st43" points="17.8,15.9 17.7,15.9 17.7,15.9 17.8,15.9 	"/>
	<polygon class="st43" points="17.7,15.9 17.7,15.9 17.7,15.9 	"/>
	<path class="st43" d="M17.8,15.9L17.8,15.9C17.8,15.9,17.8,15.9,17.8,15.9z"/>
	<path class="st43" d="M17.7,15.9C17.7,15.9,17.7,15.9,17.7,15.9C17.7,15.9,17.7,15.9,17.7,15.9z"/>
	<path class="st43" d="M17.7,15.9C17.7,15.9,17.7,15.9,17.7,15.9C17.7,15.9,17.7,15.9,17.7,15.9z"/>
	<path class="st43" d="M17.8,15.9C17.7,15.9,17.8,15.9,17.8,15.9L17.8,15.9z"/>
	<path class="st43" d="M17.8,15.9C17.7,15.9,17.7,15.9,17.8,15.9L17.8,15.9z"/>
	<path class="st43" d="M17.7,15.9C17.7,15.9,17.7,15.9,17.7,15.9L17.7,15.9z"/>
	<path class="st43" d="M17.7,15.9C17.8,15.9,17.7,15.9,17.7,15.9C17.7,15.9,17.7,15.9,17.7,15.9z"/>
	<path class="st43" d="M17.7,15.9C17.7,15.9,17.7,15.9,17.7,15.9C17.7,15.9,17.7,15.9,17.7,15.9z"/>
	<polygon class="st43" points="17.7,15.9 17.7,15.9 17.7,15.9 	"/>
	<path class="st43" d="M17.7,15.9C17.7,15.9,17.7,15.9,17.7,15.9L17.7,15.9z"/>
	<path class="st43" d="M17.8,15.9C17.7,15.9,17.8,15.9,17.8,15.9C17.8,15.9,17.8,15.9,17.8,15.9z"/>
	<path class="st43" d="M17.8,15.9C17.8,15.9,17.8,15.9,17.8,15.9C17.8,15.9,17.8,15.9,17.8,15.9z"/>
	<path class="st43" d="M17.8,15.9C17.8,15.9,17.8,15.9,17.8,15.9C17.8,15.9,17.8,15.9,17.8,15.9z"/>
	<path class="st43" d="M17.8,15.9C17.8,15.9,17.8,15.9,17.8,15.9C17.8,15.9,17.8,15.9,17.8,15.9z"/>
	<path class="st43" d="M17.8,15.9C17.8,15.9,17.8,15.9,17.8,15.9C17.8,15.9,17.8,15.9,17.8,15.9C17.8,15.9,17.8,15.9,17.8,15.9z"/>
	<path class="st43" d="M17.8,15.9C17.8,15.9,17.8,15.9,17.8,15.9C17.8,15.9,17.8,15.9,17.8,15.9z"/>
	<path class="st43" d="M17.8,15.9C17.8,15.9,17.8,15.9,17.8,15.9C17.8,15.9,17.8,15.9,17.8,15.9z"/>
	<path class="st43" d="M17.8,15.9C17.8,15.9,17.8,15.9,17.8,15.9C17.8,15.9,17.8,15.9,17.8,15.9z"/>
	<path class="st20" d="M18.6,21.4C18.6,21.4,18.7,21.4,18.6,21.4C18.6,21.4,18.6,21.4,18.6,21.4z"/>
	<path class="st20" d="M18.7,21.4C18.7,21.4,18.7,21.4,18.7,21.4L18.7,21.4z"/>
	<path class="st18" d="M19.5,21.7C19.5,21.7,19.5,21.7,19.5,21.7C19.5,21.7,19.5,21.7,19.5,21.7z"/>
	<path class="st18" d="M19.4,21.9c0,0,0-0.3,0-0.1L19.4,21.9z"/>
	<path class="st18" d="M19.4,21.7C19.4,21.7,19.4,21.7,19.4,21.7C19.4,21.7,19.5,21.7,19.4,21.7z"/>
	<path class="st18" d="M19.4,22C19.4,22,19.4,22,19.4,22C19.4,22,19.4,22,19.4,22z"/>
	<polygon class="st18" points="19.4,22 19.4,22 19.4,22 	"/>
	<path class="st18" d="M19.5,21.7c0,0-0.1,0.2,0,0.2C19.5,21.9,19.5,21.8,19.5,21.7z"/>
	<path class="st18" d="M19.4,21.7C19.4,21.8,19.5,21.7,19.4,21.7C19.4,21.7,19.4,21.7,19.4,21.7z"/>
	<path class="st18" d="M19.5,21.7C19.5,21.7,19.5,21.7,19.5,21.7L19.5,21.7z"/>
	<path class="st18" d="M19.5,21.7C19.5,21.7,19.5,21.7,19.5,21.7C19.4,21.7,19.4,21.7,19.5,21.7z"/>
	<path class="st18" d="M19.5,21.7C19.5,21.7,19.5,21.7,19.5,21.7L19.5,21.7z"/>
	<path class="st18" d="M19.5,21.7C19.5,21.7,19.5,21.7,19.5,21.7L19.5,21.7z"/>
	<path class="st18" d="M19.4,22.3l0-0.2l0,0c0,0,0,0,0-0.1C19.4,22.1,19.4,22.2,19.4,22.3z"/>
	<path class="st18" d="M19.4,22.3c0-0.1,0-0.2,0.1-0.3c-0.1,0.1-0.1,0.3-0.1,0.5C19.4,22.4,19.4,22.3,19.4,22.3z"/>
	<path class="st18" d="M19.4,22.3l0,0.2c0.1,0,0.1-0.4,0.1-0.4L19.4,22.3z"/>
	<path class="st18" d="M19.4,22.3l0,0.2C19.4,22.4,19.4,22.3,19.4,22.3z"/>
	<path class="st18" d="M19.5,21.9L19.5,21.9C19.4,22,19.4,22,19.5,21.9C19.5,22,19.5,21.9,19.5,21.9C19.4,21.9,19.4,21.9,19.5,21.9z
		"/>
	<path class="st18" d="M19.5,21.7C19.5,21.7,19.5,21.7,19.5,21.7C19.5,21.7,19.5,21.7,19.5,21.7z"/>
	<polygon class="st18" points="19.4,22 19.4,22 19.4,22 	"/>
	<path class="st18" d="M19.5,21.7L19.5,21.7C19.4,21.7,19.5,21.7,19.5,21.7z"/>
	<path class="st18" d="M19.4,22C19.4,22,19.4,22,19.4,22C19.5,22,19.5,22,19.4,22L19.4,22z"/>
	<path class="st18" d="M19.4,22C19.4,22,19.4,22,19.4,22C19.4,22,19.4,22,19.4,22z"/>
	<path class="st18" d="M19.5,21.7C19.4,21.7,19.4,21.7,19.5,21.7L19.5,21.7z"/>
	<path class="st18" d="M19.4,21.7C19.5,21.7,19.4,21.7,19.4,21.7C19.4,21.7,19.4,21.7,19.4,21.7z"/>
	<path class="st18" d="M19.4,21.9C19.4,21.9,19.4,21.9,19.4,21.9C19.4,21.9,19.4,21.9,19.4,21.9z"/>
	<path class="st18" d="M19.4,22C19.5,22,19.4,21.9,19.4,22C19.4,22,19.4,22,19.4,22z"/>
	<path class="st18" d="M19.4,22C19.4,22,19.5,21.9,19.4,22C19.4,22,19.4,22,19.4,22z"/>
	<path class="st18" d="M19.5,21.9C19.5,21.9,19.5,21.9,19.5,21.9L19.5,21.9z"/>
	<path class="st18" d="M19.4,22C19.5,21.9,19.4,21.9,19.4,22L19.4,22z"/>
	<path class="st18" d="M19.4,22C19.4,22,19.4,22,19.4,22C19.4,22,19.4,22,19.4,22z"/>
	<path class="st18" d="M18.9,20.6C18.9,20.6,18.9,20.6,18.9,20.6L18.9,20.6z"/>
	<path class="st19" d="M18.9,20.6L18.9,20.6C18.9,20.6,18.9,20.6,18.9,20.6z"/>
	<path class="st1" d="M18.8,21.9L18.8,21.9C18.8,21.9,18.8,21.9,18.8,21.9z"/>
	<path class="st1" d="M18.8,22C18.8,21.9,18.8,22,18.8,22L18.8,22z"/>
	<path class="st1" d="M18.8,22C18.8,22,18.8,22,18.8,22C18.8,22,18.8,22,18.8,22z"/>
	<path class="st1" d="M18.8,22C18.8,22,18.8,22,18.8,22L18.8,22z"/>
	<path class="st1" d="M18.8,22C18.8,22,18.8,22,18.8,22C18.8,22,18.8,22,18.8,22z"/>
	<g>
		<path class="st19" d="M18.7,16.7C18.7,16.7,18.7,16.7,18.7,16.7C18.7,16.7,18.7,16.7,18.7,16.7z"/>
		<path class="st19" d="M18.7,16.7C18.6,16.7,18.7,16.7,18.7,16.7C18.7,16.7,18.7,16.7,18.7,16.7z"/>
		<g>
			<g>
				<path class="st19" d="M17.2,14.8c-0.3,0.2,0,0.4-0.1,0.7C17.3,15.4,17.2,14.8,17.2,14.8z"/>
				<path class="st19" d="M17.2,16.3C17.2,16.4,17.2,16.4,17.2,16.3L17.2,16.3c-0.2,0.1-0.6,0-0.5-0.2c0,0.1,0.9-0.5,0.8-0.5
					c-0.1-0.1-0.6,0.5-0.8,0.2c-0.1-0.1,0.2-0.4,0.2-0.6c0,0,0.3-0.6,0.3-0.5c-0.1-0.3-0.2,0-0.3,0c-0.3,0.1-0.4,0.1-0.7,0.4
					c-0.4,0.5-0.1,0.8-0.1,1.4c0,0.3,0.3,0.6,0.6,0.5c0.2,0,0.4,0,0.5,0c-0.1-0.2,0-0.5,0.2-0.7C17.3,16.3,17.2,16.3,17.2,16.3z
					 M16.8,16.3L16.8,16.3L16.8,16.3L16.8,16.3z"/>
			</g>
			<g>
				<path class="st19" d="M17.7,23.1c-0.1-0.2-0.3-0.5-0.5-0.6c0,0,0,0,0,0c0.1,0,0.2,0,0.2-0.1c-0.3,0.1-0.4-0.2-0.5-0.4
					c-0.2-0.3-0.3-0.6-0.5-0.9c-0.2-0.2-0.4-0.3-0.5-0.6c-0.1-0.5,0.4-0.8,0.2-1.3c-0.1-0.2-0.4-0.5-0.7-0.5c-0.3-0.1,0-0.2-0.4,0
					c0-0.1-0.1-0.4-0.3-0.2c-0.1-0.2-0.2-0.1-0.3,0c-0.2,0.2-0.2,0.1-0.1,0.3c0.1,0.1,0.5,0.5,0.6,0.2c0,0.3,0.3,0.1,0.5,0.3
					c0.2,0.3-0.1,0.6-0.2,0.9c-0.2,0.8,0.3,0.9,0.8,1.5c0.3,0.4,0.2,1.1,0.6,1.4C16.7,23.3,17.9,23.4,17.7,23.1z M17.1,22.5
					C17,22.5,17.2,22.5,17.1,22.5C17.1,22.5,17.1,22.5,17.1,22.5z"/>
				<path class="st19" d="M19.5,21.6c0-0.4-0.2-0.9-0.6-1l0,0c-0.5-0.2-1.1,0.2-1.5-0.2c-0.4-0.3-0.2-0.8,0-1.1
					c0.5-0.7,2.2-1.4,1.4-2.5c0,0,0,0.1,0,0.1c0,0-0.3-0.2-0.3-0.2c0,0,0.1,0,0.1,0c0,0-0.2-0.2-0.2-0.2c0,0,0,0,0,0c0,0,0,0,0,0
					c-1.1-0.1-0.4,0.8-0.3,1.1c0,0,0,0,0,0c-0.4,0.9-1.6,1-1.8,2.1c-0.1,0.8,0.2,1.6,1.1,1.8c0.3,0.1,1-0.2,1.2,0
					c0.3,0.4-0.5,0.1,0.1,0.6c0-0.1,0,0,0-0.1c0,0,0,0,0,0c0,0,0,0,0,0c0,0.1,0.1,0.3,0,0.4C19.2,22.6,19.4,21.9,19.5,21.6
					C19.4,21.7,19.4,21.7,19.5,21.6L19.5,21.6C19.5,21.8,19.5,21.7,19.5,21.6z M16.6,20.8C16.6,20.7,16.6,20.8,16.6,20.8
					C16.6,20.8,16.6,20.8,16.6,20.8z M18.7,21.4C18.6,21.5,18.7,21.4,18.7,21.4C18.7,21.4,18.7,21.4,18.7,21.4z"/>
			</g>
		</g>
	</g>
	<path class="st44" d="M30.1,18.7c0,0.1-0.6-0.7-0.6-0.8c-0.3-0.5-0.5-1-0.8-1.5c-0.5-0.8-1.2-1.5-2-2c0,0,0.1,0,0.2,0.1
		c-0.3-0.2,0.1-0.5,0-0.5c-0.1-0.1-0.4,0-0.6,0c-0.2-0.1-0.3-0.2-0.5-0.3c-0.2-0.1-0.4-0.2-0.6-0.3c-0.9-0.4-2.4-1-3.3-0.6
		c-0.1,0-0.2,0.2-0.3,0.2c0,0-0.2,0.1-0.3,0.1c-0.3,0.2-0.7,0.1-0.7,0.6c0.1,0.8,2.1,0.5,1.5,1.8c-0.2-0.3-0.6-0.7-0.6-1
		c-0.2,0.1-1.2-0.1-1.3-0.2c-0.2-0.1-0.2-0.4-0.3-0.5c0,0.2-0.2,0.4-0.3,0.6c0-0.2-0.1-0.4-0.1-0.4l0,0c0-0.1,0-0.2-0.1-0.2
		c0,0.3,0,0.9-0.4,1c0.2-0.2,0.1-0.5-0.1-0.7c0,0.3,0,0.6-0.3,0.9c0.1-0.2,0-0.4-0.1-0.6v0l0,0c0,0.3-0.2,0.6-0.4,0.9
		c-0.3,0.4-0.5,0.3-0.2,0.6c0.4,0.4,1.1,0,1.6,0.3l0,0c0.2,0.1,0.3,0.2,0.3,0.4c0-0.1,0-0.2-0.1-0.3c0,0.1,0.1,0.2,0.1,0.3
		c0,0,0.1-0.1,0.1-0.1c-0.1,0.1-0.1,0.1,0,0c-0.2,0.1-0.6,0.7-0.2,0.7c-0.2,0.3-0.4,0.6-0.5,0.9c0,0,0.1,0,0.1,0
		c0,0.2-0.3,0.5-0.3,0.8c-0.1,0.5,0.2,1.1,0.3,1.6c0,0,0.3,0,0.2-0.1c0.1,0.2,0.1,0.3,0.2,0.5c0.1,0.3,0,0.4,0.2,0.7
		c0.1,0.2,0.4,0.3,0.4,0.5c-0.5-0.5-0.8,0,0,0.3c-0.2,0-0.3,0.1-0.4,0.2c0.1,0,0.1,0.1,0.1,0.2c-0.1,0.1-0.4,0.3-0.5,0.3
		c0,0.1,0.1,0.2,0.2,0.3c-0.2,0-0.4-0.1-0.4-0.1c0,0,0,0,0,0c0,0,0,0,0,0c0.2,0.2,0.7,0.3,1,0.3c0,0,0,0,0,0c0,0.1-0.1,0.2-0.1,0.2
		c0.4,0.1,0.8-0.1,1.2-0.2c0,0,0,0,0,0c0,0,0,0,0,0c0.1,0.8,0.4-0.1,0.4-0.4c0.2,0.2,0.4,0.4,0.6,0.7c0,0,0.1,0.1,0.2,0.1
		c0.2,0.4,0.4,1,0.7,0.6c0-0.1,0-0.1,0-0.1c0,0,0.1,0.1,0.1,0.1c-0.1-0.1-0.1-0.1,0,0c0.2,0.2,0.3,0.3,0.5,0.5
		c0.1-0.1,0-0.6-0.1-0.6c0.1,0.2,0.2,0.3,0.4,0.4c0.1,0,0-0.4,0-0.4c0.1,0.1,0.1,0.1,0.2,0.2c0.1,0,0-0.5,0-0.6
		c0.1,0.2,1,1.4,1.3,0.8c0.3,0.4,0.5,0.1,0.8,0c0.4,0,0.6,0.1,0.9-0.2c-0.1,0-0.1-0.1-0.2-0.1c0,0,0,0,0,0c0.4,0.3,1.5-0.2,0.9-0.4
		c-0.8-0.6-1.6-1.3-2.5-1.9c-0.5-0.3-0.9-0.6-1.1-1.1c-0.1-0.2-0.2-0.6-0.2-0.8c-0.1-0.4,0-0.2,0-0.6c0.3,0.2,0.7,0.5,0.9,0.7
		c0.2,0.2,0.4,0.8,0.6,0.9c0,0.1,0.2,0.4,0.3,0.2c0,0-0.6-1.3-0.7-1.4c1.1-0.1,0.7,1.7,1.4,1.8c-0.2,0-0.3-1.6-0.6-1.8
		c0.3,0.2,0.5,0.4,0.6,0.8c0.1,0.1,0.6,1.4,0.5,1.4c0.2-0.5-0.3-1.6-0.4-2.1c0.4,0,0.4,1.1,0.4,1.3c0.1,0.4,0.3,0.7,0.4,1.1
		c0.1,0.2,0,1,0.2,1.1c-0.1-0.1,0-1.4,0-1.6c0-0.6-0.1-1.2-0.2-1.8c0.5,0,0.6,3.8,0.8,3.8c0.3,0,0.1-3.6,0-3.9
		c0.5,0.4,0.5,4.4,0.5,4.4c0.3,0,0.3-2.2,0.3-2.4c0.1-1.1,0.6-2.1,0-3.1C29.9,18.8,30,18.8,30.1,18.7z M18.7,15.7
		c-0.2,0.2-0.3,0-0.5,0.2c0.2-0.2,0.3-0.5,0.5-0.7C18.8,15.3,18.8,15.6,18.7,15.7z M20.1,22C20.1,22,20.1,22,20.1,22
		C20.1,22,20.1,22,20.1,22z M19.7,22.9C19.7,22.9,19.7,22.9,19.7,22.9c0,0,0.3,0.2,0.3,0.2C19.9,23,19.8,23,19.7,22.9z M19.9,23.2
		c-0.1,0-0.1,0-0.2,0C19.8,23.2,20.1,23.2,19.9,23.2c0.1-0.1,0.2,0,0.2,0L19.9,23.2z M25.7,24.6C25.8,24.7,25.7,24.6,25.7,24.6
		C25.7,24.6,25.7,24.6,25.7,24.6z M27.2,20.1C27.2,20.1,27.2,20.1,27.2,20.1C27.2,20.1,27.2,20.1,27.2,20.1z M27.4,20.1
		c0.1,0,0.1,0.1,0.2,0.2C27.5,20.2,27.4,20.2,27.4,20.1z"/>
	<path class="st45" d="M19.7,16.3c-0.2-0.3-0.5-0.2-0.8-0.2c-0.3,0-0.5-0.2-0.8-0.2c-0.2,0-0.3,0-0.3,0c0,0,0,0,0,0
		c-0.1,0.1-0.1,0.2-0.1,0.2c-0.4,0.1-0.6,0.6-0.4,0.9c0,0,0,0,0,0c0.3,0.2,0.5,0.5,0.9,0.4c-0.5-0.3-0.2-1,0.4-0.9c0,0,0,0,0,0
		c0,0,0,0,0,0c0.1,0,0.2,0.2,0.2,0.2c0,0-0.1,0-0.1,0c0,0,0.4,0.2,0.3,0.2c0,0,0-0.1-0.1-0.1C18.9,16.8,19.8,16.5,19.7,16.3z
		 M17.9,15.9C18,15.9,18,15.9,17.9,15.9C18,15.9,18,15.9,17.9,15.9C17.9,15.9,18,15.9,17.9,15.9z M18.9,16.2L18.9,16.2L18.9,16.2
		L18.9,16.2z M18.7,16.7C18.6,16.7,18.7,16.7,18.7,16.7C18.7,16.7,18.7,16.7,18.7,16.7z M18.7,16.7C18.7,16.7,18.7,16.7,18.7,16.7
		L18.7,16.7z M18.7,16.7c-0.1-0.1-0.2-0.2-0.2-0.2c0,0,0,0,0,0c0,0,0,0,0,0l0,0c0.1,0,0.7-0.3,0.8-0.1
		C19.3,16.6,18.8,16.7,18.7,16.7C18.7,16.6,18.7,16.7,18.7,16.7z"/>
	<path class="st46" d="M19.4,22.4C19.4,22.4,19.4,22.4,19.4,22.4C19.4,22.4,19.4,22.4,19.4,22.4z"/>
	<path class="st46" d="M19.3,22.4C19.3,22.4,19.3,22.5,19.3,22.4L19.3,22.4z"/>
	<path class="st46" d="M19.4,22.4C19.4,22.4,19.4,22.4,19.4,22.4L19.4,22.4z"/>
	<path class="st46" d="M19.4,22.5C19.3,22.5,19.4,22.4,19.4,22.5C19.4,22.4,19.4,22.4,19.4,22.5z"/>
	<path class="st46" d="M19.3,22.4C19.3,22.5,19.3,22.5,19.3,22.4C19.3,22.4,19.3,22.4,19.3,22.4z"/>
	<path class="st46" d="M19.4,22.4C19.4,22.4,19.4,22.4,19.4,22.4C19.4,22.4,19.4,22.4,19.4,22.4z"/>
	<path class="st46" d="M19.3,22.4C19.3,22.4,19.4,22.4,19.3,22.4L19.3,22.4C19.3,22.4,19.3,22.4,19.3,22.4z"/>
	<path class="st46" d="M19.4,22.4C19.4,22.4,19.4,22.4,19.4,22.4C19.4,22.4,19.4,22.4,19.4,22.4z"/>
	<path class="st46" d="M19.3,22.4L19.3,22.4C19.4,22.4,19.4,22.4,19.3,22.4C19.4,22.4,19.4,22.4,19.3,22.4z"/>
	<path class="st46" d="M19.4,22.4C19.4,22.5,19.4,22.5,19.4,22.4C19.4,22.4,19.4,22.4,19.4,22.4z"/>
	<path class="st46" d="M19.3,22.4C19.4,22.4,19.4,22.4,19.3,22.4C19.3,22.4,19.3,22.4,19.3,22.4z"/>
</g>
</svg>
