<?xml version="1.0" encoding="utf-8"?>
<!-- Generator: Adobe Illustrator 20.1.0, SVG Export Plug-In . SVG Version: 6.00 Build 0)  -->
<svg version="1.1" id="Layer_1" xmlns="http://www.w3.org/2000/svg" xmlns:xlink="http://www.w3.org/1999/xlink" x="0px" y="0px"
	 viewBox="0 0 98 98" style="enable-background:new 0 0 98 98;" xml:space="preserve">
<style type="text/css">
	.st0{fill:#0A84A0;}
	.st1{fill:#FFFFFF;}
	.st2{fill:#D1465D;}
</style>
<g>
	<polygon class="st0" points="98,56.2 98,49.4 84.4,49.4 	"/>
	<polygon class="st0" points="98,27.6 98,20.8 84.4,27.6 	"/>
	<polygon class="st0" points="58.9,0 58.9,25.7 98,6.2 98,0 	"/>
	<polygon class="st0" points="58.9,97.9 98,97.9 98,70.9 58.9,51.3 	"/>
	<polygon class="st0" points="0.1,49.4 0.1,55.1 11.5,49.4 	"/>
	<polygon class="st0" points="37.1,0 0.1,0 0.1,7.3 37.1,25.7 	"/>
	<polygon class="st0" points="0.1,21.9 0.1,27.6 11.5,27.6 	"/>
	<polygon class="st0" points="0.1,69.8 0.1,97.9 37.1,97.9 37.1,51.3 	"/>
	<g>
		<polygon class="st1" points="98,6.2 58.9,25.7 58.9,0 54.5,0 54.5,27.9 54.5,30.4 54.5,32 61,32 75.7,32 98,32 98,27.6 84.4,27.6 
			98,20.8 98,13.5 69.8,27.6 60,27.6 98,8.6 		"/>
		<polygon class="st1" points="37.1,25.7 0.1,7.3 0.1,9.7 35.9,27.6 26.1,27.6 16.4,27.6 0.1,19.4 0.1,21.9 11.5,27.6 0.1,27.6 
			0.1,32 20.2,32 25.1,32 34.9,32 41.4,32 41.4,30.4 41.4,27.9 41.4,0 37.1,0 		"/>
		<polygon class="st1" points="70.8,45.1 61,45.1 54.5,45.1 54.5,46.7 54.5,49.1 54.5,97.9 58.9,97.9 58.9,51.3 98,70.9 98,68.4 
			60,49.4 69.8,49.4 79.5,49.4 98,58.7 98,56.2 84.4,49.4 98,49.4 98,45.1 75.7,45.1 		"/>
		<polygon class="st1" points="25.1,45.1 20.2,45.1 0.1,45.1 0.1,49.4 11.5,49.4 0.1,55.1 0.1,57.6 16.4,49.4 26.1,49.4 35.9,49.4 
			0.1,67.3 0.1,69.8 37.1,51.3 37.1,97.9 41.4,97.9 41.4,49.1 41.4,46.7 41.4,45.1 34.9,45.1 		"/>
	</g>
	<polygon class="st2" points="26.1,27.6 35.9,27.6 0.1,9.7 0.1,14.6 0.1,19.4 16.4,27.6 	"/>
	<polygon class="st2" points="26.1,49.4 16.4,49.4 0.1,57.6 0.1,62.4 0.1,67.3 35.9,49.4 	"/>
	<polygon class="st2" points="69.8,49.4 60,49.4 98,68.4 98,63.5 98,58.7 79.5,49.4 	"/>
	<polygon class="st2" points="69.8,27.6 98,13.5 98,8.6 60,27.6 	"/>
	<polygon class="st2" points="61,32 54.5,32 54.5,30.4 54.5,27.9 54.5,0 48,0 41.4,0 41.4,27.9 41.4,30.4 41.4,32 34.9,32 25.1,32 
		20.2,32 0.1,32 0.1,38.5 0.1,45.1 20.2,45.1 25.1,45.1 34.9,45.1 41.4,45.1 41.4,46.7 41.4,49.1 41.4,97.9 48,97.9 54.5,97.9 
		54.5,49.1 54.5,46.7 54.5,45.1 61,45.1 70.8,45.1 75.7,45.1 98,45.1 98,38.5 98,32 75.7,32 	"/>
</g>
</svg>
