<?xml version="1.0" encoding="UTF-8" standalone="no"?>
<svg width="194px" height="35px" viewBox="0 0 194 35" version="1.1" xmlns="http://www.w3.org/2000/svg" xmlns:xlink="http://www.w3.org/1999/xlink" xmlns:sketch="http://www.bohemiancoding.com/sketch/ns">
    <!-- Generator: Sketch 3.3.2 (12043) - http://www.bohemiancoding.com/sketch -->
    <title>EL HOLBOXEÑO + Your Complete Guide </title>
    <desc>Created with Sketch.</desc>
    <defs></defs>
    <g id="home--mobile-portrait" stroke="none" stroke-width="1" fill="none" fill-rule="evenodd" sketch:type="MSPage">
        <g id="Mobile-Portrait---Home" sketch:type="MSArtboardGroup" transform="translate(-56.000000, -8.000000)" fill="#FFFFFF">
            <g id="EL-HOLBOXEÑO-+-Your-Complete-Guide-" sketch:type="MSLayerGroup">
                <g transform="translate(57.000000, 9.000000)" sketch:type="MSShapeGroup">
                    <circle id="Oval-11" stroke="#979797" cx="16.5" cy="16.5" r="16.5"></circle>
                    <path d="M39.1993191,2.80647806 L44.4833885,2.80647806 C45.8513704,2.80647806 46.9110089,3.17327599 47.6623357,3.90688286 C48.4136626,4.64048972 48.7893204,5.68063652 48.7893204,7.02735444 C48.7893204,7.72906536 48.6652824,8.43253772 48.4172028,9.13779263 C48.1691232,9.84304755 47.6463918,10.4561494 46.8489931,10.9771166 C46.0515943,11.4980838 45.0504308,11.7585635 43.8454727,11.7585635 L42.6759604,11.7585635 L42.6759604,17.638021 L39.1993191,17.638021 L39.1993191,2.80647806 Z M42.6759604,5.66646734 L42.6759604,8.84541455 L43.4414593,8.84541455 C44.0084985,8.84541455 44.460351,8.69834098 44.7970305,8.40418943 C45.13371,8.11003789 45.3020472,7.69716872 45.3020472,7.16556954 C45.3020472,6.66232231 45.1726933,6.28666453 44.9139817,6.03858491 C44.6552701,5.79050529 44.2672085,5.66646734 43.7497853,5.66646734 L42.6759604,5.66646734 Z M50.0864159,2.80647806 L55.413013,2.80647806 C56.6179712,2.80647806 57.594327,3.1183449 58.3421099,3.74208793 C59.0898927,4.36583097 59.4637785,5.25181632 59.4637785,6.40007055 C59.4637785,7.34277309 59.196211,8.14547581 58.6610678,8.80820279 C58.1259246,9.47092977 57.3232219,9.99366112 56.2529355,10.3764125 C57.5925655,10.5890522 58.4218477,11.4395981 58.7408073,12.9280758 L59.7508406,17.638021 L55.9658734,17.638021 L55.413013,13.5340959 C55.3137812,12.8394729 55.1489879,12.3326893 54.9186283,12.0137298 C54.6882686,11.6947703 54.3356464,11.5352929 53.8607512,11.5352929 L53.5417933,11.5352929 L53.5417933,17.638021 L50.0864159,17.638021 L50.0864159,2.80647806 Z M53.5417933,5.68773121 L53.5417933,8.86667841 L54.2966603,8.86667841 C54.8353475,8.86667841 55.2464447,8.70720105 55.5299643,8.38824154 C55.8134838,8.06928203 55.9552415,7.66527271 55.9552415,7.17620147 C55.9552415,6.68004223 55.8312035,6.30792839 55.5831239,6.05984877 C55.3350443,5.81176915 54.9593865,5.68773121 54.4561393,5.68773121 L53.5417933,5.68773121 Z M65.7578813,2.56194365 C67.5511426,2.56194365 68.9651752,3.23883646 70.0000216,4.59264237 C71.034868,5.94644828 71.5522834,7.79638568 71.5522834,10.1425101 C71.5522834,12.4957224 71.0313241,14.3722394 69.9893897,15.7721172 C68.9474553,17.1719951 67.5972136,17.8719235 65.9386242,17.8719235 C64.2162428,17.8719235 62.8837209,17.1454155 61.9410183,15.6923778 C60.9983158,14.23934 60.5269716,12.428386 60.5269716,10.2594613 C60.5269716,8.75680761 60.7573278,7.40833792 61.218047,6.21401176 C61.6787663,5.0196856 62.3237637,4.11243661 63.1530584,3.49223757 C63.9823531,2.87203853 64.8506187,2.56194365 65.7578813,2.56194365 L65.7578813,2.56194365 Z M66.1299989,5.68773121 C65.435376,5.68773121 64.9037848,6.08819658 64.5352093,6.88913935 C64.1666339,7.69008211 63.982349,8.78516 63.982349,10.1744059 C63.982349,11.5849157 64.161318,12.6923974 64.5192615,13.4968841 C64.8772049,14.3013709 65.3715847,14.7036082 66.0024157,14.7036082 C66.6261588,14.7036082 67.1258545,14.2889671 67.5015179,13.4596724 C67.8771814,12.6303776 68.0650103,11.5246679 68.0650103,10.1425101 C68.0650103,8.71073627 67.8754094,7.61034247 67.496202,6.84129566 C67.1169946,6.07224884 66.6615981,5.68773121 66.1299989,5.68773121 L66.1299989,5.68773121 Z M74.1464745,2.80647806 L77.6550115,2.80647806 L77.6550115,13.9274773 C77.6550115,15.2458433 77.4033917,16.2328309 76.9001445,16.8884699 C76.3968972,17.5441089 75.5782468,17.8719235 74.4441685,17.8719235 C73.8275135,17.8719235 73.2356753,17.7939568 72.6686361,17.638021 L72.6686361,14.6610805 C72.9096278,14.8241042 73.1187203,14.9056149 73.29592,14.9056149 C73.5794396,14.9056149 73.7920761,14.8010686 73.9338359,14.591973 C74.0755956,14.3828773 74.1464745,14.0692385 74.1464745,13.6510471 L74.1464745,2.80647806 Z M79.9302446,2.80647806 L88.3826293,2.80647806 L88.3826293,5.79405051 L83.385622,5.79405051 L83.385622,8.5158247 L88.0424076,8.5158247 L88.0424076,11.4183417 L83.385622,11.4183417 L83.385622,14.6079208 L88.3826293,14.6079208 L88.3826293,17.638021 L79.9302446,17.638021 L79.9302446,2.80647806 Z M97.5898811,17.2659035 C96.7322344,17.6699188 95.9171279,17.8719235 95.1445371,17.8719235 C93.4788597,17.8719235 92.1534256,17.1454155 91.1681951,15.6923778 C90.1829646,14.23934 89.6903568,12.4319299 89.6903568,10.2700932 C89.6903568,8.93755128 89.9012213,7.67590815 90.3229566,6.48512599 C90.744692,5.29434383 91.3985492,4.34279557 92.2845478,3.63045266 C93.1705464,2.91810976 94.1841137,2.56194365 95.3252799,2.56194365 C96.0269908,2.56194365 96.7818503,2.74268467 97.5898811,3.10417211 L97.5898811,6.49575792 C97.02993,5.94289477 96.4274599,5.66646734 95.7824529,5.66646734 C94.9815102,5.66646734 94.3489166,6.07047666 93.8846533,6.87850742 C93.4203901,7.68653817 93.1882619,8.85603882 93.1882619,10.3870445 C93.1882619,11.6983224 93.4203901,12.7491011 93.8846533,13.5394118 C94.3489166,14.3297226 94.9637904,14.7248721 95.7292933,14.7248721 C96.2892444,14.7248721 96.9094341,14.4590765 97.5898811,13.9274773 L97.5898811,17.2659035 Z M98.8976085,2.80647806 L108.264339,2.80647806 L108.264339,5.81531437 L105.255503,5.81531437 L105.255503,17.638021 L101.800126,17.638021 L101.800126,5.81531437 L98.8976085,5.81531437 L98.8976085,2.80647806 Z M115.408997,2.80647806 L119.193964,2.80647806 L121.26719,8.48392891 L123.340417,2.80647806 L127.136016,2.80647806 L127.136016,17.638021 L123.755062,17.638021 L123.755062,12.0881533 C123.755062,10.6847315 123.811765,9.26006706 123.925173,7.81411729 L123.670006,7.81411729 C123.521159,8.53000419 123.227012,9.51521989 122.787556,10.769794 L121.26719,15.0969896 L119.757456,10.769794 C119.318001,9.5081319 119.023854,8.5229162 118.875006,7.81411729 L118.609208,7.81411729 C118.729703,9.15374723 118.78995,10.5784117 118.78995,12.0881533 L118.78995,17.638021 L115.408997,17.638021 L115.408997,2.80647806 Z M132.133023,2.80647806 L135.567137,2.80647806 L139.469055,17.638021 L135.705352,17.638021 L135.184387,14.6929763 L132.356294,14.6929763 L131.803433,17.638021 L128.263,17.638021 L132.133023,2.80647806 Z M133.780972,6.85724355 L132.834731,12.0349937 L134.70595,12.0349937 L133.780972,6.85724355 Z M140.479089,2.80647806 L145.763158,2.80647806 C147.13114,2.80647806 148.190778,3.17327599 148.942105,3.90688286 C149.693432,4.64048972 150.06909,5.68063652 150.06909,7.02735444 C150.06909,7.72906536 149.945052,8.43253772 149.696972,9.13779263 C149.448893,9.84304755 148.926161,10.4561494 148.128762,10.9771166 C147.331364,11.4980838 146.3302,11.7585635 145.125242,11.7585635 L143.95573,11.7585635 L143.95573,17.638021 L140.479089,17.638021 L140.479089,2.80647806 Z M143.95573,5.66646734 L143.95573,8.84541455 L144.721229,8.84541455 C145.288268,8.84541455 145.74012,8.69834098 146.0768,8.40418943 C146.413479,8.11003789 146.581817,7.69716872 146.581817,7.16556954 C146.581817,6.66232231 146.452463,6.28666453 146.193751,6.03858491 C145.93504,5.79050529 145.546978,5.66646734 145.029555,5.66646734 L143.95573,5.66646734 Z M154.36439,2.80647806 L157.798503,2.80647806 L161.700422,17.638021 L157.936718,17.638021 L157.415754,14.6929763 L154.58766,14.6929763 L154.0348,17.638021 L150.494367,17.638021 L154.36439,2.80647806 Z M156.012339,6.85724355 L155.066097,12.0349937 L156.937317,12.0349937 L156.012339,6.85724355 Z M170.291021,17.2659035 C169.433375,17.6699188 168.618268,17.8719235 167.845677,17.8719235 C166.18,17.8719235 164.854566,17.1454155 163.869335,15.6923778 C162.884105,14.23934 162.391497,12.4319299 162.391497,10.2700932 C162.391497,8.93755128 162.602362,7.67590815 163.024097,6.48512599 C163.445832,5.29434383 164.09969,4.34279557 164.985688,3.63045266 C165.871687,2.91810976 166.885254,2.56194365 168.02642,2.56194365 C168.728131,2.56194365 169.482991,2.74268467 170.291021,3.10417211 L170.291021,6.49575792 C169.73107,5.94289477 169.1286,5.66646734 168.483593,5.66646734 C167.682651,5.66646734 167.050057,6.07047666 166.585794,6.87850742 C166.12153,7.68653817 165.889402,8.85603882 165.889402,10.3870445 C165.889402,11.6983224 166.12153,12.7491011 166.585794,13.5394118 C167.050057,14.3297226 167.664931,14.7248721 168.430434,14.7248721 C168.990385,14.7248721 169.610575,14.4590765 170.291021,13.9274773 L170.291021,17.2659035 Z M172.140977,2.80647806 L175.575091,2.80647806 L175.575091,8.53708856 L178.318129,8.53708856 L178.318129,2.80647806 L181.784138,2.80647806 L181.784138,17.638021 L178.318129,17.638021 L178.318129,11.4289736 L175.575091,11.4289736 L175.575091,17.638021 L172.140977,17.638021 L172.140977,2.80647806 Z M183.931788,2.80647806 L192.384173,2.80647806 L192.384173,5.79405051 L187.387166,5.79405051 L187.387166,8.5158247 L192.043951,8.5158247 L192.043951,11.4183417 L187.387166,11.4183417 L187.387166,14.6079208 L192.384173,14.6079208 L192.384173,17.638021 L183.931788,17.638021 L183.931788,2.80647806 Z" id="EL-HOLBOXEÑO"></path>
                    <path d="M38.3974029,22.4365922 L40.6043828,22.4365922 L41.3199975,25.0945897 L42.0235851,22.4365922 L44.2606328,22.4365922 L42.2821686,26.9828504 L42.2821686,30.825521 L40.3217451,30.825521 L40.3217451,26.9828504 L38.3974029,22.4365922 Z M47.3997159,24.9622912 C48.1895019,24.9622912 48.8369563,25.2228766 49.3420987,25.7440552 C49.847241,26.2652337 50.0998084,26.9948728 50.0998084,27.9329943 C50.0998084,28.823007 49.8572635,29.5496393 49.3721665,30.1129131 C48.8870695,30.6761869 48.227588,30.9578195 47.3937023,30.9578195 C46.5598165,30.9578195 45.9103576,30.6791936 45.4453059,30.1219334 C44.9802542,29.5646733 44.7477319,28.8550792 44.7477319,27.99313 C44.7477319,27.0950992 44.991279,26.3654601 45.4783805,25.8041908 C45.9654821,25.2429216 46.6059208,24.9622912 47.3997159,24.9622912 L47.3997159,24.9622912 Z M47.4177566,26.429602 C47.1812217,26.429602 47.0028209,26.556888 46.8825489,26.8114637 C46.7622769,27.0660394 46.7021418,27.4478972 46.7021418,27.9570486 C46.7021418,28.4581818 46.7612747,28.8350284 46.8795421,29.0875996 C46.9978096,29.3401707 47.1752081,29.4664544 47.411743,29.4664544 C47.652287,29.4664544 47.83169,29.341173 47.9499574,29.0906063 C48.0682249,28.8400397 48.1273577,28.4641954 48.1273577,27.9630621 C48.1273577,27.4499017 48.0682249,27.0660394 47.9499574,26.8114637 C47.83169,26.556888 47.6542915,26.429602 47.4177566,26.429602 L47.4177566,26.429602 Z M51.0499523,25.0945897 L52.9502401,25.0945897 L52.9502401,28.6425954 C52.9502401,28.859085 52.9813099,29.022452 53.0434504,29.1327013 C53.105591,29.2429506 53.1967958,29.2980745 53.3170678,29.2980745 C53.4573851,29.2980745 53.5746486,29.2349326 53.6688616,29.1086471 C53.7630747,28.9823615 53.8101805,28.8270125 53.8101805,28.6425954 L53.8101805,25.0945897 L55.7465497,25.0945897 L55.7465497,30.825521 L54.0988318,30.825521 L53.9184247,30.254232 C53.7299986,30.4867578 53.5285461,30.6621518 53.314061,30.7804193 C53.099576,30.8986867 52.8700604,30.9578195 52.6255074,30.9578195 C52.1684739,30.9578195 51.7916273,30.7714008 51.4949564,30.3985576 C51.1982855,30.0257145 51.0499523,29.5626743 51.0499523,29.0094232 L51.0499523,25.0945897 Z M58.771375,25.8522994 C58.8876379,25.5556285 59.0299576,25.3331287 59.1983384,25.1847932 C59.3667192,25.0364578 59.5631605,24.9622912 59.7876682,24.9622912 C59.9319945,24.9622912 60.0863413,25.0063902 60.250713,25.0945897 L60.250713,26.8986604 C60.0542687,26.8024428 59.875868,26.7543348 59.7155053,26.7543348 C59.4709523,26.7543348 59.2684975,26.8535577 59.1081349,27.0520064 C58.9477722,27.2504552 58.8675921,27.5040248 58.8675921,27.8127229 L58.8675921,30.825521 L56.9312228,30.825521 L56.9312228,25.0945897 L58.5789408,25.0945897 L58.771375,25.8522994 Z M68.2848413,30.6150461 C67.7997443,30.8435629 67.3387086,30.9578195 66.9017204,30.9578195 C65.9595898,30.9578195 65.2099057,30.5468964 64.6526455,29.7250379 C64.0953854,28.9031793 63.8167594,27.8808828 63.8167594,26.6581177 C63.8167594,25.9044132 63.9360274,25.1908102 64.1745668,24.5172871 C64.4131062,23.843764 64.782937,23.3055549 65.2840703,22.9026438 C65.7852036,22.4997326 66.3584914,22.2982801 67.0039511,22.2982801 C67.4008486,22.2982801 67.8278077,22.4005097 68.2848413,22.6049721 L68.2848413,24.5233006 C67.968125,24.2105935 67.6273595,24.0542422 67.2625345,24.0542422 C66.8095101,24.0542422 66.4517063,24.2827556 66.1891124,24.7397891 C65.9265186,25.1968227 65.7952237,25.8583086 65.7952237,26.7242669 C65.7952237,27.4659441 65.9265186,28.0602793 66.1891124,28.5072901 C66.4517063,28.954301 66.7994875,29.1778031 67.2324667,29.1778031 C67.5491829,29.1778031 67.8999709,29.0274654 68.2848413,28.7267854 L68.2848413,30.6150461 Z M71.7125756,24.9622912 C72.5023617,24.9622912 73.1498161,25.2228766 73.6549585,25.7440552 C74.1601008,26.2652337 74.4126682,26.9948728 74.4126682,27.9329943 C74.4126682,28.823007 74.1701233,29.5496393 73.6850263,30.1129131 C73.1999293,30.6761869 72.5404478,30.9578195 71.7065621,30.9578195 C70.8726763,30.9578195 70.2232174,30.6791936 69.7581657,30.1219334 C69.293114,29.5646733 69.0605917,28.8550792 69.0605917,27.99313 C69.0605917,27.0950992 69.3041388,26.3654601 69.7912403,25.8041908 C70.2783419,25.2429216 70.9187806,24.9622912 71.7125756,24.9622912 L71.7125756,24.9622912 Z M71.7306164,26.429602 C71.4940815,26.429602 71.3156807,26.556888 71.1954087,26.8114637 C71.0751367,27.0660394 71.0150016,27.4478972 71.0150016,27.9570486 C71.0150016,28.4581818 71.0741345,28.8350284 71.1924019,29.0875996 C71.3106694,29.3401707 71.4880679,29.4664544 71.7246028,29.4664544 C71.9651467,29.4664544 72.1445498,29.341173 72.2628172,29.0906063 C72.3810847,28.8400397 72.4402175,28.4641954 72.4402175,27.9630621 C72.4402175,27.4499017 72.3810847,27.0660394 72.2628172,26.8114637 C72.1445498,26.556888 71.9671513,26.429602 71.7306164,26.429602 L71.7306164,26.429602 Z M79.8308939,25.8883808 C80.0113019,25.5796827 80.2217747,25.3481626 80.4623187,25.1938136 C80.7028626,25.0394645 80.975475,24.9622912 81.280164,24.9622912 C81.7732792,24.9622912 82.1681663,25.1457032 82.4648372,25.5125327 C82.761508,25.8793623 82.9098413,26.3514227 82.9098413,26.9287283 L82.9098413,30.825521 L81.0035399,30.825521 L81.0035399,27.3015695 C81.0035399,26.8525541 80.8752517,26.6280498 80.6186715,26.6280498 C80.4422725,26.6280498 80.3099753,26.7112367 80.2217759,26.8776129 C80.1335764,27.0439892 80.0894774,27.2955543 80.0894774,27.6323158 L80.0894774,30.825521 L78.1952031,30.825521 L78.1952031,27.3015695 C78.1952031,26.8525541 78.0689194,26.6280498 77.8163483,26.6280498 C77.6599947,26.6280498 77.533711,26.7132412 77.4374934,26.8836265 C77.3412758,27.0540118 77.2931678,27.2654869 77.2931678,27.518058 L77.2931678,30.825521 L75.4109206,30.825521 L75.4109206,25.0945897 L77.0225571,25.0945897 L77.2330321,25.7139873 C77.4014128,25.4614161 77.5938451,25.2729929 77.8103347,25.1487118 C78.0268243,25.0244308 78.2693691,24.9622912 78.5379765,24.9622912 C79.1192911,24.9622912 79.5502593,25.2709846 79.8308939,25.8883808 L79.8308939,25.8883808 Z M85.886558,25.7380416 C86.0589478,25.4774523 86.2523823,25.2830155 86.4668674,25.1547254 C86.6813524,25.0264353 86.918886,24.9622912 87.1794753,24.9622912 C87.7848443,24.9622912 88.2679295,25.2499373 88.6287455,25.8252383 C88.9895614,26.4005393 89.1699667,27.0830726 89.1699667,27.8728586 C89.1699667,28.4501641 89.0777595,28.9703326 88.8933425,29.4333798 C88.7089255,29.8964269 88.4573603,30.2662577 88.1386396,30.5428833 C87.8199188,30.8195088 87.458106,30.9578195 87.0531904,30.9578195 C86.8607552,30.9578195 86.6733342,30.9177295 86.4909217,30.8375482 C86.3085091,30.7573668 86.1311106,30.6370967 85.9587208,30.476734 L85.9587208,33.4955457 L84.0704601,33.4955457 L84.0704601,25.0945897 L85.7001373,25.0945897 L85.886558,25.7380416 Z M85.9587208,29.0034096 C86.030884,29.1076453 86.1110641,29.1868232 86.1992636,29.2409456 C86.287463,29.295068 86.3836792,29.3221288 86.4879149,29.3221288 C86.7164316,29.3221288 86.8948324,29.1978496 87.0231225,28.9492875 C87.1514126,28.7007254 87.2155567,28.3619644 87.2155567,27.9329943 C87.2155567,27.4960061 87.1544194,27.1612541 87.0321429,26.9287283 C86.9098664,26.6962024 86.7485039,26.5799413 86.5480506,26.5799413 C86.3516063,26.5799413 86.2042754,26.6651326 86.1060532,26.8355179 C86.0078311,27.0059032 85.9587208,27.2634819 85.9587208,27.6082616 L85.9587208,29.0034096 Z M90.156192,22.4365922 L92.068507,22.4365922 L92.068507,30.825521 L90.156192,30.825521 L90.156192,22.4365922 Z M97.8956554,30.3384219 C97.1619963,30.7513557 96.4784608,30.9578195 95.8450284,30.9578195 C95.0191607,30.9578195 94.3486545,30.6791936 93.8334895,30.1219334 C93.3183245,29.5646733 93.0607459,28.8510702 93.0607459,27.9811028 C93.0607459,27.139199 93.304293,26.4255959 93.7913945,25.8402723 C94.278496,25.2549486 94.9289573,24.9622912 95.7427977,24.9622912 C96.4644296,24.9622912 97.0417264,25.212854 97.4747056,25.7139873 C97.9076847,26.2151206 98.124171,26.8866291 98.124171,27.7285329 L98.124171,28.2036049 L95.0452237,28.2036049 C95.1334231,28.5884753 95.2837608,28.8771237 95.4962414,29.0695589 C95.7087219,29.261994 95.9833388,29.3582102 96.3201003,29.3582102 C96.5806896,29.3582102 96.8192255,29.3000796 97.035715,29.1838167 C97.2522046,29.0675537 97.5388485,28.8590854 97.8956554,28.5584055 L97.8956554,30.3384219 Z M96.4523988,27.1873117 L96.4523988,26.9948775 C96.4523988,26.7342882 96.3842457,26.5117884 96.2479375,26.3273714 C96.1116292,26.1429543 95.9412465,26.0507472 95.7367841,26.0507472 C95.4962401,26.0507472 95.3108236,26.1449588 95.180529,26.3333849 C95.0502343,26.521811 94.9750655,26.8064505 94.9550201,27.1873117 L96.4523988,27.1873117 Z M99.5974955,23.3686954 L101.185078,23.3686954 L101.185078,25.0945897 L102.135222,25.0945897 L102.135222,26.4957513 L101.269268,26.4957513 L101.269268,28.8410432 C101.269268,29.2018592 101.413592,29.3822644 101.702245,29.3822644 C101.842562,29.3822644 101.986886,29.3281429 102.135222,29.2198981 L102.135222,30.7713989 C101.782424,30.89568 101.423618,30.9578195 101.058793,30.9578195 C100.465451,30.9578195 100.029472,30.8165021 99.7508415,30.5338629 C99.4722114,30.2512238 99.3328984,29.8132399 99.3328984,29.2198981 L99.3328984,26.4957513 L98.6293108,26.4957513 L98.6293108,25.0945897 L99.4411427,25.0945897 L99.5974955,23.3686954 Z M107.643651,30.3384219 C106.909992,30.7513557 106.226456,30.9578195 105.593024,30.9578195 C104.767156,30.9578195 104.09665,30.6791936 103.581485,30.1219334 C103.06632,29.5646733 102.808741,28.8510702 102.808741,27.9811028 C102.808741,27.139199 103.052288,26.4255959 103.53939,25.8402723 C104.026492,25.2549486 104.676953,24.9622912 105.490793,24.9622912 C106.212425,24.9622912 106.789722,25.212854 107.222701,25.7139873 C107.65568,26.2151206 107.872167,26.8866291 107.872167,27.7285329 L107.872167,28.2036049 L104.793219,28.2036049 C104.881419,28.5884753 105.031756,28.8771237 105.244237,29.0695589 C105.456717,29.261994 105.731334,29.3582102 106.068096,29.3582102 C106.328685,29.3582102 106.567221,29.3000796 106.783711,29.1838167 C107.0002,29.0675537 107.286844,28.8590854 107.643651,28.5584055 L107.643651,30.3384219 Z M106.200394,27.1873117 L106.200394,26.9948775 C106.200394,26.7342882 106.132241,26.5117884 105.995933,26.3273714 C105.859625,26.1429543 105.689242,26.0507472 105.48478,26.0507472 C105.244236,26.0507472 105.058819,26.1449588 104.928524,26.3333849 C104.79823,26.521811 104.723061,26.8064505 104.703016,27.1873117 L106.200394,27.1873117 Z M115.61163,30.1940963 C115.419195,30.4466674 115.212731,30.6370952 114.992232,30.7653853 C114.771734,30.8936754 114.537207,30.9578195 114.288645,30.9578195 C113.815575,30.9578195 113.371578,30.772403 112.956639,30.4015644 C112.541701,30.0307258 112.236014,29.501537 112.03957,28.8139822 C111.843126,28.1264273 111.744905,27.4017995 111.744905,26.6400769 C111.744905,25.3451486 112.032551,24.2977958 112.607852,23.4979871 C113.183153,22.6981784 113.959898,22.2982801 114.93811,22.2982801 C115.591588,22.2982801 116.180912,22.4626493 116.706099,22.7913927 L116.706099,24.6495856 C116.208975,24.2366518 115.749944,24.030188 115.328992,24.030188 C114.783759,24.030188 114.376845,24.2727328 114.108238,24.7578298 C113.83963,25.2429268 113.705329,25.9044128 113.705329,26.7423076 C113.705329,27.5200664 113.796533,28.1384556 113.978946,28.5974937 C114.161358,29.0565317 114.408915,29.2860473 114.721622,29.2860473 C114.881984,29.2860473 115.001252,29.2078717 115.079429,29.0515181 C115.157606,28.8951646 115.196694,28.6606377 115.196694,28.3479306 L115.196694,27.8247501 L114.553242,27.8247501 L114.553242,26.3093306 L117.018805,26.3093306 L117.018805,30.825521 L116.068661,30.825521 L115.61163,30.1940963 Z M118.149356,25.0945897 L120.049644,25.0945897 L120.049644,28.6425954 C120.049644,28.859085 120.080714,29.022452 120.142854,29.1327013 C120.204995,29.2429506 120.2962,29.2980745 120.416472,29.2980745 C120.556789,29.2980745 120.674052,29.2349326 120.768265,29.1086471 C120.862478,28.9823615 120.909584,28.8270125 120.909584,28.6425954 L120.909584,25.0945897 L122.845954,25.0945897 L122.845954,30.825521 L121.198236,30.825521 L121.017829,30.254232 C120.829402,30.4867578 120.62795,30.6621518 120.413465,30.7804193 C120.19898,30.8986867 119.969464,30.9578195 119.724911,30.9578195 C119.267878,30.9578195 118.891031,30.7714008 118.59436,30.3985576 C118.297689,30.0257145 118.149356,29.5626743 118.149356,29.0094232 L118.149356,25.0945897 Z M125.052933,22.2982801 C125.313523,22.2982801 125.550054,22.3924917 125.762535,22.5809178 C125.975015,22.7693439 126.081254,23.0138933 126.081254,23.3145732 C126.081254,23.5992169 125.980026,23.8397573 125.777568,24.0362015 C125.575111,24.2326458 125.333568,24.3308664 125.052933,24.3308664 C124.764281,24.3308664 124.520734,24.229639 124.322285,24.0271812 C124.123836,23.8247233 124.024613,23.5851852 124.024613,23.3085597 C124.024613,23.027925 124.126843,22.7893892 124.331305,22.592945 C124.535767,22.3965007 124.776308,22.2982801 125.052933,22.2982801 L125.052933,22.2982801 Z M124.090762,25.0945897 L125.997064,25.0945897 L125.997064,30.825521 L124.090762,30.825521 L124.090762,25.0945897 Z M130.194535,22.4365922 L132.112863,22.4365922 L132.112863,30.825521 L130.423051,30.825521 L130.248657,30.1580149 C130.068249,30.4226132 129.871808,30.6220613 129.659327,30.756365 C129.446847,30.8906687 129.218333,30.9578195 128.97378,30.9578195 C128.392466,30.9578195 127.919403,30.6601509 127.554578,30.0648045 C127.189753,29.4694582 127.007343,28.7809114 127.007343,27.9991436 C127.007343,27.1853031 127.202782,26.4757091 127.593666,25.8703401 C127.98455,25.2649711 128.482669,24.9622912 129.088038,24.9622912 C129.272455,24.9622912 129.45687,25.001379 129.641287,25.0795558 C129.825704,25.1577326 130.010118,25.2770005 130.194535,25.4373631 L130.194535,22.4365922 Z M130.194535,26.8746061 C130.110345,26.7623523 130.024151,26.6781632 129.935951,26.6220362 C129.847752,26.5659093 129.755545,26.5378463 129.659327,26.5378463 C129.438829,26.5378463 129.262432,26.66413 129.130133,26.9167011 C128.997834,27.1692723 128.931685,27.5040243 128.931685,27.9209672 C128.931685,28.3218738 128.994827,28.64961 129.121113,28.9041857 C129.247398,29.1587614 129.414774,29.2860473 129.623246,29.2860473 C129.803654,29.2860473 129.943969,29.192838 130.044196,29.0064164 C130.144422,28.8199948 130.194535,28.5964927 130.194535,28.3359034 L130.194535,26.8746061 Z M137.855822,30.3384219 C137.122163,30.7513557 136.438627,30.9578195 135.805195,30.9578195 C134.979327,30.9578195 134.308821,30.6791936 133.793656,30.1219334 C133.278491,29.5646733 133.020912,28.8510702 133.020912,27.9811028 C133.020912,27.139199 133.26446,26.4255959 133.751561,25.8402723 C134.238663,25.2549486 134.889124,24.9622912 135.702964,24.9622912 C136.424596,24.9622912 137.001893,25.212854 137.434872,25.7139873 C137.867851,26.2151206 138.084338,26.8866291 138.084338,27.7285329 L138.084338,28.2036049 L135.00539,28.2036049 C135.09359,28.5884753 135.243927,28.8771237 135.456408,29.0695589 C135.668888,29.261994 135.943505,29.3582102 136.280267,29.3582102 C136.540856,29.3582102 136.779392,29.3000796 136.995882,29.1838167 C137.212371,29.0675537 137.499015,28.8590854 137.855822,28.5584055 L137.855822,30.3384219 Z M136.412565,27.1873117 L136.412565,26.9948775 C136.412565,26.7342882 136.344412,26.5117884 136.208104,26.3273714 C136.071796,26.1429543 135.901413,26.0507472 135.696951,26.0507472 C135.456407,26.0507472 135.27099,26.1449588 135.140696,26.3333849 C135.010401,26.521811 134.935232,26.8064505 134.915187,27.1873117 L136.412565,27.1873117 Z M142.702759,23.3686954 L144.290341,23.3686954 L144.290341,25.0945897 L145.240485,25.0945897 L145.240485,26.4957513 L144.374531,26.4957513 L144.374531,28.8410432 C144.374531,29.2018592 144.518855,29.3822644 144.807508,29.3822644 C144.947825,29.3822644 145.092149,29.3281429 145.240485,29.2198981 L145.240485,30.7713989 C144.887687,30.89568 144.528881,30.9578195 144.164056,30.9578195 C143.570714,30.9578195 143.134735,30.8165021 142.856105,30.5338629 C142.577475,30.2512238 142.438162,29.8132399 142.438162,29.2198981 L142.438162,26.4957513 L141.734574,26.4957513 L141.734574,25.0945897 L142.546406,25.0945897 L142.702759,23.3686954 Z M148.559975,24.9622912 C149.349761,24.9622912 149.997215,25.2228766 150.502358,25.7440552 C151.0075,26.2652337 151.260067,26.9948728 151.260067,27.9329943 C151.260067,28.823007 151.017523,29.5496393 150.532426,30.1129131 C150.047329,30.6761869 149.387847,30.9578195 148.553961,30.9578195 C147.720076,30.9578195 147.070617,30.6791936 146.605565,30.1219334 C146.140513,29.5646733 145.907991,28.8550792 145.907991,27.99313 C145.907991,27.0950992 146.151538,26.3654601 146.63864,25.8041908 C147.125741,25.2429216 147.76618,24.9622912 148.559975,24.9622912 L148.559975,24.9622912 Z M148.578016,26.429602 C148.341481,26.429602 148.16308,26.556888 148.042808,26.8114637 C147.922536,27.0660394 147.862401,27.4478972 147.862401,27.9570486 C147.862401,28.4581818 147.921534,28.8350284 148.039801,29.0875996 C148.158069,29.3401707 148.335467,29.4664544 148.572002,29.4664544 C148.812546,29.4664544 148.991949,29.341173 149.110216,29.0906063 C149.228484,28.8400397 149.287617,28.4641954 149.287617,27.9630621 C149.287617,27.4499017 149.228484,27.0660394 149.110216,26.8114637 C148.991949,26.556888 148.814551,26.429602 148.578016,26.429602 L148.578016,26.429602 Z M155.367335,22.4365922 L157.436003,22.4365922 L157.95317,24.9021555 L158.482364,22.4365922 L160.587113,22.4365922 L159.294196,26.1710186 L160.941914,30.825521 L158.758988,30.825521 L157.95317,27.475963 L157.129311,30.825521 L154.964426,30.825521 L156.630185,26.1710186 L155.367335,22.4365922 Z M161.783813,22.4365922 L163.852481,22.4365922 L164.369648,24.9021555 L164.898842,22.4365922 L167.003591,22.4365922 L165.710674,26.1710186 L167.358392,30.825521 L165.175466,30.825521 L164.369648,27.475963 L163.545789,30.825521 L161.380904,30.825521 L163.046663,26.1710186 L161.783813,22.4365922 Z M168.200292,22.4365922 L170.268959,22.4365922 L170.786126,24.9021555 L171.31532,22.4365922 L173.420069,22.4365922 L172.127152,26.1710186 L173.77487,30.825521 L171.591944,30.825521 L170.786126,27.475963 L169.962267,30.825521 L167.797382,30.825521 L169.463141,26.1710186 L168.200292,22.4365922 Z M174.61677,22.4365922 L176.685437,22.4365922 L177.202604,24.9021555 L177.731799,22.4365922 L179.836548,22.4365922 L178.54363,26.1710186 L180.191348,30.825521 L178.008423,30.825521 L177.202604,27.475963 L176.378745,30.825521 L174.213861,30.825521 L175.879619,26.1710186 L174.61677,22.4365922 Z M181.033248,22.4365922 L183.101916,22.4365922 L183.619083,24.9021555 L184.148277,22.4365922 L186.253026,22.4365922 L184.960109,26.1710186 L186.607826,30.825521 L184.424901,30.825521 L183.619083,27.475963 L182.795224,30.825521 L180.630339,30.825521 L182.296097,26.1710186 L181.033248,22.4365922 Z M187.449726,22.4365922 L189.518394,22.4365922 L190.035561,24.9021555 L190.564755,22.4365922 L192.669504,22.4365922 L191.376587,26.1710186 L193.024305,30.825521 L190.841379,30.825521 L190.035561,27.475963 L189.211702,30.825521 L187.046817,30.825521 L188.712576,26.1710186 L187.449726,22.4365922 Z" id="Your-Complete-Guide-"></path>
                </g>
            </g>
        </g>
    </g>
</svg>