<?xml version="1.0" encoding="UTF-8" standalone="no"?>
<svg width="46px" height="39px" viewBox="0 0 46 39" version="1.1" xmlns="http://www.w3.org/2000/svg" xmlns:xlink="http://www.w3.org/1999/xlink">
    <!-- Generator: Sketch 40.3 (33839) - http://www.bohemiancoding.com/sketch -->
    <title>sunset</title>
    <desc>Created with Sketch.</desc>
    <defs>
        <rect id="path-1" x="0" y="0" width="46" height="40"></rect>
        <radialGradient cx="50%" cy="66.8346942%" fx="50%" fy="66.8346942%" r="98.1943559%" id="radialGradient-3">
            <stop stop-color="#FFBD00" offset="0%"></stop>
            <stop stop-color="#FD3A00" offset="100%"></stop>
        </radialGradient>
        <linearGradient x1="50%" y1="3.62922513%" x2="50%" y2="100%" id="linearGradient-4">
            <stop stop-color="#01FFB7" offset="0%"></stop>
            <stop stop-color="#0320C4" offset="100%"></stop>
        </linearGradient>
    </defs>
    <g id="Page-1" stroke="none" stroke-width="1" fill="none" fill-rule="evenodd">
        <g id="sunset" transform="translate(0.000000, -1.000000)">
            <mask id="mask-2" fill="white">
                <use xlink:href="#path-1"></use>
            </mask>
            <g id="Mask"></g>
            <path d="M19.9457071,8.56306358 C19.9452081,8.54249092 19.9449572,8.5218559 19.9449572,8.50116136 L19.9449572,3.59626032 C19.9449572,2.21618985 21.0546193,1.09742169 22.4449572,1.09742169 C23.8256691,1.09742169 24.9449572,2.214124 24.9449572,3.59626032 L24.9449572,8.50116136 C24.9449572,8.52185515 24.9447077,8.54249019 24.9442115,8.56306358 L29.9449572,8.56306358 L22.4449572,17 L14.9449572,8.56306358 L19.9457071,8.56306358 Z M22.9858998,44.0818852 C30.1882135,44.0818852 36.0268424,38.2432563 36.0268424,31.0409426 C36.0268424,23.8386289 30.1882135,18 22.9858998,18 C15.7835861,18 9.94495721,23.8386289 9.94495721,31.0409426 C9.94495721,38.2432563 15.7835861,44.0818852 22.9858998,44.0818852 Z M2.54976195,27.4257393 C2.88378639,26.0860405 4.24554872,25.2720124 5.57253314,25.6028667 L7.43414248,26.0670181 C8.76954847,26.3999722 9.58365738,27.7465852 9.24730419,29.0956241 C8.91327976,30.435323 7.55151742,31.2493511 6.224533,30.9184967 L4.36292366,30.4543454 C3.02751767,30.1213913 2.21340876,28.7747783 2.54976195,27.4257393 Z M8.76776695,14.767767 C9.74407768,13.7914562 11.3305913,13.7950574 12.2976364,14.7621024 L13.6542914,16.1187575 C14.6274737,17.0919398 14.6317443,18.6655095 13.6486269,19.6486269 C12.6723162,20.6249376 11.0858025,20.6213364 10.1187575,19.6542914 L8.76210245,18.2976364 C7.78892014,17.324454 7.78464956,15.7508843 8.76776695,14.767767 Z M37.6486269,14.767767 C36.6723162,13.7914562 35.0858025,13.7950574 34.1187575,14.7621024 L32.7621024,16.1187575 C31.7889201,17.0919398 31.7846496,18.6655095 32.767767,19.6486269 C33.7440777,20.6249376 35.3305913,20.6213364 36.2976364,19.6542914 L37.6542914,18.2976364 C38.6274737,17.324454 38.6317443,15.7508843 37.6486269,14.767767 Z M43.3291894,27.4257393 C42.9951649,26.0860405 41.6334026,25.2720124 40.3064182,25.6028667 L38.4448089,26.0670181 C37.1094029,26.3999722 36.295294,27.7465852 36.6316471,29.0956241 C36.9656716,30.435323 38.3274339,31.2493511 39.6544183,30.9184967 L41.5160277,30.4543454 C42.8514337,30.1213913 43.6655426,28.7747783 43.3291894,27.4257393 Z" id="Combined-Shape" fill="url(#radialGradient-3)" mask="url(#mask-2)"></path>
            <g id="Group-7" mask="url(#mask-2)">
                <g transform="translate(0.000000, -1.000000)" id="Group-6">
                    <g>
                        <g id="Group-5">
                            <rect id="Mask" x="0" y="0" width="46" height="40"></rect>
                            <g id="Group" transform="translate(0.000000, 36.000000)" fill="url(#linearGradient-4)">
                                <rect id="Rectangle-Copy-2" x="0" y="0" width="46" height="5.54933727"></rect>
                            </g>
                        </g>
                    </g>
                </g>
            </g>
        </g>
    </g>
</svg>